  0
SECTION
  2
HEADER
  9
$ACADVER
  1
AC1014
  9
$HANDSEED
  5
FFFF
  9
$MEASUREMENT
 70
     1
  0
ENDSEC
  0
SECTION
  2
TABLES
  0
TABLE
  2
VPORT
  5
8
330
0
100
AcDbSymbolTable
 70
     4
  0
VPORT
  5
2E
330
8
100
AcDbSymbolTableRecord
100
AcDbViewportTableRecord
  2
*ACTIVE
 70
     0
 10
0.0
 20
0.0
 11
1.0
 21
1.0
 12
210.0
 22
148.5
 13
0.0
 23
0.0
 14
10.0
 24
10.0
 15
10.0
 25
10.0
 16
0.0
 26
0.0
 36
1.0
 17
0.0
 27
0.0
 37
0.0
 40
341.0
 41
1.24
 42
50.0
 43
0.0
 44
0.0
 50
0.0
 51
0.0
 71
     0
 72
   100
 73
     1
 74
     3
 75
     0
 76
     0
 77
     0
 78
     0
  0
ENDTAB
  0
TABLE
  2
LTYPE
  5
5
330
0
100
AcDbSymbolTable
 70
     1
  0
LTYPE
  5
14
330
5
100
AcDbSymbolTableRecord
100
AcDbLinetypeTableRecord
  2
BYBLOCK
 70
     0
  3

 72
    65
 73
     0
 40
0.0
  0
LTYPE
  5
15
330
5
100
AcDbSymbolTableRecord
100
AcDbLinetypeTableRecord
  2
BYLAYER
 70
     0
  3

 72
    65
 73
     0
 40
0.0
  0
LTYPE
  5
16
330
5
100
AcDbSymbolTableRecord
100
AcDbLinetypeTableRecord
  2
CONTINUOUS
 70
     0
  3
Solid line
 72
    65
 73
     0
 40
0.0
  0
ENDTAB
  0
TABLE
  2
LAYER
  5
2
100
AcDbSymbolTable
 70
1
  0
LAYER
  5
50
100
AcDbSymbolTableRecord
100
AcDbLayerTableRecord
  2
0
 70
0
  6
CONTINUOUS
  0
ENDTAB
  0
TABLE
  2
STYLE
  5
3
330
0
100
AcDbSymbolTable
 70
     1
  0
STYLE
  5
11
330
3
100
AcDbSymbolTableRecord
100
AcDbTextStyleTableRecord
  2
STANDARD
 70
     0
 40
0.0
 41
1.0
 50
0.0
 71
     0
 42
2.5
  3
txt
  4

  0
ENDTAB
  0
TABLE
  2
VIEW
  5
6
330
0
100
AcDbSymbolTable
 70
     0
  0
ENDTAB
  0
TABLE
  2
UCS
  5
7
330
0
100
AcDbSymbolTable
 70
     0
  0
ENDTAB
  0
TABLE
  2
APPID
  5
9
330
0
100
AcDbSymbolTable
 70
     2
  0
APPID
  5
12
330
9
100
AcDbSymbolTableRecord
100
AcDbRegAppTableRecord
  2
ACAD
 70
     0
  0
ENDTAB
  0
TABLE
  2
DIMSTYLE
  5
A
330
0
100
AcDbSymbolTable
 70
     1
  0
DIMSTYLE
105
27
330
A
100
AcDbSymbolTableRecord
100
AcDbDimStyleTableRecord
  2
ISO-25
 70
     0
  3

  4

  5

  6

  7

 40
1.0
 41
2.5
 42
0.625
 43
3.75
 44
1.25
 45
0.0
 46
0.0
 47
0.0
 48
0.0
140
2.5
141
2.5
142
0.0
143
0.03937007874016
144
1.0
145
0.0
146
1.0
147
0.625
 71
     0
 72
     0
 73
     0
 74
     0
 75
     0
 76
     0
 77
     1
 78
     8
170
     0
171
     3
172
     1
173
     0
174
     0
175
     0
176
     0
177
     0
178
     0
270
     2
271
     2
272
     2
273
     2
274
     3
340
11
275
     0
280
     0
281
     0
282
     0
283
     0
284
     8
285
     0
286
     0
287
     3
288
     0
  0
ENDTAB
  0
TABLE
  2
BLOCK_RECORD
  5
1
330
0
100
AcDbSymbolTable
 70
     1
  0
BLOCK_RECORD
  5
1F
330
1
100
AcDbSymbolTableRecord
100
AcDbBlockTableRecord
  2
*MODEL_SPACE
  0
BLOCK_RECORD
  5
1B
330
1
100
AcDbSymbolTableRecord
100
AcDbBlockTableRecord
  2
*PAPER_SPACE
  0
ENDTAB
  0
ENDSEC
  0
SECTION
  2
BLOCKS
  0
BLOCK
  5
20
330
1F
100
AcDbEntity
  8
0
100
AcDbBlockBegin
  2
*MODEL_SPACE
 70
     0
 10
0.0
 20
0.0
 30
0.0
  3
*MODEL_SPACE
  1

  0
ENDBLK
  5
21
330
1F
100
AcDbEntity
  8
0
100
AcDbBlockEnd
  0
BLOCK
  5
1C
330
1B
100
AcDbEntity
 67
     1
  8
0
100
AcDbBlockBegin
  2
*PAPER_SPACE
  1

  0
ENDBLK
  5
1D
330
1B
100
AcDbEntity
 67
     1
  8
0
100
AcDbBlockEnd
  0
ENDSEC
  0
SECTION
  2
ENTITIES
  0
LWPOLYLINE
  5
100
100
AcDbEntity
  8
0
 62
7
100
AcDbPolyline
 90
2
 70
0
 10
28.575000
 20
-296.005606
 30
0.0
 10
28.575000
 20
-19.780606
 30
0.0
  0
LWPOLYLINE
  5
101
100
AcDbEntity
  8
0
 62
7
100
AcDbPolyline
 90
2
 70
0
 10
309.562500
 20
-300.768106
 30
0.0
 10
33.337500
 20
-300.768106
 30
0.0
  0
LWPOLYLINE
  5
102
100
AcDbEntity
  8
0
 62
7
100
AcDbPolyline
 90
2
 70
0
 10
314.325000
 20
-19.780606
 30
0.0
 10
314.325000
 20
-296.005606
 30
0.0
  0
SPLINE
  5
103
100
AcDbEntity
  8
0
 62
7
100
AcDbSpline
 70
8
 71
3
 72
8
 73
4
 74
0
 40
0
 40
0
 40
0
 40
0
 40
1
 40
1
 40
1
 40
1
 10
33.337500
 20
-15.018106
 30
0.0
 10
32.074406
 20
-15.018106
 30
0.0
 10
30.863046
 20
-15.519868
 30
0.0
 10
29.969904
 20
-16.413010
 30
0.0
  0
SPLINE
  5
104
100
AcDbEntity
  8
0
 62
7
100
AcDbSpline
 70
8
 71
3
 72
8
 73
4
 74
0
 40
0
 40
0
 40
0
 40
0
 40
1
 40
1
 40
1
 40
1
 10
29.969904
 20
-16.413010
 30
0.0
 10
29.076762
 20
-17.306152
 30
0.0
 10
28.575000
 20
-18.517512
 30
0.0
 10
28.575000
 20
-19.780606
 30
0.0
  0
SPLINE
  5
105
100
AcDbEntity
  8
0
 62
7
100
AcDbSpline
 70
8
 71
3
 72
8
 73
4
 74
0
 40
0
 40
0
 40
0
 40
0
 40
1
 40
1
 40
1
 40
1
 10
28.575000
 20
-296.005606
 30
0.0
 10
28.575000
 20
-297.268699
 30
0.0
 10
29.076762
 20
-298.480060
 30
0.0
 10
29.969904
 20
-299.373202
 30
0.0
  0
SPLINE
  5
106
100
AcDbEntity
  8
0
 62
7
100
AcDbSpline
 70
8
 71
3
 72
8
 73
4
 74
0
 40
0
 40
0
 40
0
 40
0
 40
1
 40
1
 40
1
 40
1
 10
29.969904
 20
-299.373202
 30
0.0
 10
30.863046
 20
-300.266344
 30
0.0
 10
32.074406
 20
-300.768106
 30
0.0
 10
33.337500
 20
-300.768106
 30
0.0
  0
SPLINE
  5
107
100
AcDbEntity
  8
0
 62
7
100
AcDbSpline
 70
8
 71
3
 72
8
 73
4
 74
0
 40
0
 40
0
 40
0
 40
0
 40
1
 40
1
 40
1
 40
1
 10
309.562500
 20
-300.768106
 30
0.0
 10
310.825594
 20
-300.768106
 30
0.0
 10
312.036954
 20
-300.266344
 30
0.0
 10
312.930096
 20
-299.373202
 30
0.0
  0
SPLINE
  5
108
100
AcDbEntity
  8
0
 62
7
100
AcDbSpline
 70
8
 71
3
 72
8
 73
4
 74
0
 40
0
 40
0
 40
0
 40
0
 40
1
 40
1
 40
1
 40
1
 10
312.930096
 20
-299.373202
 30
0.0
 10
313.823238
 20
-298.480060
 30
0.0
 10
314.325000
 20
-297.268699
 30
0.0
 10
314.325000
 20
-296.005606
 30
0.0
  0
SPLINE
  5
109
100
AcDbEntity
  8
0
 62
7
100
AcDbSpline
 70
8
 71
3
 72
8
 73
4
 74
0
 40
0
 40
0
 40
0
 40
0
 40
1
 40
1
 40
1
 40
1
 10
314.325000
 20
-19.780606
 30
0.0
 10
314.325000
 20
-18.517512
 30
0.0
 10
313.823238
 20
-17.306152
 30
0.0
 10
312.930096
 20
-16.413010
 30
0.0
  0
SPLINE
  5
10a
100
AcDbEntity
  8
0
 62
7
100
AcDbSpline
 70
8
 71
3
 72
8
 73
4
 74
0
 40
0
 40
0
 40
0
 40
0
 40
1
 40
1
 40
1
 40
1
 10
312.930096
 20
-16.413010
 30
0.0
 10
312.036954
 20
-15.519868
 30
0.0
 10
310.825594
 20
-15.018106
 30
0.0
 10
309.562500
 20
-15.018106
 30
0.0
  0
LWPOLYLINE
  5
10b
100
AcDbEntity
  8
0
 62
7
100
AcDbPolyline
 90
2
 70
0
 10
33.337500
 20
-15.018106
 30
0.0
 10
309.562500
 20
-15.018106
 30
0.0
  0
LWPOLYLINE
  5
10c
100
AcDbEntity
  8
0
 62
7
100
AcDbPolyline
 90
4
 70
1
 10
240.665000
 20
-17.558106
 30
0.0
 10
254.635000
 20
-17.558106
 30
0.0
 10
254.635000
 20
-31.528106
 30
0.0
 10
240.665000
 20
-31.528106
 30
0.0
  0
LWPOLYLINE
  5
10d
100
AcDbEntity
  8
0
 62
7
100
AcDbPolyline
 90
4
 70
1
 10
31.115000
 20
-17.558106
 30
0.0
 10
45.085000
 20
-17.558106
 30
0.0
 10
45.085000
 20
-31.528106
 30
0.0
 10
31.115000
 20
-31.528106
 30
0.0
  0
LWPOLYLINE
  5
10e
100
AcDbEntity
  8
0
 62
7
100
AcDbPolyline
 90
4
 70
1
 10
50.165000
 20
-17.558106
 30
0.0
 10
64.135000
 20
-17.558106
 30
0.0
 10
64.135000
 20
-31.528106
 30
0.0
 10
50.165000
 20
-31.528106
 30
0.0
  0
LWPOLYLINE
  5
10f
100
AcDbEntity
  8
0
 62
7
100
AcDbPolyline
 90
4
 70
1
 10
69.215000
 20
-17.558106
 30
0.0
 10
83.185000
 20
-17.558106
 30
0.0
 10
83.185000
 20
-31.528106
 30
0.0
 10
69.215000
 20
-31.528106
 30
0.0
  0
LWPOLYLINE
  5
110
100
AcDbEntity
  8
0
 62
7
100
AcDbPolyline
 90
4
 70
1
 10
88.265000
 20
-17.558106
 30
0.0
 10
102.235000
 20
-17.558106
 30
0.0
 10
102.235000
 20
-31.528106
 30
0.0
 10
88.265000
 20
-31.528106
 30
0.0
  0
LWPOLYLINE
  5
111
100
AcDbEntity
  8
0
 62
7
100
AcDbPolyline
 90
4
 70
1
 10
107.315000
 20
-17.558106
 30
0.0
 10
121.285000
 20
-17.558106
 30
0.0
 10
121.285000
 20
-31.528106
 30
0.0
 10
107.315000
 20
-31.528106
 30
0.0
  0
LWPOLYLINE
  5
112
100
AcDbEntity
  8
0
 62
7
100
AcDbPolyline
 90
4
 70
1
 10
126.365000
 20
-17.558106
 30
0.0
 10
140.335000
 20
-17.558106
 30
0.0
 10
140.335000
 20
-31.528106
 30
0.0
 10
126.365000
 20
-31.528106
 30
0.0
  0
LWPOLYLINE
  5
113
100
AcDbEntity
  8
0
 62
7
100
AcDbPolyline
 90
4
 70
1
 10
145.415000
 20
-17.558106
 30
0.0
 10
159.385000
 20
-17.558106
 30
0.0
 10
159.385000
 20
-31.528106
 30
0.0
 10
145.415000
 20
-31.528106
 30
0.0
  0
LWPOLYLINE
  5
114
100
AcDbEntity
  8
0
 62
7
100
AcDbPolyline
 90
4
 70
1
 10
164.465000
 20
-17.558106
 30
0.0
 10
178.435000
 20
-17.558106
 30
0.0
 10
178.435000
 20
-31.528106
 30
0.0
 10
164.465000
 20
-31.528106
 30
0.0
  0
LWPOLYLINE
  5
115
100
AcDbEntity
  8
0
 62
7
100
AcDbPolyline
 90
4
 70
1
 10
197.485000
 20
-31.528106
 30
0.0
 10
183.515000
 20
-31.528106
 30
0.0
 10
183.515000
 20
-17.558106
 30
0.0
 10
197.485000
 20
-17.558106
 30
0.0
  0
LWPOLYLINE
  5
116
100
AcDbEntity
  8
0
 62
7
100
AcDbPolyline
 90
4
 70
1
 10
202.565000
 20
-17.558106
 30
0.0
 10
216.535000
 20
-17.558106
 30
0.0
 10
216.535000
 20
-31.528106
 30
0.0
 10
202.565000
 20
-31.528106
 30
0.0
  0
LWPOLYLINE
  5
117
100
AcDbEntity
  8
0
 62
7
100
AcDbPolyline
 90
4
 70
1
 10
221.615000
 20
-17.558106
 30
0.0
 10
235.585000
 20
-17.558106
 30
0.0
 10
235.585000
 20
-31.528106
 30
0.0
 10
221.615000
 20
-31.528106
 30
0.0
  0
LWPOLYLINE
  5
118
100
AcDbEntity
  8
0
 62
7
100
AcDbPolyline
 90
4
 70
1
 10
259.715000
 20
-17.558106
 30
0.0
 10
273.685000
 20
-17.558106
 30
0.0
 10
273.685000
 20
-31.528106
 30
0.0
 10
259.715000
 20
-31.528106
 30
0.0
  0
LWPOLYLINE
  5
119
100
AcDbEntity
  8
0
 62
7
100
AcDbPolyline
 90
4
 70
1
 10
278.765000
 20
-17.558106
 30
0.0
 10
292.735000
 20
-17.558106
 30
0.0
 10
292.735000
 20
-31.528106
 30
0.0
 10
278.765000
 20
-31.528106
 30
0.0
  0
LWPOLYLINE
  5
11a
100
AcDbEntity
  8
0
 62
7
100
AcDbPolyline
 90
4
 70
1
 10
297.815000
 20
-17.558106
 30
0.0
 10
311.785000
 20
-17.558106
 30
0.0
 10
311.785000
 20
-31.528106
 30
0.0
 10
297.815000
 20
-31.528106
 30
0.0
  0
LWPOLYLINE
  5
11b
100
AcDbEntity
  8
0
 62
7
100
AcDbPolyline
 90
4
 70
1
 10
31.115000
 20
-36.608106
 30
0.0
 10
45.085000
 20
-36.608106
 30
0.0
 10
45.085000
 20
-50.578106
 30
0.0
 10
31.115000
 20
-50.578106
 30
0.0
  0
LWPOLYLINE
  5
11c
100
AcDbEntity
  8
0
 62
7
100
AcDbPolyline
 90
4
 70
1
 10
50.165000
 20
-36.608106
 30
0.0
 10
64.135000
 20
-36.608106
 30
0.0
 10
64.135000
 20
-50.578106
 30
0.0
 10
50.165000
 20
-50.578106
 30
0.0
  0
LWPOLYLINE
  5
11d
100
AcDbEntity
  8
0
 62
7
100
AcDbPolyline
 90
4
 70
1
 10
69.215000
 20
-36.608106
 30
0.0
 10
83.185000
 20
-36.608106
 30
0.0
 10
83.185000
 20
-50.578106
 30
0.0
 10
69.215000
 20
-50.578106
 30
0.0
  0
LWPOLYLINE
  5
11e
100
AcDbEntity
  8
0
 62
7
100
AcDbPolyline
 90
4
 70
1
 10
88.265000
 20
-36.608106
 30
0.0
 10
102.235000
 20
-36.608106
 30
0.0
 10
102.235000
 20
-50.578106
 30
0.0
 10
88.265000
 20
-50.578106
 30
0.0
  0
LWPOLYLINE
  5
11f
100
AcDbEntity
  8
0
 62
7
100
AcDbPolyline
 90
4
 70
1
 10
107.315000
 20
-36.608106
 30
0.0
 10
121.285000
 20
-36.608106
 30
0.0
 10
121.285000
 20
-50.578106
 30
0.0
 10
107.315000
 20
-50.578106
 30
0.0
  0
LWPOLYLINE
  5
120
100
AcDbEntity
  8
0
 62
7
100
AcDbPolyline
 90
4
 70
1
 10
126.365000
 20
-36.608106
 30
0.0
 10
140.335000
 20
-36.608106
 30
0.0
 10
140.335000
 20
-50.578106
 30
0.0
 10
126.365000
 20
-50.578106
 30
0.0
  0
LWPOLYLINE
  5
121
100
AcDbEntity
  8
0
 62
7
100
AcDbPolyline
 90
4
 70
1
 10
145.415000
 20
-36.608106
 30
0.0
 10
159.385000
 20
-36.608106
 30
0.0
 10
159.385000
 20
-50.578106
 30
0.0
 10
145.415000
 20
-50.578106
 30
0.0
  0
LWPOLYLINE
  5
122
100
AcDbEntity
  8
0
 62
7
100
AcDbPolyline
 90
4
 70
1
 10
164.465000
 20
-36.608106
 30
0.0
 10
178.435000
 20
-36.608106
 30
0.0
 10
178.435000
 20
-50.578106
 30
0.0
 10
164.465000
 20
-50.578106
 30
0.0
  0
LWPOLYLINE
  5
123
100
AcDbEntity
  8
0
 62
7
100
AcDbPolyline
 90
4
 70
1
 10
183.515000
 20
-36.608106
 30
0.0
 10
197.485000
 20
-36.608106
 30
0.0
 10
197.485000
 20
-50.578106
 30
0.0
 10
183.515000
 20
-50.578106
 30
0.0
  0
LWPOLYLINE
  5
124
100
AcDbEntity
  8
0
 62
7
100
AcDbPolyline
 90
4
 70
1
 10
202.565000
 20
-36.608106
 30
0.0
 10
216.535000
 20
-36.608106
 30
0.0
 10
216.535000
 20
-50.578106
 30
0.0
 10
202.565000
 20
-50.578106
 30
0.0
  0
LWPOLYLINE
  5
125
100
AcDbEntity
  8
0
 62
7
100
AcDbPolyline
 90
4
 70
1
 10
221.615000
 20
-36.608106
 30
0.0
 10
235.585000
 20
-36.608106
 30
0.0
 10
235.585000
 20
-50.578106
 30
0.0
 10
221.615000
 20
-50.578106
 30
0.0
  0
LWPOLYLINE
  5
126
100
AcDbEntity
  8
0
 62
7
100
AcDbPolyline
 90
4
 70
1
 10
240.665000
 20
-36.608106
 30
0.0
 10
254.635000
 20
-36.608106
 30
0.0
 10
254.635000
 20
-50.578106
 30
0.0
 10
240.665000
 20
-50.578106
 30
0.0
  0
LWPOLYLINE
  5
127
100
AcDbEntity
  8
0
 62
7
100
AcDbPolyline
 90
4
 70
1
 10
259.715000
 20
-36.608106
 30
0.0
 10
273.685000
 20
-36.608106
 30
0.0
 10
273.685000
 20
-50.578106
 30
0.0
 10
259.715000
 20
-50.578106
 30
0.0
  0
LWPOLYLINE
  5
128
100
AcDbEntity
  8
0
 62
7
100
AcDbPolyline
 90
4
 70
1
 10
278.765000
 20
-36.608106
 30
0.0
 10
292.735000
 20
-36.608106
 30
0.0
 10
292.735000
 20
-50.578106
 30
0.0
 10
278.765000
 20
-50.578106
 30
0.0
  0
LWPOLYLINE
  5
129
100
AcDbEntity
  8
0
 62
7
100
AcDbPolyline
 90
4
 70
1
 10
297.815000
 20
-36.608106
 30
0.0
 10
311.785000
 20
-36.608106
 30
0.0
 10
311.785000
 20
-50.578106
 30
0.0
 10
297.815000
 20
-50.578106
 30
0.0
  0
LWPOLYLINE
  5
12a
100
AcDbEntity
  8
0
 62
7
100
AcDbPolyline
 90
4
 70
1
 10
31.115000
 20
-55.658106
 30
0.0
 10
45.085000
 20
-55.658106
 30
0.0
 10
45.085000
 20
-69.628106
 30
0.0
 10
31.115000
 20
-69.628106
 30
0.0
  0
LWPOLYLINE
  5
12b
100
AcDbEntity
  8
0
 62
7
100
AcDbPolyline
 90
4
 70
1
 10
50.165000
 20
-55.658106
 30
0.0
 10
64.135000
 20
-55.658106
 30
0.0
 10
64.135000
 20
-69.628106
 30
0.0
 10
50.165000
 20
-69.628106
 30
0.0
  0
LWPOLYLINE
  5
12c
100
AcDbEntity
  8
0
 62
7
100
AcDbPolyline
 90
4
 70
1
 10
69.215000
 20
-55.658106
 30
0.0
 10
83.185000
 20
-55.658106
 30
0.0
 10
83.185000
 20
-69.628106
 30
0.0
 10
69.215000
 20
-69.628106
 30
0.0
  0
LWPOLYLINE
  5
12d
100
AcDbEntity
  8
0
 62
7
100
AcDbPolyline
 90
4
 70
1
 10
88.265000
 20
-55.658106
 30
0.0
 10
102.235000
 20
-55.658106
 30
0.0
 10
102.235000
 20
-69.628106
 30
0.0
 10
88.265000
 20
-69.628106
 30
0.0
  0
LWPOLYLINE
  5
12e
100
AcDbEntity
  8
0
 62
7
100
AcDbPolyline
 90
4
 70
1
 10
107.315000
 20
-55.658106
 30
0.0
 10
121.285000
 20
-55.658106
 30
0.0
 10
121.285000
 20
-69.628106
 30
0.0
 10
107.315000
 20
-69.628106
 30
0.0
  0
LWPOLYLINE
  5
12f
100
AcDbEntity
  8
0
 62
7
100
AcDbPolyline
 90
4
 70
1
 10
126.365000
 20
-55.658106
 30
0.0
 10
140.335000
 20
-55.658106
 30
0.0
 10
140.335000
 20
-69.628106
 30
0.0
 10
126.365000
 20
-69.628106
 30
0.0
  0
LWPOLYLINE
  5
130
100
AcDbEntity
  8
0
 62
7
100
AcDbPolyline
 90
4
 70
1
 10
145.415000
 20
-55.658106
 30
0.0
 10
159.385000
 20
-55.658106
 30
0.0
 10
159.385000
 20
-69.628106
 30
0.0
 10
145.415000
 20
-69.628106
 30
0.0
  0
LWPOLYLINE
  5
131
100
AcDbEntity
  8
0
 62
7
100
AcDbPolyline
 90
4
 70
1
 10
164.465000
 20
-55.658106
 30
0.0
 10
178.435000
 20
-55.658106
 30
0.0
 10
178.435000
 20
-69.628106
 30
0.0
 10
164.465000
 20
-69.628106
 30
0.0
  0
LWPOLYLINE
  5
132
100
AcDbEntity
  8
0
 62
7
100
AcDbPolyline
 90
4
 70
1
 10
197.485000
 20
-69.628106
 30
0.0
 10
183.515000
 20
-69.628106
 30
0.0
 10
183.515000
 20
-55.658106
 30
0.0
 10
197.485000
 20
-55.658106
 30
0.0
  0
LWPOLYLINE
  5
133
100
AcDbEntity
  8
0
 62
7
100
AcDbPolyline
 90
4
 70
1
 10
202.565000
 20
-55.658106
 30
0.0
 10
216.535000
 20
-55.658106
 30
0.0
 10
216.535000
 20
-69.628106
 30
0.0
 10
202.565000
 20
-69.628106
 30
0.0
  0
LWPOLYLINE
  5
134
100
AcDbEntity
  8
0
 62
7
100
AcDbPolyline
 90
4
 70
1
 10
221.615000
 20
-55.658106
 30
0.0
 10
235.585000
 20
-55.658106
 30
0.0
 10
235.585000
 20
-69.628106
 30
0.0
 10
221.615000
 20
-69.628106
 30
0.0
  0
LWPOLYLINE
  5
135
100
AcDbEntity
  8
0
 62
7
100
AcDbPolyline
 90
4
 70
1
 10
240.665000
 20
-55.658106
 30
0.0
 10
254.635000
 20
-55.658106
 30
0.0
 10
254.635000
 20
-69.628106
 30
0.0
 10
240.665000
 20
-69.628106
 30
0.0
  0
LWPOLYLINE
  5
136
100
AcDbEntity
  8
0
 62
7
100
AcDbPolyline
 90
4
 70
1
 10
259.715000
 20
-55.658106
 30
0.0
 10
273.685000
 20
-55.658106
 30
0.0
 10
273.685000
 20
-69.628106
 30
0.0
 10
259.715000
 20
-69.628106
 30
0.0
  0
LWPOLYLINE
  5
137
100
AcDbEntity
  8
0
 62
7
100
AcDbPolyline
 90
4
 70
1
 10
278.765000
 20
-55.658106
 30
0.0
 10
292.735000
 20
-55.658106
 30
0.0
 10
292.735000
 20
-69.628106
 30
0.0
 10
278.765000
 20
-69.628106
 30
0.0
  0
LWPOLYLINE
  5
138
100
AcDbEntity
  8
0
 62
7
100
AcDbPolyline
 90
4
 70
1
 10
297.815000
 20
-55.658106
 30
0.0
 10
311.785000
 20
-55.658106
 30
0.0
 10
311.785000
 20
-69.628106
 30
0.0
 10
297.815000
 20
-69.628106
 30
0.0
  0
LWPOLYLINE
  5
139
100
AcDbEntity
  8
0
 62
7
100
AcDbPolyline
 90
4
 70
1
 10
31.115000
 20
-74.708106
 30
0.0
 10
45.085000
 20
-74.708106
 30
0.0
 10
45.085000
 20
-88.678106
 30
0.0
 10
31.115000
 20
-88.678106
 30
0.0
  0
LWPOLYLINE
  5
13a
100
AcDbEntity
  8
0
 62
7
100
AcDbPolyline
 90
4
 70
1
 10
50.165000
 20
-74.708106
 30
0.0
 10
64.135000
 20
-74.708106
 30
0.0
 10
64.135000
 20
-88.678106
 30
0.0
 10
50.165000
 20
-88.678106
 30
0.0
  0
LWPOLYLINE
  5
13b
100
AcDbEntity
  8
0
 62
7
100
AcDbPolyline
 90
4
 70
1
 10
69.215000
 20
-74.708106
 30
0.0
 10
83.185000
 20
-74.708106
 30
0.0
 10
83.185000
 20
-88.678106
 30
0.0
 10
69.215000
 20
-88.678106
 30
0.0
  0
LWPOLYLINE
  5
13c
100
AcDbEntity
  8
0
 62
7
100
AcDbPolyline
 90
4
 70
1
 10
88.265000
 20
-74.708106
 30
0.0
 10
102.235000
 20
-74.708106
 30
0.0
 10
102.235000
 20
-88.678106
 30
0.0
 10
88.265000
 20
-88.678106
 30
0.0
  0
LWPOLYLINE
  5
13d
100
AcDbEntity
  8
0
 62
7
100
AcDbPolyline
 90
4
 70
1
 10
107.315000
 20
-74.708106
 30
0.0
 10
121.285000
 20
-74.708106
 30
0.0
 10
121.285000
 20
-88.678106
 30
0.0
 10
107.315000
 20
-88.678106
 30
0.0
  0
LWPOLYLINE
  5
13e
100
AcDbEntity
  8
0
 62
7
100
AcDbPolyline
 90
4
 70
1
 10
126.365000
 20
-74.708106
 30
0.0
 10
140.335000
 20
-74.708106
 30
0.0
 10
140.335000
 20
-88.678106
 30
0.0
 10
126.365000
 20
-88.678106
 30
0.0
  0
LWPOLYLINE
  5
13f
100
AcDbEntity
  8
0
 62
7
100
AcDbPolyline
 90
4
 70
1
 10
145.415000
 20
-74.708106
 30
0.0
 10
159.385000
 20
-74.708106
 30
0.0
 10
159.385000
 20
-88.678106
 30
0.0
 10
145.415000
 20
-88.678106
 30
0.0
  0
LWPOLYLINE
  5
140
100
AcDbEntity
  8
0
 62
7
100
AcDbPolyline
 90
4
 70
1
 10
164.465000
 20
-74.708106
 30
0.0
 10
178.435000
 20
-74.708106
 30
0.0
 10
178.435000
 20
-88.678106
 30
0.0
 10
164.465000
 20
-88.678106
 30
0.0
  0
LWPOLYLINE
  5
141
100
AcDbEntity
  8
0
 62
7
100
AcDbPolyline
 90
4
 70
1
 10
183.515000
 20
-74.708106
 30
0.0
 10
197.485000
 20
-74.708106
 30
0.0
 10
197.485000
 20
-88.678106
 30
0.0
 10
183.515000
 20
-88.678106
 30
0.0
  0
LWPOLYLINE
  5
142
100
AcDbEntity
  8
0
 62
7
100
AcDbPolyline
 90
4
 70
1
 10
202.565000
 20
-74.708106
 30
0.0
 10
216.535000
 20
-74.708106
 30
0.0
 10
216.535000
 20
-88.678106
 30
0.0
 10
202.565000
 20
-88.678106
 30
0.0
  0
LWPOLYLINE
  5
143
100
AcDbEntity
  8
0
 62
7
100
AcDbPolyline
 90
4
 70
1
 10
221.615000
 20
-74.708106
 30
0.0
 10
235.585000
 20
-74.708106
 30
0.0
 10
235.585000
 20
-88.678106
 30
0.0
 10
221.615000
 20
-88.678106
 30
0.0
  0
LWPOLYLINE
  5
144
100
AcDbEntity
  8
0
 62
7
100
AcDbPolyline
 90
4
 70
1
 10
240.665000
 20
-74.708106
 30
0.0
 10
254.635000
 20
-74.708106
 30
0.0
 10
254.635000
 20
-88.678106
 30
0.0
 10
240.665000
 20
-88.678106
 30
0.0
  0
LWPOLYLINE
  5
145
100
AcDbEntity
  8
0
 62
7
100
AcDbPolyline
 90
4
 70
1
 10
259.715000
 20
-74.708106
 30
0.0
 10
273.685000
 20
-74.708106
 30
0.0
 10
273.685000
 20
-88.678106
 30
0.0
 10
259.715000
 20
-88.678106
 30
0.0
  0
LWPOLYLINE
  5
146
100
AcDbEntity
  8
0
 62
7
100
AcDbPolyline
 90
4
 70
1
 10
278.765000
 20
-74.708106
 30
0.0
 10
292.735000
 20
-74.708106
 30
0.0
 10
292.735000
 20
-88.678106
 30
0.0
 10
278.765000
 20
-88.678106
 30
0.0
  0
LWPOLYLINE
  5
147
100
AcDbEntity
  8
0
 62
7
100
AcDbPolyline
 90
4
 70
1
 10
297.815000
 20
-74.708106
 30
0.0
 10
311.785000
 20
-74.708106
 30
0.0
 10
311.785000
 20
-88.678106
 30
0.0
 10
297.815000
 20
-88.678106
 30
0.0
  0
LWPOLYLINE
  5
148
100
AcDbEntity
  8
0
 62
7
100
AcDbPolyline
 90
4
 70
1
 10
31.115000
 20
-93.758106
 30
0.0
 10
45.085000
 20
-93.758106
 30
0.0
 10
45.085000
 20
-107.728106
 30
0.0
 10
31.115000
 20
-107.728106
 30
0.0
  0
LWPOLYLINE
  5
149
100
AcDbEntity
  8
0
 62
7
100
AcDbPolyline
 90
4
 70
1
 10
50.165000
 20
-93.758106
 30
0.0
 10
64.135000
 20
-93.758106
 30
0.0
 10
64.135000
 20
-107.728106
 30
0.0
 10
50.165000
 20
-107.728106
 30
0.0
  0
LWPOLYLINE
  5
14a
100
AcDbEntity
  8
0
 62
7
100
AcDbPolyline
 90
4
 70
1
 10
69.215000
 20
-93.758106
 30
0.0
 10
83.185000
 20
-93.758106
 30
0.0
 10
83.185000
 20
-107.728106
 30
0.0
 10
69.215000
 20
-107.728106
 30
0.0
  0
LWPOLYLINE
  5
14b
100
AcDbEntity
  8
0
 62
7
100
AcDbPolyline
 90
4
 70
1
 10
88.265000
 20
-93.758106
 30
0.0
 10
102.235000
 20
-93.758106
 30
0.0
 10
102.235000
 20
-107.728106
 30
0.0
 10
88.265000
 20
-107.728106
 30
0.0
  0
LWPOLYLINE
  5
14c
100
AcDbEntity
  8
0
 62
7
100
AcDbPolyline
 90
4
 70
1
 10
107.315000
 20
-93.758106
 30
0.0
 10
121.285000
 20
-93.758106
 30
0.0
 10
121.285000
 20
-107.728106
 30
0.0
 10
107.315000
 20
-107.728106
 30
0.0
  0
LWPOLYLINE
  5
14d
100
AcDbEntity
  8
0
 62
7
100
AcDbPolyline
 90
4
 70
1
 10
126.365000
 20
-93.758106
 30
0.0
 10
140.335000
 20
-93.758106
 30
0.0
 10
140.335000
 20
-107.728106
 30
0.0
 10
126.365000
 20
-107.728106
 30
0.0
  0
LWPOLYLINE
  5
14e
100
AcDbEntity
  8
0
 62
7
100
AcDbPolyline
 90
4
 70
1
 10
145.415000
 20
-93.758106
 30
0.0
 10
159.385000
 20
-93.758106
 30
0.0
 10
159.385000
 20
-107.728106
 30
0.0
 10
145.415000
 20
-107.728106
 30
0.0
  0
LWPOLYLINE
  5
14f
100
AcDbEntity
  8
0
 62
7
100
AcDbPolyline
 90
4
 70
1
 10
164.465000
 20
-93.758106
 30
0.0
 10
178.435000
 20
-93.758106
 30
0.0
 10
178.435000
 20
-107.728106
 30
0.0
 10
164.465000
 20
-107.728106
 30
0.0
  0
LWPOLYLINE
  5
150
100
AcDbEntity
  8
0
 62
7
100
AcDbPolyline
 90
4
 70
1
 10
183.515000
 20
-93.758106
 30
0.0
 10
197.485000
 20
-93.758106
 30
0.0
 10
197.485000
 20
-107.728106
 30
0.0
 10
183.515000
 20
-107.728106
 30
0.0
  0
LWPOLYLINE
  5
151
100
AcDbEntity
  8
0
 62
7
100
AcDbPolyline
 90
4
 70
1
 10
202.565000
 20
-93.758106
 30
0.0
 10
216.535000
 20
-93.758106
 30
0.0
 10
216.535000
 20
-107.728106
 30
0.0
 10
202.565000
 20
-107.728106
 30
0.0
  0
LWPOLYLINE
  5
152
100
AcDbEntity
  8
0
 62
7
100
AcDbPolyline
 90
4
 70
1
 10
221.615000
 20
-93.758106
 30
0.0
 10
235.585000
 20
-93.758106
 30
0.0
 10
235.585000
 20
-107.728106
 30
0.0
 10
221.615000
 20
-107.728106
 30
0.0
  0
LWPOLYLINE
  5
153
100
AcDbEntity
  8
0
 62
7
100
AcDbPolyline
 90
4
 70
1
 10
240.665000
 20
-93.758106
 30
0.0
 10
254.635000
 20
-93.758106
 30
0.0
 10
254.635000
 20
-107.728106
 30
0.0
 10
240.665000
 20
-107.728106
 30
0.0
  0
LWPOLYLINE
  5
154
100
AcDbEntity
  8
0
 62
7
100
AcDbPolyline
 90
4
 70
1
 10
259.715000
 20
-93.758106
 30
0.0
 10
273.685000
 20
-93.758106
 30
0.0
 10
273.685000
 20
-107.728106
 30
0.0
 10
259.715000
 20
-107.728106
 30
0.0
  0
LWPOLYLINE
  5
155
100
AcDbEntity
  8
0
 62
7
100
AcDbPolyline
 90
4
 70
1
 10
278.765000
 20
-93.758106
 30
0.0
 10
292.735000
 20
-93.758106
 30
0.0
 10
292.735000
 20
-107.728106
 30
0.0
 10
278.765000
 20
-107.728106
 30
0.0
  0
LWPOLYLINE
  5
156
100
AcDbEntity
  8
0
 62
7
100
AcDbPolyline
 90
4
 70
1
 10
297.815000
 20
-93.758106
 30
0.0
 10
311.785000
 20
-93.758106
 30
0.0
 10
311.785000
 20
-107.728106
 30
0.0
 10
297.815000
 20
-107.728106
 30
0.0
  0
LWPOLYLINE
  5
157
100
AcDbEntity
  8
0
 62
7
100
AcDbPolyline
 90
4
 70
1
 10
31.115000
 20
-112.808106
 30
0.0
 10
45.085000
 20
-112.808106
 30
0.0
 10
45.085000
 20
-126.778106
 30
0.0
 10
31.115000
 20
-126.778106
 30
0.0
  0
LWPOLYLINE
  5
158
100
AcDbEntity
  8
0
 62
7
100
AcDbPolyline
 90
4
 70
1
 10
50.165000
 20
-112.808106
 30
0.0
 10
64.135000
 20
-112.808106
 30
0.0
 10
64.135000
 20
-126.778106
 30
0.0
 10
50.165000
 20
-126.778106
 30
0.0
  0
LWPOLYLINE
  5
159
100
AcDbEntity
  8
0
 62
7
100
AcDbPolyline
 90
4
 70
1
 10
69.215000
 20
-112.808106
 30
0.0
 10
83.185000
 20
-112.808106
 30
0.0
 10
83.185000
 20
-126.778106
 30
0.0
 10
69.215000
 20
-126.778106
 30
0.0
  0
LWPOLYLINE
  5
15a
100
AcDbEntity
  8
0
 62
7
100
AcDbPolyline
 90
4
 70
1
 10
88.265000
 20
-112.808106
 30
0.0
 10
102.235000
 20
-112.808106
 30
0.0
 10
102.235000
 20
-126.778106
 30
0.0
 10
88.265000
 20
-126.778106
 30
0.0
  0
LWPOLYLINE
  5
15b
100
AcDbEntity
  8
0
 62
7
100
AcDbPolyline
 90
4
 70
1
 10
107.315000
 20
-112.808106
 30
0.0
 10
121.285000
 20
-112.808106
 30
0.0
 10
121.285000
 20
-126.778106
 30
0.0
 10
107.315000
 20
-126.778106
 30
0.0
  0
LWPOLYLINE
  5
15c
100
AcDbEntity
  8
0
 62
7
100
AcDbPolyline
 90
4
 70
1
 10
126.365000
 20
-112.808106
 30
0.0
 10
140.335000
 20
-112.808106
 30
0.0
 10
140.335000
 20
-126.778106
 30
0.0
 10
126.365000
 20
-126.778106
 30
0.0
  0
LWPOLYLINE
  5
15d
100
AcDbEntity
  8
0
 62
7
100
AcDbPolyline
 90
4
 70
1
 10
145.415000
 20
-112.808106
 30
0.0
 10
159.385000
 20
-112.808106
 30
0.0
 10
159.385000
 20
-126.778106
 30
0.0
 10
145.415000
 20
-126.778106
 30
0.0
  0
LWPOLYLINE
  5
15e
100
AcDbEntity
  8
0
 62
7
100
AcDbPolyline
 90
4
 70
1
 10
164.465000
 20
-112.808106
 30
0.0
 10
178.435000
 20
-112.808106
 30
0.0
 10
178.435000
 20
-126.778106
 30
0.0
 10
164.465000
 20
-126.778106
 30
0.0
  0
LWPOLYLINE
  5
15f
100
AcDbEntity
  8
0
 62
7
100
AcDbPolyline
 90
4
 70
1
 10
183.515000
 20
-112.808106
 30
0.0
 10
197.485000
 20
-112.808106
 30
0.0
 10
197.485000
 20
-126.778106
 30
0.0
 10
183.515000
 20
-126.778106
 30
0.0
  0
LWPOLYLINE
  5
160
100
AcDbEntity
  8
0
 62
7
100
AcDbPolyline
 90
4
 70
1
 10
202.565000
 20
-112.808106
 30
0.0
 10
216.535000
 20
-112.808106
 30
0.0
 10
216.535000
 20
-126.778106
 30
0.0
 10
202.565000
 20
-126.778106
 30
0.0
  0
LWPOLYLINE
  5
161
100
AcDbEntity
  8
0
 62
7
100
AcDbPolyline
 90
4
 70
1
 10
221.615000
 20
-112.808106
 30
0.0
 10
235.585000
 20
-112.808106
 30
0.0
 10
235.585000
 20
-126.778106
 30
0.0
 10
221.615000
 20
-126.778106
 30
0.0
  0
LWPOLYLINE
  5
162
100
AcDbEntity
  8
0
 62
7
100
AcDbPolyline
 90
4
 70
1
 10
240.665000
 20
-112.808106
 30
0.0
 10
254.635000
 20
-112.808106
 30
0.0
 10
254.635000
 20
-126.778106
 30
0.0
 10
240.665000
 20
-126.778106
 30
0.0
  0
LWPOLYLINE
  5
163
100
AcDbEntity
  8
0
 62
7
100
AcDbPolyline
 90
4
 70
1
 10
259.715000
 20
-112.808106
 30
0.0
 10
273.685000
 20
-112.808106
 30
0.0
 10
273.685000
 20
-126.778106
 30
0.0
 10
259.715000
 20
-126.778106
 30
0.0
  0
LWPOLYLINE
  5
164
100
AcDbEntity
  8
0
 62
7
100
AcDbPolyline
 90
4
 70
1
 10
278.765000
 20
-112.808106
 30
0.0
 10
292.735000
 20
-112.808106
 30
0.0
 10
292.735000
 20
-126.778106
 30
0.0
 10
278.765000
 20
-126.778106
 30
0.0
  0
LWPOLYLINE
  5
165
100
AcDbEntity
  8
0
 62
7
100
AcDbPolyline
 90
4
 70
1
 10
297.815000
 20
-112.808106
 30
0.0
 10
311.785000
 20
-112.808106
 30
0.0
 10
311.785000
 20
-126.778106
 30
0.0
 10
297.815000
 20
-126.778106
 30
0.0
  0
LWPOLYLINE
  5
166
100
AcDbEntity
  8
0
 62
7
100
AcDbPolyline
 90
4
 70
1
 10
31.115000
 20
-131.858106
 30
0.0
 10
45.085000
 20
-131.858106
 30
0.0
 10
45.085000
 20
-145.828106
 30
0.0
 10
31.115000
 20
-145.828106
 30
0.0
  0
LWPOLYLINE
  5
167
100
AcDbEntity
  8
0
 62
7
100
AcDbPolyline
 90
4
 70
1
 10
50.165000
 20
-131.858106
 30
0.0
 10
64.135000
 20
-131.858106
 30
0.0
 10
64.135000
 20
-145.828106
 30
0.0
 10
50.165000
 20
-145.828106
 30
0.0
  0
LWPOLYLINE
  5
168
100
AcDbEntity
  8
0
 62
7
100
AcDbPolyline
 90
4
 70
1
 10
69.215000
 20
-131.858106
 30
0.0
 10
83.185000
 20
-131.858106
 30
0.0
 10
83.185000
 20
-145.828106
 30
0.0
 10
69.215000
 20
-145.828106
 30
0.0
  0
LWPOLYLINE
  5
169
100
AcDbEntity
  8
0
 62
7
100
AcDbPolyline
 90
4
 70
1
 10
88.265000
 20
-131.858106
 30
0.0
 10
102.235000
 20
-131.858106
 30
0.0
 10
102.235000
 20
-145.828106
 30
0.0
 10
88.265000
 20
-145.828106
 30
0.0
  0
LWPOLYLINE
  5
16a
100
AcDbEntity
  8
0
 62
7
100
AcDbPolyline
 90
4
 70
1
 10
107.315000
 20
-131.858106
 30
0.0
 10
121.285000
 20
-131.858106
 30
0.0
 10
121.285000
 20
-145.828106
 30
0.0
 10
107.315000
 20
-145.828106
 30
0.0
  0
LWPOLYLINE
  5
16b
100
AcDbEntity
  8
0
 62
7
100
AcDbPolyline
 90
4
 70
1
 10
126.365000
 20
-131.858106
 30
0.0
 10
140.335000
 20
-131.858106
 30
0.0
 10
140.335000
 20
-145.828106
 30
0.0
 10
126.365000
 20
-145.828106
 30
0.0
  0
LWPOLYLINE
  5
16c
100
AcDbEntity
  8
0
 62
7
100
AcDbPolyline
 90
4
 70
1
 10
145.415000
 20
-131.858106
 30
0.0
 10
159.385000
 20
-131.858106
 30
0.0
 10
159.385000
 20
-145.828106
 30
0.0
 10
145.415000
 20
-145.828106
 30
0.0
  0
LWPOLYLINE
  5
16d
100
AcDbEntity
  8
0
 62
7
100
AcDbPolyline
 90
4
 70
1
 10
164.465000
 20
-131.858106
 30
0.0
 10
178.435000
 20
-131.858106
 30
0.0
 10
178.435000
 20
-145.828106
 30
0.0
 10
164.465000
 20
-145.828106
 30
0.0
  0
LWPOLYLINE
  5
16e
100
AcDbEntity
  8
0
 62
7
100
AcDbPolyline
 90
4
 70
1
 10
183.515000
 20
-131.858106
 30
0.0
 10
197.485000
 20
-131.858106
 30
0.0
 10
197.485000
 20
-145.828106
 30
0.0
 10
183.515000
 20
-145.828106
 30
0.0
  0
LWPOLYLINE
  5
16f
100
AcDbEntity
  8
0
 62
7
100
AcDbPolyline
 90
4
 70
1
 10
202.565000
 20
-131.858106
 30
0.0
 10
216.535000
 20
-131.858106
 30
0.0
 10
216.535000
 20
-145.828106
 30
0.0
 10
202.565000
 20
-145.828106
 30
0.0
  0
LWPOLYLINE
  5
170
100
AcDbEntity
  8
0
 62
7
100
AcDbPolyline
 90
4
 70
1
 10
221.615000
 20
-131.858106
 30
0.0
 10
235.585000
 20
-131.858106
 30
0.0
 10
235.585000
 20
-145.828106
 30
0.0
 10
221.615000
 20
-145.828106
 30
0.0
  0
LWPOLYLINE
  5
171
100
AcDbEntity
  8
0
 62
7
100
AcDbPolyline
 90
4
 70
1
 10
240.665000
 20
-131.858106
 30
0.0
 10
254.635000
 20
-131.858106
 30
0.0
 10
254.635000
 20
-145.828106
 30
0.0
 10
240.665000
 20
-145.828106
 30
0.0
  0
LWPOLYLINE
  5
172
100
AcDbEntity
  8
0
 62
7
100
AcDbPolyline
 90
4
 70
1
 10
259.715000
 20
-131.858106
 30
0.0
 10
273.685000
 20
-131.858106
 30
0.0
 10
273.685000
 20
-145.828106
 30
0.0
 10
259.715000
 20
-145.828106
 30
0.0
  0
LWPOLYLINE
  5
173
100
AcDbEntity
  8
0
 62
7
100
AcDbPolyline
 90
4
 70
1
 10
278.765000
 20
-131.858106
 30
0.0
 10
292.735000
 20
-131.858106
 30
0.0
 10
292.735000
 20
-145.828106
 30
0.0
 10
278.765000
 20
-145.828106
 30
0.0
  0
LWPOLYLINE
  5
174
100
AcDbEntity
  8
0
 62
7
100
AcDbPolyline
 90
4
 70
1
 10
297.815000
 20
-131.858106
 30
0.0
 10
311.785000
 20
-131.858106
 30
0.0
 10
311.785000
 20
-145.828106
 30
0.0
 10
297.815000
 20
-145.828106
 30
0.0
  0
LWPOLYLINE
  5
175
100
AcDbEntity
  8
0
 62
7
100
AcDbPolyline
 90
4
 70
1
 10
31.115000
 20
-150.908106
 30
0.0
 10
45.085000
 20
-150.908106
 30
0.0
 10
45.085000
 20
-164.878106
 30
0.0
 10
31.115000
 20
-164.878106
 30
0.0
  0
LWPOLYLINE
  5
176
100
AcDbEntity
  8
0
 62
7
100
AcDbPolyline
 90
4
 70
1
 10
50.165000
 20
-150.908106
 30
0.0
 10
64.135000
 20
-150.908106
 30
0.0
 10
64.135000
 20
-164.878106
 30
0.0
 10
50.165000
 20
-164.878106
 30
0.0
  0
LWPOLYLINE
  5
177
100
AcDbEntity
  8
0
 62
7
100
AcDbPolyline
 90
4
 70
1
 10
69.215000
 20
-150.908106
 30
0.0
 10
83.185000
 20
-150.908106
 30
0.0
 10
83.185000
 20
-164.878106
 30
0.0
 10
69.215000
 20
-164.878106
 30
0.0
  0
LWPOLYLINE
  5
178
100
AcDbEntity
  8
0
 62
7
100
AcDbPolyline
 90
4
 70
1
 10
88.265000
 20
-150.908106
 30
0.0
 10
102.235000
 20
-150.908106
 30
0.0
 10
102.235000
 20
-164.878106
 30
0.0
 10
88.265000
 20
-164.878106
 30
0.0
  0
LWPOLYLINE
  5
179
100
AcDbEntity
  8
0
 62
7
100
AcDbPolyline
 90
4
 70
1
 10
107.315000
 20
-150.908106
 30
0.0
 10
121.285000
 20
-150.908106
 30
0.0
 10
121.285000
 20
-164.878106
 30
0.0
 10
107.315000
 20
-164.878106
 30
0.0
  0
LWPOLYLINE
  5
17a
100
AcDbEntity
  8
0
 62
7
100
AcDbPolyline
 90
4
 70
1
 10
126.365000
 20
-150.908106
 30
0.0
 10
140.335000
 20
-150.908106
 30
0.0
 10
140.335000
 20
-164.878106
 30
0.0
 10
126.365000
 20
-164.878106
 30
0.0
  0
LWPOLYLINE
  5
17b
100
AcDbEntity
  8
0
 62
7
100
AcDbPolyline
 90
4
 70
1
 10
145.415000
 20
-150.908106
 30
0.0
 10
159.385000
 20
-150.908106
 30
0.0
 10
159.385000
 20
-164.878106
 30
0.0
 10
145.415000
 20
-164.878106
 30
0.0
  0
LWPOLYLINE
  5
17c
100
AcDbEntity
  8
0
 62
7
100
AcDbPolyline
 90
4
 70
1
 10
164.465000
 20
-150.908106
 30
0.0
 10
178.435000
 20
-150.908106
 30
0.0
 10
178.435000
 20
-164.878106
 30
0.0
 10
164.465000
 20
-164.878106
 30
0.0
  0
LWPOLYLINE
  5
17d
100
AcDbEntity
  8
0
 62
7
100
AcDbPolyline
 90
4
 70
1
 10
183.515000
 20
-150.908106
 30
0.0
 10
197.485000
 20
-150.908106
 30
0.0
 10
197.485000
 20
-164.878106
 30
0.0
 10
183.515000
 20
-164.878106
 30
0.0
  0
LWPOLYLINE
  5
17e
100
AcDbEntity
  8
0
 62
7
100
AcDbPolyline
 90
4
 70
1
 10
202.565000
 20
-150.908106
 30
0.0
 10
216.535000
 20
-150.908106
 30
0.0
 10
216.535000
 20
-164.878106
 30
0.0
 10
202.565000
 20
-164.878106
 30
0.0
  0
LWPOLYLINE
  5
17f
100
AcDbEntity
  8
0
 62
7
100
AcDbPolyline
 90
4
 70
1
 10
221.615000
 20
-150.908106
 30
0.0
 10
235.585000
 20
-150.908106
 30
0.0
 10
235.585000
 20
-164.878106
 30
0.0
 10
221.615000
 20
-164.878106
 30
0.0
  0
LWPOLYLINE
  5
180
100
AcDbEntity
  8
0
 62
7
100
AcDbPolyline
 90
4
 70
1
 10
240.665000
 20
-150.908106
 30
0.0
 10
254.635000
 20
-150.908106
 30
0.0
 10
254.635000
 20
-164.878106
 30
0.0
 10
240.665000
 20
-164.878106
 30
0.0
  0
LWPOLYLINE
  5
181
100
AcDbEntity
  8
0
 62
7
100
AcDbPolyline
 90
4
 70
1
 10
259.715000
 20
-150.908106
 30
0.0
 10
273.685000
 20
-150.908106
 30
0.0
 10
273.685000
 20
-164.878106
 30
0.0
 10
259.715000
 20
-164.878106
 30
0.0
  0
LWPOLYLINE
  5
182
100
AcDbEntity
  8
0
 62
7
100
AcDbPolyline
 90
4
 70
1
 10
278.765000
 20
-150.908106
 30
0.0
 10
292.735000
 20
-150.908106
 30
0.0
 10
292.735000
 20
-164.878106
 30
0.0
 10
278.765000
 20
-164.878106
 30
0.0
  0
LWPOLYLINE
  5
183
100
AcDbEntity
  8
0
 62
7
100
AcDbPolyline
 90
4
 70
1
 10
297.815000
 20
-150.908106
 30
0.0
 10
311.785000
 20
-150.908106
 30
0.0
 10
311.785000
 20
-164.878106
 30
0.0
 10
297.815000
 20
-164.878106
 30
0.0
  0
LWPOLYLINE
  5
184
100
AcDbEntity
  8
0
 62
7
100
AcDbPolyline
 90
4
 70
1
 10
31.115000
 20
-169.958106
 30
0.0
 10
45.085000
 20
-169.958106
 30
0.0
 10
45.085000
 20
-183.928106
 30
0.0
 10
31.115000
 20
-183.928106
 30
0.0
  0
LWPOLYLINE
  5
185
100
AcDbEntity
  8
0
 62
7
100
AcDbPolyline
 90
4
 70
1
 10
50.165000
 20
-169.958106
 30
0.0
 10
64.135000
 20
-169.958106
 30
0.0
 10
64.135000
 20
-183.928106
 30
0.0
 10
50.165000
 20
-183.928106
 30
0.0
  0
LWPOLYLINE
  5
186
100
AcDbEntity
  8
0
 62
7
100
AcDbPolyline
 90
4
 70
1
 10
69.215000
 20
-169.958106
 30
0.0
 10
83.185000
 20
-169.958106
 30
0.0
 10
83.185000
 20
-183.928106
 30
0.0
 10
69.215000
 20
-183.928106
 30
0.0
  0
LWPOLYLINE
  5
187
100
AcDbEntity
  8
0
 62
7
100
AcDbPolyline
 90
4
 70
1
 10
88.265000
 20
-169.958106
 30
0.0
 10
102.235000
 20
-169.958106
 30
0.0
 10
102.235000
 20
-183.928106
 30
0.0
 10
88.265000
 20
-183.928106
 30
0.0
  0
LWPOLYLINE
  5
188
100
AcDbEntity
  8
0
 62
7
100
AcDbPolyline
 90
4
 70
1
 10
107.315000
 20
-169.958106
 30
0.0
 10
121.285000
 20
-169.958106
 30
0.0
 10
121.285000
 20
-183.928106
 30
0.0
 10
107.315000
 20
-183.928106
 30
0.0
  0
LWPOLYLINE
  5
189
100
AcDbEntity
  8
0
 62
7
100
AcDbPolyline
 90
4
 70
1
 10
126.365000
 20
-169.958106
 30
0.0
 10
140.335000
 20
-169.958106
 30
0.0
 10
140.335000
 20
-183.928106
 30
0.0
 10
126.365000
 20
-183.928106
 30
0.0
  0
LWPOLYLINE
  5
18a
100
AcDbEntity
  8
0
 62
7
100
AcDbPolyline
 90
4
 70
1
 10
145.415000
 20
-169.958106
 30
0.0
 10
159.385000
 20
-169.958106
 30
0.0
 10
159.385000
 20
-183.928106
 30
0.0
 10
145.415000
 20
-183.928106
 30
0.0
  0
LWPOLYLINE
  5
18b
100
AcDbEntity
  8
0
 62
7
100
AcDbPolyline
 90
4
 70
1
 10
164.465000
 20
-169.958106
 30
0.0
 10
178.435000
 20
-169.958106
 30
0.0
 10
178.435000
 20
-183.928106
 30
0.0
 10
164.465000
 20
-183.928106
 30
0.0
  0
LWPOLYLINE
  5
18c
100
AcDbEntity
  8
0
 62
7
100
AcDbPolyline
 90
4
 70
1
 10
183.515000
 20
-169.958106
 30
0.0
 10
197.485000
 20
-169.958106
 30
0.0
 10
197.485000
 20
-183.928106
 30
0.0
 10
183.515000
 20
-183.928106
 30
0.0
  0
LWPOLYLINE
  5
18d
100
AcDbEntity
  8
0
 62
7
100
AcDbPolyline
 90
4
 70
1
 10
202.565000
 20
-169.958106
 30
0.0
 10
216.535000
 20
-169.958106
 30
0.0
 10
216.535000
 20
-183.928106
 30
0.0
 10
202.565000
 20
-183.928106
 30
0.0
  0
LWPOLYLINE
  5
18e
100
AcDbEntity
  8
0
 62
7
100
AcDbPolyline
 90
4
 70
1
 10
221.615000
 20
-169.958106
 30
0.0
 10
235.585000
 20
-169.958106
 30
0.0
 10
235.585000
 20
-183.928106
 30
0.0
 10
221.615000
 20
-183.928106
 30
0.0
  0
LWPOLYLINE
  5
18f
100
AcDbEntity
  8
0
 62
7
100
AcDbPolyline
 90
4
 70
1
 10
240.665000
 20
-169.958106
 30
0.0
 10
254.635000
 20
-169.958106
 30
0.0
 10
254.635000
 20
-183.928106
 30
0.0
 10
240.665000
 20
-183.928106
 30
0.0
  0
LWPOLYLINE
  5
190
100
AcDbEntity
  8
0
 62
7
100
AcDbPolyline
 90
4
 70
1
 10
259.715000
 20
-169.958106
 30
0.0
 10
273.685000
 20
-169.958106
 30
0.0
 10
273.685000
 20
-183.928106
 30
0.0
 10
259.715000
 20
-183.928106
 30
0.0
  0
LWPOLYLINE
  5
191
100
AcDbEntity
  8
0
 62
7
100
AcDbPolyline
 90
4
 70
1
 10
278.765000
 20
-169.958106
 30
0.0
 10
292.735000
 20
-169.958106
 30
0.0
 10
292.735000
 20
-183.928106
 30
0.0
 10
278.765000
 20
-183.928106
 30
0.0
  0
LWPOLYLINE
  5
192
100
AcDbEntity
  8
0
 62
7
100
AcDbPolyline
 90
4
 70
1
 10
297.815000
 20
-169.958106
 30
0.0
 10
311.785000
 20
-169.958106
 30
0.0
 10
311.785000
 20
-183.928106
 30
0.0
 10
297.815000
 20
-183.928106
 30
0.0
  0
LWPOLYLINE
  5
193
100
AcDbEntity
  8
0
 62
7
100
AcDbPolyline
 90
4
 70
1
 10
31.115000
 20
-189.008106
 30
0.0
 10
45.085000
 20
-189.008106
 30
0.0
 10
45.085000
 20
-202.978106
 30
0.0
 10
31.115000
 20
-202.978106
 30
0.0
  0
LWPOLYLINE
  5
194
100
AcDbEntity
  8
0
 62
7
100
AcDbPolyline
 90
4
 70
1
 10
50.165000
 20
-189.008106
 30
0.0
 10
64.135000
 20
-189.008106
 30
0.0
 10
64.135000
 20
-202.978106
 30
0.0
 10
50.165000
 20
-202.978106
 30
0.0
  0
LWPOLYLINE
  5
195
100
AcDbEntity
  8
0
 62
7
100
AcDbPolyline
 90
4
 70
1
 10
69.215000
 20
-189.008106
 30
0.0
 10
83.185000
 20
-189.008106
 30
0.0
 10
83.185000
 20
-202.978106
 30
0.0
 10
69.215000
 20
-202.978106
 30
0.0
  0
LWPOLYLINE
  5
196
100
AcDbEntity
  8
0
 62
7
100
AcDbPolyline
 90
4
 70
1
 10
88.265000
 20
-189.008106
 30
0.0
 10
102.235000
 20
-189.008106
 30
0.0
 10
102.235000
 20
-202.978106
 30
0.0
 10
88.265000
 20
-202.978106
 30
0.0
  0
LWPOLYLINE
  5
197
100
AcDbEntity
  8
0
 62
7
100
AcDbPolyline
 90
4
 70
1
 10
107.315000
 20
-189.008106
 30
0.0
 10
121.285000
 20
-189.008106
 30
0.0
 10
121.285000
 20
-202.978106
 30
0.0
 10
107.315000
 20
-202.978106
 30
0.0
  0
LWPOLYLINE
  5
198
100
AcDbEntity
  8
0
 62
7
100
AcDbPolyline
 90
4
 70
1
 10
126.365000
 20
-189.008106
 30
0.0
 10
140.335000
 20
-189.008106
 30
0.0
 10
140.335000
 20
-202.978106
 30
0.0
 10
126.365000
 20
-202.978106
 30
0.0
  0
LWPOLYLINE
  5
199
100
AcDbEntity
  8
0
 62
7
100
AcDbPolyline
 90
4
 70
1
 10
145.415000
 20
-189.008106
 30
0.0
 10
159.385000
 20
-189.008106
 30
0.0
 10
159.385000
 20
-202.978106
 30
0.0
 10
145.415000
 20
-202.978106
 30
0.0
  0
LWPOLYLINE
  5
19a
100
AcDbEntity
  8
0
 62
7
100
AcDbPolyline
 90
4
 70
1
 10
164.465000
 20
-189.008106
 30
0.0
 10
178.435000
 20
-189.008106
 30
0.0
 10
178.435000
 20
-202.978106
 30
0.0
 10
164.465000
 20
-202.978106
 30
0.0
  0
LWPOLYLINE
  5
19b
100
AcDbEntity
  8
0
 62
7
100
AcDbPolyline
 90
4
 70
1
 10
183.515000
 20
-189.008106
 30
0.0
 10
197.485000
 20
-189.008106
 30
0.0
 10
197.485000
 20
-202.978106
 30
0.0
 10
183.515000
 20
-202.978106
 30
0.0
  0
LWPOLYLINE
  5
19c
100
AcDbEntity
  8
0
 62
7
100
AcDbPolyline
 90
4
 70
1
 10
202.565000
 20
-189.008106
 30
0.0
 10
216.535000
 20
-189.008106
 30
0.0
 10
216.535000
 20
-202.978106
 30
0.0
 10
202.565000
 20
-202.978106
 30
0.0
  0
LWPOLYLINE
  5
19d
100
AcDbEntity
  8
0
 62
7
100
AcDbPolyline
 90
4
 70
1
 10
221.615000
 20
-189.008106
 30
0.0
 10
235.585000
 20
-189.008106
 30
0.0
 10
235.585000
 20
-202.978106
 30
0.0
 10
221.615000
 20
-202.978106
 30
0.0
  0
LWPOLYLINE
  5
19e
100
AcDbEntity
  8
0
 62
7
100
AcDbPolyline
 90
4
 70
1
 10
240.665000
 20
-189.008106
 30
0.0
 10
254.635000
 20
-189.008106
 30
0.0
 10
254.635000
 20
-202.978106
 30
0.0
 10
240.665000
 20
-202.978106
 30
0.0
  0
LWPOLYLINE
  5
19f
100
AcDbEntity
  8
0
 62
7
100
AcDbPolyline
 90
4
 70
1
 10
259.715000
 20
-189.008106
 30
0.0
 10
273.685000
 20
-189.008106
 30
0.0
 10
273.685000
 20
-202.978106
 30
0.0
 10
259.715000
 20
-202.978106
 30
0.0
  0
LWPOLYLINE
  5
1a0
100
AcDbEntity
  8
0
 62
7
100
AcDbPolyline
 90
4
 70
1
 10
278.765000
 20
-189.008106
 30
0.0
 10
292.735000
 20
-189.008106
 30
0.0
 10
292.735000
 20
-202.978106
 30
0.0
 10
278.765000
 20
-202.978106
 30
0.0
  0
LWPOLYLINE
  5
1a1
100
AcDbEntity
  8
0
 62
7
100
AcDbPolyline
 90
4
 70
1
 10
297.815000
 20
-189.008106
 30
0.0
 10
311.785000
 20
-189.008106
 30
0.0
 10
311.785000
 20
-202.978106
 30
0.0
 10
297.815000
 20
-202.978106
 30
0.0
  0
LWPOLYLINE
  5
1a2
100
AcDbEntity
  8
0
 62
7
100
AcDbPolyline
 90
4
 70
1
 10
31.115000
 20
-208.058106
 30
0.0
 10
45.085000
 20
-208.058106
 30
0.0
 10
45.085000
 20
-222.028106
 30
0.0
 10
31.115000
 20
-222.028106
 30
0.0
  0
LWPOLYLINE
  5
1a3
100
AcDbEntity
  8
0
 62
7
100
AcDbPolyline
 90
4
 70
1
 10
50.165000
 20
-208.058106
 30
0.0
 10
64.135000
 20
-208.058106
 30
0.0
 10
64.135000
 20
-222.028106
 30
0.0
 10
50.165000
 20
-222.028106
 30
0.0
  0
LWPOLYLINE
  5
1a4
100
AcDbEntity
  8
0
 62
7
100
AcDbPolyline
 90
4
 70
1
 10
69.215000
 20
-208.058106
 30
0.0
 10
83.185000
 20
-208.058106
 30
0.0
 10
83.185000
 20
-222.028106
 30
0.0
 10
69.215000
 20
-222.028106
 30
0.0
  0
LWPOLYLINE
  5
1a5
100
AcDbEntity
  8
0
 62
7
100
AcDbPolyline
 90
4
 70
1
 10
88.265000
 20
-208.058106
 30
0.0
 10
102.235000
 20
-208.058106
 30
0.0
 10
102.235000
 20
-222.028106
 30
0.0
 10
88.265000
 20
-222.028106
 30
0.0
  0
LWPOLYLINE
  5
1a6
100
AcDbEntity
  8
0
 62
7
100
AcDbPolyline
 90
4
 70
1
 10
107.315000
 20
-208.058106
 30
0.0
 10
121.285000
 20
-208.058106
 30
0.0
 10
121.285000
 20
-222.028106
 30
0.0
 10
107.315000
 20
-222.028106
 30
0.0
  0
LWPOLYLINE
  5
1a7
100
AcDbEntity
  8
0
 62
7
100
AcDbPolyline
 90
4
 70
1
 10
126.365000
 20
-208.058106
 30
0.0
 10
140.335000
 20
-208.058106
 30
0.0
 10
140.335000
 20
-222.028106
 30
0.0
 10
126.365000
 20
-222.028106
 30
0.0
  0
LWPOLYLINE
  5
1a8
100
AcDbEntity
  8
0
 62
7
100
AcDbPolyline
 90
4
 70
1
 10
145.415000
 20
-208.058106
 30
0.0
 10
159.385000
 20
-208.058106
 30
0.0
 10
159.385000
 20
-222.028106
 30
0.0
 10
145.415000
 20
-222.028106
 30
0.0
  0
LWPOLYLINE
  5
1a9
100
AcDbEntity
  8
0
 62
7
100
AcDbPolyline
 90
4
 70
1
 10
164.465000
 20
-208.058106
 30
0.0
 10
178.435000
 20
-208.058106
 30
0.0
 10
178.435000
 20
-222.028106
 30
0.0
 10
164.465000
 20
-222.028106
 30
0.0
  0
LWPOLYLINE
  5
1aa
100
AcDbEntity
  8
0
 62
7
100
AcDbPolyline
 90
4
 70
1
 10
183.515000
 20
-208.058106
 30
0.0
 10
197.485000
 20
-208.058106
 30
0.0
 10
197.485000
 20
-222.028106
 30
0.0
 10
183.515000
 20
-222.028106
 30
0.0
  0
LWPOLYLINE
  5
1ab
100
AcDbEntity
  8
0
 62
7
100
AcDbPolyline
 90
4
 70
1
 10
202.565000
 20
-208.058106
 30
0.0
 10
216.535000
 20
-208.058106
 30
0.0
 10
216.535000
 20
-222.028106
 30
0.0
 10
202.565000
 20
-222.028106
 30
0.0
  0
LWPOLYLINE
  5
1ac
100
AcDbEntity
  8
0
 62
7
100
AcDbPolyline
 90
4
 70
1
 10
221.615000
 20
-208.058106
 30
0.0
 10
235.585000
 20
-208.058106
 30
0.0
 10
235.585000
 20
-222.028106
 30
0.0
 10
221.615000
 20
-222.028106
 30
0.0
  0
LWPOLYLINE
  5
1ad
100
AcDbEntity
  8
0
 62
7
100
AcDbPolyline
 90
4
 70
1
 10
240.665000
 20
-208.058106
 30
0.0
 10
254.635000
 20
-208.058106
 30
0.0
 10
254.635000
 20
-222.028106
 30
0.0
 10
240.665000
 20
-222.028106
 30
0.0
  0
LWPOLYLINE
  5
1ae
100
AcDbEntity
  8
0
 62
7
100
AcDbPolyline
 90
4
 70
1
 10
259.715000
 20
-208.058106
 30
0.0
 10
273.685000
 20
-208.058106
 30
0.0
 10
273.685000
 20
-222.028106
 30
0.0
 10
259.715000
 20
-222.028106
 30
0.0
  0
LWPOLYLINE
  5
1af
100
AcDbEntity
  8
0
 62
7
100
AcDbPolyline
 90
4
 70
1
 10
278.765000
 20
-208.058106
 30
0.0
 10
292.735000
 20
-208.058106
 30
0.0
 10
292.735000
 20
-222.028106
 30
0.0
 10
278.765000
 20
-222.028106
 30
0.0
  0
LWPOLYLINE
  5
1b0
100
AcDbEntity
  8
0
 62
7
100
AcDbPolyline
 90
4
 70
1
 10
297.815000
 20
-208.058106
 30
0.0
 10
311.785000
 20
-208.058106
 30
0.0
 10
311.785000
 20
-222.028106
 30
0.0
 10
297.815000
 20
-222.028106
 30
0.0
  0
LWPOLYLINE
  5
1b1
100
AcDbEntity
  8
0
 62
7
100
AcDbPolyline
 90
4
 70
1
 10
31.115000
 20
-227.108106
 30
0.0
 10
45.085000
 20
-227.108106
 30
0.0
 10
45.085000
 20
-241.078106
 30
0.0
 10
31.115000
 20
-241.078106
 30
0.0
  0
LWPOLYLINE
  5
1b2
100
AcDbEntity
  8
0
 62
7
100
AcDbPolyline
 90
4
 70
1
 10
50.165000
 20
-227.108106
 30
0.0
 10
64.135000
 20
-227.108106
 30
0.0
 10
64.135000
 20
-241.078106
 30
0.0
 10
50.165000
 20
-241.078106
 30
0.0
  0
LWPOLYLINE
  5
1b3
100
AcDbEntity
  8
0
 62
7
100
AcDbPolyline
 90
4
 70
1
 10
69.215000
 20
-227.108106
 30
0.0
 10
83.185000
 20
-227.108106
 30
0.0
 10
83.185000
 20
-241.078106
 30
0.0
 10
69.215000
 20
-241.078106
 30
0.0
  0
LWPOLYLINE
  5
1b4
100
AcDbEntity
  8
0
 62
7
100
AcDbPolyline
 90
4
 70
1
 10
88.265000
 20
-227.108106
 30
0.0
 10
102.235000
 20
-227.108106
 30
0.0
 10
102.235000
 20
-241.078106
 30
0.0
 10
88.265000
 20
-241.078106
 30
0.0
  0
LWPOLYLINE
  5
1b5
100
AcDbEntity
  8
0
 62
7
100
AcDbPolyline
 90
4
 70
1
 10
107.315000
 20
-227.108106
 30
0.0
 10
121.285000
 20
-227.108106
 30
0.0
 10
121.285000
 20
-241.078106
 30
0.0
 10
107.315000
 20
-241.078106
 30
0.0
  0
LWPOLYLINE
  5
1b6
100
AcDbEntity
  8
0
 62
7
100
AcDbPolyline
 90
4
 70
1
 10
126.365000
 20
-227.108106
 30
0.0
 10
140.335000
 20
-227.108106
 30
0.0
 10
140.335000
 20
-241.078106
 30
0.0
 10
126.365000
 20
-241.078106
 30
0.0
  0
LWPOLYLINE
  5
1b7
100
AcDbEntity
  8
0
 62
7
100
AcDbPolyline
 90
4
 70
1
 10
145.415000
 20
-227.108106
 30
0.0
 10
159.385000
 20
-227.108106
 30
0.0
 10
159.385000
 20
-241.078106
 30
0.0
 10
145.415000
 20
-241.078106
 30
0.0
  0
LWPOLYLINE
  5
1b8
100
AcDbEntity
  8
0
 62
7
100
AcDbPolyline
 90
4
 70
1
 10
164.465000
 20
-227.108106
 30
0.0
 10
178.435000
 20
-227.108106
 30
0.0
 10
178.435000
 20
-241.078106
 30
0.0
 10
164.465000
 20
-241.078106
 30
0.0
  0
LWPOLYLINE
  5
1b9
100
AcDbEntity
  8
0
 62
7
100
AcDbPolyline
 90
4
 70
1
 10
183.515000
 20
-227.108106
 30
0.0
 10
197.485000
 20
-227.108106
 30
0.0
 10
197.485000
 20
-241.078106
 30
0.0
 10
183.515000
 20
-241.078106
 30
0.0
  0
LWPOLYLINE
  5
1ba
100
AcDbEntity
  8
0
 62
7
100
AcDbPolyline
 90
4
 70
1
 10
202.565000
 20
-227.108106
 30
0.0
 10
216.535000
 20
-227.108106
 30
0.0
 10
216.535000
 20
-241.078106
 30
0.0
 10
202.565000
 20
-241.078106
 30
0.0
  0
LWPOLYLINE
  5
1bb
100
AcDbEntity
  8
0
 62
7
100
AcDbPolyline
 90
4
 70
1
 10
221.615000
 20
-227.108106
 30
0.0
 10
235.585000
 20
-227.108106
 30
0.0
 10
235.585000
 20
-241.078106
 30
0.0
 10
221.615000
 20
-241.078106
 30
0.0
  0
LWPOLYLINE
  5
1bc
100
AcDbEntity
  8
0
 62
7
100
AcDbPolyline
 90
4
 70
1
 10
240.665000
 20
-227.108106
 30
0.0
 10
254.635000
 20
-227.108106
 30
0.0
 10
254.635000
 20
-241.078106
 30
0.0
 10
240.665000
 20
-241.078106
 30
0.0
  0
LWPOLYLINE
  5
1bd
100
AcDbEntity
  8
0
 62
7
100
AcDbPolyline
 90
4
 70
1
 10
259.715000
 20
-227.108106
 30
0.0
 10
273.685000
 20
-227.108106
 30
0.0
 10
273.685000
 20
-241.078106
 30
0.0
 10
259.715000
 20
-241.078106
 30
0.0
  0
LWPOLYLINE
  5
1be
100
AcDbEntity
  8
0
 62
7
100
AcDbPolyline
 90
4
 70
1
 10
278.765000
 20
-227.108106
 30
0.0
 10
292.735000
 20
-227.108106
 30
0.0
 10
292.735000
 20
-241.078106
 30
0.0
 10
278.765000
 20
-241.078106
 30
0.0
  0
LWPOLYLINE
  5
1bf
100
AcDbEntity
  8
0
 62
7
100
AcDbPolyline
 90
4
 70
1
 10
297.815000
 20
-227.108106
 30
0.0
 10
311.785000
 20
-227.108106
 30
0.0
 10
311.785000
 20
-241.078106
 30
0.0
 10
297.815000
 20
-241.078106
 30
0.0
  0
LWPOLYLINE
  5
1c0
100
AcDbEntity
  8
0
 62
7
100
AcDbPolyline
 90
4
 70
1
 10
31.115000
 20
-246.158106
 30
0.0
 10
45.085000
 20
-246.158106
 30
0.0
 10
45.085000
 20
-260.128106
 30
0.0
 10
31.115000
 20
-260.128106
 30
0.0
  0
LWPOLYLINE
  5
1c1
100
AcDbEntity
  8
0
 62
7
100
AcDbPolyline
 90
4
 70
1
 10
50.165000
 20
-246.158106
 30
0.0
 10
64.135000
 20
-246.158106
 30
0.0
 10
64.135000
 20
-260.128106
 30
0.0
 10
50.165000
 20
-260.128106
 30
0.0
  0
LWPOLYLINE
  5
1c2
100
AcDbEntity
  8
0
 62
7
100
AcDbPolyline
 90
4
 70
1
 10
69.215000
 20
-246.158106
 30
0.0
 10
83.185000
 20
-246.158106
 30
0.0
 10
83.185000
 20
-260.128106
 30
0.0
 10
69.215000
 20
-260.128106
 30
0.0
  0
LWPOLYLINE
  5
1c3
100
AcDbEntity
  8
0
 62
7
100
AcDbPolyline
 90
4
 70
1
 10
88.265000
 20
-246.158106
 30
0.0
 10
102.235000
 20
-246.158106
 30
0.0
 10
102.235000
 20
-260.128106
 30
0.0
 10
88.265000
 20
-260.128106
 30
0.0
  0
LWPOLYLINE
  5
1c4
100
AcDbEntity
  8
0
 62
7
100
AcDbPolyline
 90
4
 70
1
 10
107.315000
 20
-246.158106
 30
0.0
 10
121.285000
 20
-246.158106
 30
0.0
 10
121.285000
 20
-260.128106
 30
0.0
 10
107.315000
 20
-260.128106
 30
0.0
  0
LWPOLYLINE
  5
1c5
100
AcDbEntity
  8
0
 62
7
100
AcDbPolyline
 90
4
 70
1
 10
126.365000
 20
-246.158106
 30
0.0
 10
140.335000
 20
-246.158106
 30
0.0
 10
140.335000
 20
-260.128106
 30
0.0
 10
126.365000
 20
-260.128106
 30
0.0
  0
LWPOLYLINE
  5
1c6
100
AcDbEntity
  8
0
 62
7
100
AcDbPolyline
 90
4
 70
1
 10
145.415000
 20
-246.158106
 30
0.0
 10
159.385000
 20
-246.158106
 30
0.0
 10
159.385000
 20
-260.128106
 30
0.0
 10
145.415000
 20
-260.128106
 30
0.0
  0
LWPOLYLINE
  5
1c7
100
AcDbEntity
  8
0
 62
7
100
AcDbPolyline
 90
4
 70
1
 10
164.465000
 20
-246.158106
 30
0.0
 10
178.435000
 20
-246.158106
 30
0.0
 10
178.435000
 20
-260.128106
 30
0.0
 10
164.465000
 20
-260.128106
 30
0.0
  0
LWPOLYLINE
  5
1c8
100
AcDbEntity
  8
0
 62
7
100
AcDbPolyline
 90
4
 70
1
 10
183.515000
 20
-246.158106
 30
0.0
 10
197.485000
 20
-246.158106
 30
0.0
 10
197.485000
 20
-260.128106
 30
0.0
 10
183.515000
 20
-260.128106
 30
0.0
  0
LWPOLYLINE
  5
1c9
100
AcDbEntity
  8
0
 62
7
100
AcDbPolyline
 90
4
 70
1
 10
202.565000
 20
-246.158106
 30
0.0
 10
216.535000
 20
-246.158106
 30
0.0
 10
216.535000
 20
-260.128106
 30
0.0
 10
202.565000
 20
-260.128106
 30
0.0
  0
LWPOLYLINE
  5
1ca
100
AcDbEntity
  8
0
 62
7
100
AcDbPolyline
 90
4
 70
1
 10
221.615000
 20
-246.158106
 30
0.0
 10
235.585000
 20
-246.158106
 30
0.0
 10
235.585000
 20
-260.128106
 30
0.0
 10
221.615000
 20
-260.128106
 30
0.0
  0
LWPOLYLINE
  5
1cb
100
AcDbEntity
  8
0
 62
7
100
AcDbPolyline
 90
4
 70
1
 10
240.665000
 20
-246.158106
 30
0.0
 10
254.635000
 20
-246.158106
 30
0.0
 10
254.635000
 20
-260.128106
 30
0.0
 10
240.665000
 20
-260.128106
 30
0.0
  0
LWPOLYLINE
  5
1cc
100
AcDbEntity
  8
0
 62
7
100
AcDbPolyline
 90
4
 70
1
 10
259.715000
 20
-246.158106
 30
0.0
 10
273.685000
 20
-246.158106
 30
0.0
 10
273.685000
 20
-260.128106
 30
0.0
 10
259.715000
 20
-260.128106
 30
0.0
  0
LWPOLYLINE
  5
1cd
100
AcDbEntity
  8
0
 62
7
100
AcDbPolyline
 90
4
 70
1
 10
278.765000
 20
-246.158106
 30
0.0
 10
292.735000
 20
-246.158106
 30
0.0
 10
292.735000
 20
-260.128106
 30
0.0
 10
278.765000
 20
-260.128106
 30
0.0
  0
LWPOLYLINE
  5
1ce
100
AcDbEntity
  8
0
 62
7
100
AcDbPolyline
 90
4
 70
1
 10
297.815000
 20
-246.158106
 30
0.0
 10
311.785000
 20
-246.158106
 30
0.0
 10
311.785000
 20
-260.128106
 30
0.0
 10
297.815000
 20
-260.128106
 30
0.0
  0
LWPOLYLINE
  5
1cf
100
AcDbEntity
  8
0
 62
7
100
AcDbPolyline
 90
4
 70
1
 10
31.115000
 20
-265.208106
 30
0.0
 10
45.085000
 20
-265.208106
 30
0.0
 10
45.085000
 20
-279.178106
 30
0.0
 10
31.115000
 20
-279.178106
 30
0.0
  0
LWPOLYLINE
  5
1d0
100
AcDbEntity
  8
0
 62
7
100
AcDbPolyline
 90
4
 70
1
 10
50.165000
 20
-265.208106
 30
0.0
 10
64.135000
 20
-265.208106
 30
0.0
 10
64.135000
 20
-279.178106
 30
0.0
 10
50.165000
 20
-279.178106
 30
0.0
  0
LWPOLYLINE
  5
1d1
100
AcDbEntity
  8
0
 62
7
100
AcDbPolyline
 90
4
 70
1
 10
69.215000
 20
-265.208106
 30
0.0
 10
83.185000
 20
-265.208106
 30
0.0
 10
83.185000
 20
-279.178106
 30
0.0
 10
69.215000
 20
-279.178106
 30
0.0
  0
LWPOLYLINE
  5
1d2
100
AcDbEntity
  8
0
 62
7
100
AcDbPolyline
 90
4
 70
1
 10
88.265000
 20
-265.208106
 30
0.0
 10
102.235000
 20
-265.208106
 30
0.0
 10
102.235000
 20
-279.178106
 30
0.0
 10
88.265000
 20
-279.178106
 30
0.0
  0
LWPOLYLINE
  5
1d3
100
AcDbEntity
  8
0
 62
7
100
AcDbPolyline
 90
4
 70
1
 10
107.315000
 20
-265.208106
 30
0.0
 10
121.285000
 20
-265.208106
 30
0.0
 10
121.285000
 20
-279.178106
 30
0.0
 10
107.315000
 20
-279.178106
 30
0.0
  0
LWPOLYLINE
  5
1d4
100
AcDbEntity
  8
0
 62
7
100
AcDbPolyline
 90
4
 70
1
 10
126.365000
 20
-265.208106
 30
0.0
 10
140.335000
 20
-265.208106
 30
0.0
 10
140.335000
 20
-279.178106
 30
0.0
 10
126.365000
 20
-279.178106
 30
0.0
  0
LWPOLYLINE
  5
1d5
100
AcDbEntity
  8
0
 62
7
100
AcDbPolyline
 90
4
 70
1
 10
145.415000
 20
-265.208106
 30
0.0
 10
159.385000
 20
-265.208106
 30
0.0
 10
159.385000
 20
-279.178106
 30
0.0
 10
145.415000
 20
-279.178106
 30
0.0
  0
LWPOLYLINE
  5
1d6
100
AcDbEntity
  8
0
 62
7
100
AcDbPolyline
 90
4
 70
1
 10
164.465000
 20
-265.208106
 30
0.0
 10
178.435000
 20
-265.208106
 30
0.0
 10
178.435000
 20
-279.178106
 30
0.0
 10
164.465000
 20
-279.178106
 30
0.0
  0
LWPOLYLINE
  5
1d7
100
AcDbEntity
  8
0
 62
7
100
AcDbPolyline
 90
4
 70
1
 10
183.515000
 20
-265.208106
 30
0.0
 10
197.485000
 20
-265.208106
 30
0.0
 10
197.485000
 20
-279.178106
 30
0.0
 10
183.515000
 20
-279.178106
 30
0.0
  0
LWPOLYLINE
  5
1d8
100
AcDbEntity
  8
0
 62
7
100
AcDbPolyline
 90
4
 70
1
 10
202.565000
 20
-265.208106
 30
0.0
 10
216.535000
 20
-265.208106
 30
0.0
 10
216.535000
 20
-279.178106
 30
0.0
 10
202.565000
 20
-279.178106
 30
0.0
  0
LWPOLYLINE
  5
1d9
100
AcDbEntity
  8
0
 62
7
100
AcDbPolyline
 90
4
 70
1
 10
221.615000
 20
-265.208106
 30
0.0
 10
235.585000
 20
-265.208106
 30
0.0
 10
235.585000
 20
-279.178106
 30
0.0
 10
221.615000
 20
-279.178106
 30
0.0
  0
LWPOLYLINE
  5
1da
100
AcDbEntity
  8
0
 62
7
100
AcDbPolyline
 90
4
 70
1
 10
240.665000
 20
-265.208106
 30
0.0
 10
254.635000
 20
-265.208106
 30
0.0
 10
254.635000
 20
-279.178106
 30
0.0
 10
240.665000
 20
-279.178106
 30
0.0
  0
LWPOLYLINE
  5
1db
100
AcDbEntity
  8
0
 62
7
100
AcDbPolyline
 90
4
 70
1
 10
259.715000
 20
-265.208106
 30
0.0
 10
273.685000
 20
-265.208106
 30
0.0
 10
273.685000
 20
-279.178106
 30
0.0
 10
259.715000
 20
-279.178106
 30
0.0
  0
LWPOLYLINE
  5
1dc
100
AcDbEntity
  8
0
 62
7
100
AcDbPolyline
 90
4
 70
1
 10
278.765000
 20
-265.208106
 30
0.0
 10
292.735000
 20
-265.208106
 30
0.0
 10
292.735000
 20
-279.178106
 30
0.0
 10
278.765000
 20
-279.178106
 30
0.0
  0
LWPOLYLINE
  5
1dd
100
AcDbEntity
  8
0
 62
7
100
AcDbPolyline
 90
4
 70
1
 10
297.815000
 20
-265.208106
 30
0.0
 10
311.785000
 20
-265.208106
 30
0.0
 10
311.785000
 20
-279.178106
 30
0.0
 10
297.815000
 20
-279.178106
 30
0.0
  0
LWPOLYLINE
  5
1de
100
AcDbEntity
  8
0
 62
7
100
AcDbPolyline
 90
4
 70
1
 10
31.115000
 20
-284.258106
 30
0.0
 10
45.085000
 20
-284.258106
 30
0.0
 10
45.085000
 20
-298.228106
 30
0.0
 10
31.115000
 20
-298.228106
 30
0.0
  0
LWPOLYLINE
  5
1df
100
AcDbEntity
  8
0
 62
7
100
AcDbPolyline
 90
4
 70
1
 10
50.165000
 20
-284.258106
 30
0.0
 10
64.135000
 20
-284.258106
 30
0.0
 10
64.135000
 20
-298.228106
 30
0.0
 10
50.165000
 20
-298.228106
 30
0.0
  0
LWPOLYLINE
  5
1e0
100
AcDbEntity
  8
0
 62
7
100
AcDbPolyline
 90
4
 70
1
 10
69.215000
 20
-284.258106
 30
0.0
 10
83.185000
 20
-284.258106
 30
0.0
 10
83.185000
 20
-298.228106
 30
0.0
 10
69.215000
 20
-298.228106
 30
0.0
  0
LWPOLYLINE
  5
1e1
100
AcDbEntity
  8
0
 62
7
100
AcDbPolyline
 90
4
 70
1
 10
88.265000
 20
-284.258106
 30
0.0
 10
102.235000
 20
-284.258106
 30
0.0
 10
102.235000
 20
-298.228106
 30
0.0
 10
88.265000
 20
-298.228106
 30
0.0
  0
LWPOLYLINE
  5
1e2
100
AcDbEntity
  8
0
 62
7
100
AcDbPolyline
 90
4
 70
1
 10
107.315000
 20
-284.258106
 30
0.0
 10
121.285000
 20
-284.258106
 30
0.0
 10
121.285000
 20
-298.228106
 30
0.0
 10
107.315000
 20
-298.228106
 30
0.0
  0
LWPOLYLINE
  5
1e3
100
AcDbEntity
  8
0
 62
7
100
AcDbPolyline
 90
4
 70
1
 10
126.365000
 20
-284.258106
 30
0.0
 10
140.335000
 20
-284.258106
 30
0.0
 10
140.335000
 20
-298.228106
 30
0.0
 10
126.365000
 20
-298.228106
 30
0.0
  0
LWPOLYLINE
  5
1e4
100
AcDbEntity
  8
0
 62
7
100
AcDbPolyline
 90
4
 70
1
 10
145.415000
 20
-284.258106
 30
0.0
 10
159.385000
 20
-284.258106
 30
0.0
 10
159.385000
 20
-298.228106
 30
0.0
 10
145.415000
 20
-298.228106
 30
0.0
  0
LWPOLYLINE
  5
1e5
100
AcDbEntity
  8
0
 62
7
100
AcDbPolyline
 90
4
 70
1
 10
164.465000
 20
-284.258106
 30
0.0
 10
178.435000
 20
-284.258106
 30
0.0
 10
178.435000
 20
-298.228106
 30
0.0
 10
164.465000
 20
-298.228106
 30
0.0
  0
LWPOLYLINE
  5
1e6
100
AcDbEntity
  8
0
 62
7
100
AcDbPolyline
 90
4
 70
1
 10
183.515000
 20
-284.258106
 30
0.0
 10
197.485000
 20
-284.258106
 30
0.0
 10
197.485000
 20
-298.228106
 30
0.0
 10
183.515000
 20
-298.228106
 30
0.0
  0
LWPOLYLINE
  5
1e7
100
AcDbEntity
  8
0
 62
7
100
AcDbPolyline
 90
4
 70
1
 10
202.565000
 20
-284.258106
 30
0.0
 10
216.535000
 20
-284.258106
 30
0.0
 10
216.535000
 20
-298.228106
 30
0.0
 10
202.565000
 20
-298.228106
 30
0.0
  0
LWPOLYLINE
  5
1e8
100
AcDbEntity
  8
0
 62
7
100
AcDbPolyline
 90
4
 70
1
 10
221.615000
 20
-284.258106
 30
0.0
 10
235.585000
 20
-284.258106
 30
0.0
 10
235.585000
 20
-298.228106
 30
0.0
 10
221.615000
 20
-298.228106
 30
0.0
  0
LWPOLYLINE
  5
1e9
100
AcDbEntity
  8
0
 62
7
100
AcDbPolyline
 90
4
 70
1
 10
240.665000
 20
-284.258106
 30
0.0
 10
254.635000
 20
-284.258106
 30
0.0
 10
254.635000
 20
-298.228106
 30
0.0
 10
240.665000
 20
-298.228106
 30
0.0
  0
LWPOLYLINE
  5
1ea
100
AcDbEntity
  8
0
 62
7
100
AcDbPolyline
 90
4
 70
1
 10
259.715000
 20
-284.258106
 30
0.0
 10
273.685000
 20
-284.258106
 30
0.0
 10
273.685000
 20
-298.228106
 30
0.0
 10
259.715000
 20
-298.228106
 30
0.0
  0
LWPOLYLINE
  5
1eb
100
AcDbEntity
  8
0
 62
7
100
AcDbPolyline
 90
4
 70
1
 10
278.765000
 20
-284.258106
 30
0.0
 10
292.735000
 20
-284.258106
 30
0.0
 10
292.735000
 20
-298.228106
 30
0.0
 10
278.765000
 20
-298.228106
 30
0.0
  0
SPLINE
  5
1ec
100
AcDbEntity
  8
0
 62
7
100
AcDbSpline
 70
8
 71
3
 72
8
 73
4
 74
0
 40
0
 40
0
 40
0
 40
0
 40
1
 40
1
 40
1
 40
1
 10
297.656252
 20
-281.718106
 30
0.0
 10
297.656252
 20
-283.033235
 30
0.0
 10
296.590129
 20
-284.099358
 30
0.0
 10
295.275000
 20
-284.099358
 30
0.0
  0
SPLINE
  5
1ed
100
AcDbEntity
  8
0
 62
7
100
AcDbSpline
 70
8
 71
3
 72
8
 73
4
 74
0
 40
0
 40
0
 40
0
 40
0
 40
1
 40
1
 40
1
 40
1
 10
295.275000
 20
-284.099358
 30
0.0
 10
293.959871
 20
-284.099358
 30
0.0
 10
292.893748
 20
-283.033235
 30
0.0
 10
292.893748
 20
-281.718106
 30
0.0
  0
SPLINE
  5
1ee
100
AcDbEntity
  8
0
 62
7
100
AcDbSpline
 70
8
 71
3
 72
8
 73
4
 74
0
 40
0
 40
0
 40
0
 40
0
 40
1
 40
1
 40
1
 40
1
 10
292.893748
 20
-281.718106
 30
0.0
 10
292.893748
 20
-280.867366
 30
0.0
 10
293.347612
 20
-280.081250
 30
0.0
 10
294.084374
 20
-279.655880
 30
0.0
  0
SPLINE
  5
1ef
100
AcDbEntity
  8
0
 62
7
100
AcDbSpline
 70
8
 71
3
 72
8
 73
4
 74
0
 40
0
 40
0
 40
0
 40
0
 40
1
 40
1
 40
1
 40
1
 10
294.084374
 20
-279.655880
 30
0.0
 10
294.821136
 20
-279.230511
 30
0.0
 10
295.728864
 20
-279.230511
 30
0.0
 10
296.465626
 20
-279.655880
 30
0.0
  0
SPLINE
  5
1f0
100
AcDbEntity
  8
0
 62
7
100
AcDbSpline
 70
8
 71
3
 72
8
 73
4
 74
0
 40
0
 40
0
 40
0
 40
0
 40
1
 40
1
 40
1
 40
1
 10
296.465626
 20
-279.655880
 30
0.0
 10
297.202388
 20
-280.081250
 30
0.0
 10
297.656252
 20
-280.867366
 30
0.0
 10
297.656252
 20
-281.718106
 30
0.0
  0
LWPOLYLINE
  5
1f1
100
AcDbEntity
  8
0
 62
7
100
AcDbPolyline
 90
4
 70
1
 10
297.815000
 20
-284.258106
 30
0.0
 10
311.785000
 20
-284.258106
 30
0.0
 10
311.785000
 20
-298.228106
 30
0.0
 10
297.815000
 20
-298.228106
 30
0.0
  0
SPLINE
  5
1f2
100
AcDbEntity
  8
0
 62
7
100
AcDbSpline
 70
8
 71
3
 72
8
 73
4
 74
0
 40
0
 40
0
 40
0
 40
0
 40
1
 40
1
 40
1
 40
1
 10
221.456512
 20
-281.718106
 30
0.0
 10
221.456511
 20
-283.033235
 30
0.0
 10
220.390388
 20
-284.099358
 30
0.0
 10
219.075259
 20
-284.099358
 30
0.0
  0
SPLINE
  5
1f3
100
AcDbEntity
  8
0
 62
7
100
AcDbSpline
 70
8
 71
3
 72
8
 73
4
 74
0
 40
0
 40
0
 40
0
 40
0
 40
1
 40
1
 40
1
 40
1
 10
219.075259
 20
-284.099358
 30
0.0
 10
217.760130
 20
-284.099358
 30
0.0
 10
216.694007
 20
-283.033235
 30
0.0
 10
216.694007
 20
-281.718106
 30
0.0
  0
SPLINE
  5
1f4
100
AcDbEntity
  8
0
 62
7
100
AcDbSpline
 70
8
 71
3
 72
8
 73
4
 74
0
 40
0
 40
0
 40
0
 40
0
 40
1
 40
1
 40
1
 40
1
 10
216.694007
 20
-281.718106
 30
0.0
 10
216.694007
 20
-280.867366
 30
0.0
 10
217.147871
 20
-280.081250
 30
0.0
 10
217.884633
 20
-279.655880
 30
0.0
  0
SPLINE
  5
1f5
100
AcDbEntity
  8
0
 62
7
100
AcDbSpline
 70
8
 71
3
 72
8
 73
4
 74
0
 40
0
 40
0
 40
0
 40
0
 40
1
 40
1
 40
1
 40
1
 10
217.884633
 20
-279.655880
 30
0.0
 10
218.621395
 20
-279.230511
 30
0.0
 10
219.529123
 20
-279.230511
 30
0.0
 10
220.265885
 20
-279.655880
 30
0.0
  0
SPLINE
  5
1f6
100
AcDbEntity
  8
0
 62
7
100
AcDbSpline
 70
8
 71
3
 72
8
 73
4
 74
0
 40
0
 40
0
 40
0
 40
0
 40
1
 40
1
 40
1
 40
1
 10
220.265885
 20
-279.655880
 30
0.0
 10
221.002647
 20
-280.081250
 30
0.0
 10
221.456512
 20
-280.867366
 30
0.0
 10
221.456512
 20
-281.718106
 30
0.0
  0
LWPOLYLINE
  5
1f7
100
AcDbEntity
  8
0
 62
7
100
AcDbPolyline
 90
1
 70
1
 10
297.656252
 20
-281.718106
 30
0.0
  0
SPLINE
  5
1f8
100
AcDbEntity
  8
0
 62
7
100
AcDbSpline
 70
8
 71
3
 72
8
 73
4
 74
0
 40
0
 40
0
 40
0
 40
0
 40
1
 40
1
 40
1
 40
1
 10
126.206252
 20
-281.718106
 30
0.0
 10
126.206252
 20
-282.568845
 30
0.0
 10
125.752388
 20
-283.354961
 30
0.0
 10
125.015626
 20
-283.780331
 30
0.0
  0
SPLINE
  5
1f9
100
AcDbEntity
  8
0
 62
7
100
AcDbSpline
 70
8
 71
3
 72
8
 73
4
 74
0
 40
0
 40
0
 40
0
 40
0
 40
1
 40
1
 40
1
 40
1
 10
125.015626
 20
-283.780331
 30
0.0
 10
124.278864
 20
-284.205701
 30
0.0
 10
123.371136
 20
-284.205701
 30
0.0
 10
122.634374
 20
-283.780331
 30
0.0
  0
SPLINE
  5
1fa
100
AcDbEntity
  8
0
 62
7
100
AcDbSpline
 70
8
 71
3
 72
8
 73
4
 74
0
 40
0
 40
0
 40
0
 40
0
 40
1
 40
1
 40
1
 40
1
 10
122.634374
 20
-283.780331
 30
0.0
 10
121.897612
 20
-283.354961
 30
0.0
 10
121.443748
 20
-282.568845
 30
0.0
 10
121.443748
 20
-281.718106
 30
0.0
  0
SPLINE
  5
1fb
100
AcDbEntity
  8
0
 62
7
100
AcDbSpline
 70
8
 71
3
 72
8
 73
4
 74
0
 40
0
 40
0
 40
0
 40
0
 40
1
 40
1
 40
1
 40
1
 10
121.443748
 20
-281.718106
 30
0.0
 10
121.443748
 20
-280.867366
 30
0.0
 10
121.897612
 20
-280.081250
 30
0.0
 10
122.634374
 20
-279.655880
 30
0.0
  0
SPLINE
  5
1fc
100
AcDbEntity
  8
0
 62
7
100
AcDbSpline
 70
8
 71
3
 72
8
 73
4
 74
0
 40
0
 40
0
 40
0
 40
0
 40
1
 40
1
 40
1
 40
1
 10
122.634374
 20
-279.655880
 30
0.0
 10
123.371136
 20
-279.230511
 30
0.0
 10
124.278864
 20
-279.230511
 30
0.0
 10
125.015626
 20
-279.655880
 30
0.0
  0
SPLINE
  5
1fd
100
AcDbEntity
  8
0
 62
7
100
AcDbSpline
 70
8
 71
3
 72
8
 73
4
 74
0
 40
0
 40
0
 40
0
 40
0
 40
1
 40
1
 40
1
 40
1
 10
125.015626
 20
-279.655880
 30
0.0
 10
125.752388
 20
-280.081250
 30
0.0
 10
126.206252
 20
-280.867366
 30
0.0
 10
126.206252
 20
-281.718106
 30
0.0
  0
LWPOLYLINE
  5
1fe
100
AcDbEntity
  8
0
 62
7
100
AcDbPolyline
 90
1
 70
1
 10
221.456512
 20
-281.718106
 30
0.0
  0
SPLINE
  5
1ff
100
AcDbEntity
  8
0
 62
7
100
AcDbSpline
 70
8
 71
3
 72
8
 73
4
 74
0
 40
0
 40
0
 40
0
 40
0
 40
1
 40
1
 40
1
 40
1
 10
50.006252
 20
-281.718106
 30
0.0
 10
50.006252
 20
-282.568845
 30
0.0
 10
49.552388
 20
-283.354961
 30
0.0
 10
48.815626
 20
-283.780331
 30
0.0
  0
SPLINE
  5
200
100
AcDbEntity
  8
0
 62
7
100
AcDbSpline
 70
8
 71
3
 72
8
 73
4
 74
0
 40
0
 40
0
 40
0
 40
0
 40
1
 40
1
 40
1
 40
1
 10
48.815626
 20
-283.780331
 30
0.0
 10
48.078864
 20
-284.205701
 30
0.0
 10
47.171136
 20
-284.205701
 30
0.0
 10
46.434374
 20
-283.780331
 30
0.0
  0
SPLINE
  5
201
100
AcDbEntity
  8
0
 62
7
100
AcDbSpline
 70
8
 71
3
 72
8
 73
4
 74
0
 40
0
 40
0
 40
0
 40
0
 40
1
 40
1
 40
1
 40
1
 10
46.434374
 20
-283.780331
 30
0.0
 10
45.697612
 20
-283.354961
 30
0.0
 10
45.243748
 20
-282.568845
 30
0.0
 10
45.243748
 20
-281.718106
 30
0.0
  0
SPLINE
  5
202
100
AcDbEntity
  8
0
 62
7
100
AcDbSpline
 70
8
 71
3
 72
8
 73
4
 74
0
 40
0
 40
0
 40
0
 40
0
 40
1
 40
1
 40
1
 40
1
 10
45.243748
 20
-281.718106
 30
0.0
 10
45.243748
 20
-280.867366
 30
0.0
 10
45.697612
 20
-280.081250
 30
0.0
 10
46.434374
 20
-279.655880
 30
0.0
  0
SPLINE
  5
203
100
AcDbEntity
  8
0
 62
7
100
AcDbSpline
 70
8
 71
3
 72
8
 73
4
 74
0
 40
0
 40
0
 40
0
 40
0
 40
1
 40
1
 40
1
 40
1
 10
46.434374
 20
-279.655880
 30
0.0
 10
47.171136
 20
-279.230511
 30
0.0
 10
48.078864
 20
-279.230511
 30
0.0
 10
48.815626
 20
-279.655880
 30
0.0
  0
SPLINE
  5
204
100
AcDbEntity
  8
0
 62
7
100
AcDbSpline
 70
8
 71
3
 72
8
 73
4
 74
0
 40
0
 40
0
 40
0
 40
0
 40
1
 40
1
 40
1
 40
1
 10
48.815626
 20
-279.655880
 30
0.0
 10
49.552388
 20
-280.081250
 30
0.0
 10
50.006252
 20
-280.867366
 30
0.0
 10
50.006252
 20
-281.718106
 30
0.0
  0
LWPOLYLINE
  5
205
100
AcDbEntity
  8
0
 62
7
100
AcDbPolyline
 90
1
 70
1
 10
126.206252
 20
-281.718106
 30
0.0
  0
SPLINE
  5
206
100
AcDbEntity
  8
0
 62
7
100
AcDbSpline
 70
8
 71
3
 72
8
 73
4
 74
0
 40
0
 40
0
 40
0
 40
0
 40
1
 40
1
 40
1
 40
1
 10
50.006252
 20
-205.518365
 30
0.0
 10
50.006252
 20
-206.369104
 30
0.0
 10
49.552388
 20
-207.155220
 30
0.0
 10
48.815626
 20
-207.580590
 30
0.0
  0
SPLINE
  5
207
100
AcDbEntity
  8
0
 62
7
100
AcDbSpline
 70
8
 71
3
 72
8
 73
4
 74
0
 40
0
 40
0
 40
0
 40
0
 40
1
 40
1
 40
1
 40
1
 10
48.815626
 20
-207.580590
 30
0.0
 10
48.078864
 20
-208.005960
 30
0.0
 10
47.171136
 20
-208.005960
 30
0.0
 10
46.434374
 20
-207.580590
 30
0.0
  0
SPLINE
  5
208
100
AcDbEntity
  8
0
 62
7
100
AcDbSpline
 70
8
 71
3
 72
8
 73
4
 74
0
 40
0
 40
0
 40
0
 40
0
 40
1
 40
1
 40
1
 40
1
 10
46.434374
 20
-207.580590
 30
0.0
 10
45.697612
 20
-207.155220
 30
0.0
 10
45.243748
 20
-206.369104
 30
0.0
 10
45.243748
 20
-205.518365
 30
0.0
  0
SPLINE
  5
209
100
AcDbEntity
  8
0
 62
7
100
AcDbSpline
 70
8
 71
3
 72
8
 73
4
 74
0
 40
0
 40
0
 40
0
 40
0
 40
1
 40
1
 40
1
 40
1
 10
45.243748
 20
-205.518365
 30
0.0
 10
45.243748
 20
-204.667625
 30
0.0
 10
45.697612
 20
-203.881509
 30
0.0
 10
46.434374
 20
-203.456140
 30
0.0
  0
SPLINE
  5
20a
100
AcDbEntity
  8
0
 62
7
100
AcDbSpline
 70
8
 71
3
 72
8
 73
4
 74
0
 40
0
 40
0
 40
0
 40
0
 40
1
 40
1
 40
1
 40
1
 10
46.434374
 20
-203.456140
 30
0.0
 10
47.171136
 20
-203.030770
 30
0.0
 10
48.078864
 20
-203.030770
 30
0.0
 10
48.815626
 20
-203.456140
 30
0.0
  0
SPLINE
  5
20b
100
AcDbEntity
  8
0
 62
7
100
AcDbSpline
 70
8
 71
3
 72
8
 73
4
 74
0
 40
0
 40
0
 40
0
 40
0
 40
1
 40
1
 40
1
 40
1
 10
48.815626
 20
-203.456140
 30
0.0
 10
49.552388
 20
-203.881509
 30
0.0
 10
50.006252
 20
-204.667625
 30
0.0
 10
50.006252
 20
-205.518365
 30
0.0
  0
LWPOLYLINE
  5
20c
100
AcDbEntity
  8
0
 62
7
100
AcDbPolyline
 90
1
 70
1
 10
50.006252
 20
-281.718106
 30
0.0
  0
SPLINE
  5
20d
100
AcDbEntity
  8
0
 62
7
100
AcDbSpline
 70
8
 71
3
 72
8
 73
4
 74
0
 40
0
 40
0
 40
0
 40
0
 40
1
 40
1
 40
1
 40
1
 10
126.206252
 20
-205.518365
 30
0.0
 10
126.206252
 20
-206.369104
 30
0.0
 10
125.752388
 20
-207.155220
 30
0.0
 10
125.015626
 20
-207.580590
 30
0.0
  0
SPLINE
  5
20e
100
AcDbEntity
  8
0
 62
7
100
AcDbSpline
 70
8
 71
3
 72
8
 73
4
 74
0
 40
0
 40
0
 40
0
 40
0
 40
1
 40
1
 40
1
 40
1
 10
125.015626
 20
-207.580590
 30
0.0
 10
124.278864
 20
-208.005960
 30
0.0
 10
123.371136
 20
-208.005960
 30
0.0
 10
122.634374
 20
-207.580590
 30
0.0
  0
SPLINE
  5
20f
100
AcDbEntity
  8
0
 62
7
100
AcDbSpline
 70
8
 71
3
 72
8
 73
4
 74
0
 40
0
 40
0
 40
0
 40
0
 40
1
 40
1
 40
1
 40
1
 10
122.634374
 20
-207.580590
 30
0.0
 10
121.897612
 20
-207.155220
 30
0.0
 10
121.443748
 20
-206.369104
 30
0.0
 10
121.443748
 20
-205.518365
 30
0.0
  0
SPLINE
  5
210
100
AcDbEntity
  8
0
 62
7
100
AcDbSpline
 70
8
 71
3
 72
8
 73
4
 74
0
 40
0
 40
0
 40
0
 40
0
 40
1
 40
1
 40
1
 40
1
 10
121.443748
 20
-205.518365
 30
0.0
 10
121.443748
 20
-204.667625
 30
0.0
 10
121.897612
 20
-203.881509
 30
0.0
 10
122.634374
 20
-203.456140
 30
0.0
  0
SPLINE
  5
211
100
AcDbEntity
  8
0
 62
7
100
AcDbSpline
 70
8
 71
3
 72
8
 73
4
 74
0
 40
0
 40
0
 40
0
 40
0
 40
1
 40
1
 40
1
 40
1
 10
122.634374
 20
-203.456140
 30
0.0
 10
123.371136
 20
-203.030770
 30
0.0
 10
124.278864
 20
-203.030770
 30
0.0
 10
125.015626
 20
-203.456140
 30
0.0
  0
SPLINE
  5
212
100
AcDbEntity
  8
0
 62
7
100
AcDbSpline
 70
8
 71
3
 72
8
 73
4
 74
0
 40
0
 40
0
 40
0
 40
0
 40
1
 40
1
 40
1
 40
1
 10
125.015626
 20
-203.456140
 30
0.0
 10
125.752388
 20
-203.881509
 30
0.0
 10
126.206252
 20
-204.667625
 30
0.0
 10
126.206252
 20
-205.518365
 30
0.0
  0
LWPOLYLINE
  5
213
100
AcDbEntity
  8
0
 62
7
100
AcDbPolyline
 90
1
 70
1
 10
50.006252
 20
-205.518365
 30
0.0
  0
SPLINE
  5
214
100
AcDbEntity
  8
0
 62
7
100
AcDbSpline
 70
8
 71
3
 72
8
 73
4
 74
0
 40
0
 40
0
 40
0
 40
0
 40
1
 40
1
 40
1
 40
1
 10
221.456512
 20
-205.518365
 30
0.0
 10
221.456511
 20
-206.833494
 30
0.0
 10
220.390388
 20
-207.899617
 30
0.0
 10
219.075259
 20
-207.899617
 30
0.0
  0
SPLINE
  5
215
100
AcDbEntity
  8
0
 62
7
100
AcDbSpline
 70
8
 71
3
 72
8
 73
4
 74
0
 40
0
 40
0
 40
0
 40
0
 40
1
 40
1
 40
1
 40
1
 10
219.075259
 20
-207.899617
 30
0.0
 10
217.760130
 20
-207.899617
 30
0.0
 10
216.694007
 20
-206.833494
 30
0.0
 10
216.694007
 20
-205.518365
 30
0.0
  0
SPLINE
  5
216
100
AcDbEntity
  8
0
 62
7
100
AcDbSpline
 70
8
 71
3
 72
8
 73
4
 74
0
 40
0
 40
0
 40
0
 40
0
 40
1
 40
1
 40
1
 40
1
 10
216.694007
 20
-205.518365
 30
0.0
 10
216.694007
 20
-204.667625
 30
0.0
 10
217.147871
 20
-203.881509
 30
0.0
 10
217.884633
 20
-203.456140
 30
0.0
  0
SPLINE
  5
217
100
AcDbEntity
  8
0
 62
7
100
AcDbSpline
 70
8
 71
3
 72
8
 73
4
 74
0
 40
0
 40
0
 40
0
 40
0
 40
1
 40
1
 40
1
 40
1
 10
217.884633
 20
-203.456140
 30
0.0
 10
218.621395
 20
-203.030770
 30
0.0
 10
219.529123
 20
-203.030770
 30
0.0
 10
220.265885
 20
-203.456140
 30
0.0
  0
SPLINE
  5
218
100
AcDbEntity
  8
0
 62
7
100
AcDbSpline
 70
8
 71
3
 72
8
 73
4
 74
0
 40
0
 40
0
 40
0
 40
0
 40
1
 40
1
 40
1
 40
1
 10
220.265885
 20
-203.456140
 30
0.0
 10
221.002647
 20
-203.881509
 30
0.0
 10
221.456512
 20
-204.667625
 30
0.0
 10
221.456512
 20
-205.518365
 30
0.0
  0
LWPOLYLINE
  5
219
100
AcDbEntity
  8
0
 62
7
100
AcDbPolyline
 90
1
 70
1
 10
126.206252
 20
-205.518365
 30
0.0
  0
SPLINE
  5
21a
100
AcDbEntity
  8
0
 62
7
100
AcDbSpline
 70
8
 71
3
 72
8
 73
4
 74
0
 40
0
 40
0
 40
0
 40
0
 40
1
 40
1
 40
1
 40
1
 10
297.656252
 20
-205.518365
 30
0.0
 10
297.656252
 20
-206.833494
 30
0.0
 10
296.590129
 20
-207.899617
 30
0.0
 10
295.275000
 20
-207.899617
 30
0.0
  0
SPLINE
  5
21b
100
AcDbEntity
  8
0
 62
7
100
AcDbSpline
 70
8
 71
3
 72
8
 73
4
 74
0
 40
0
 40
0
 40
0
 40
0
 40
1
 40
1
 40
1
 40
1
 10
295.275000
 20
-207.899617
 30
0.0
 10
293.959871
 20
-207.899617
 30
0.0
 10
292.893748
 20
-206.833494
 30
0.0
 10
292.893748
 20
-205.518365
 30
0.0
  0
SPLINE
  5
21c
100
AcDbEntity
  8
0
 62
7
100
AcDbSpline
 70
8
 71
3
 72
8
 73
4
 74
0
 40
0
 40
0
 40
0
 40
0
 40
1
 40
1
 40
1
 40
1
 10
292.893748
 20
-205.518365
 30
0.0
 10
292.893748
 20
-204.667625
 30
0.0
 10
293.347612
 20
-203.881509
 30
0.0
 10
294.084374
 20
-203.456140
 30
0.0
  0
SPLINE
  5
21d
100
AcDbEntity
  8
0
 62
7
100
AcDbSpline
 70
8
 71
3
 72
8
 73
4
 74
0
 40
0
 40
0
 40
0
 40
0
 40
1
 40
1
 40
1
 40
1
 10
294.084374
 20
-203.456140
 30
0.0
 10
294.821136
 20
-203.030770
 30
0.0
 10
295.728864
 20
-203.030770
 30
0.0
 10
296.465626
 20
-203.456140
 30
0.0
  0
SPLINE
  5
21e
100
AcDbEntity
  8
0
 62
7
100
AcDbSpline
 70
8
 71
3
 72
8
 73
4
 74
0
 40
0
 40
0
 40
0
 40
0
 40
1
 40
1
 40
1
 40
1
 10
296.465626
 20
-203.456140
 30
0.0
 10
297.202388
 20
-203.881509
 30
0.0
 10
297.656252
 20
-204.667625
 30
0.0
 10
297.656252
 20
-205.518365
 30
0.0
  0
LWPOLYLINE
  5
21f
100
AcDbEntity
  8
0
 62
7
100
AcDbPolyline
 90
1
 70
1
 10
221.456512
 20
-205.518365
 30
0.0
  0
SPLINE
  5
220
100
AcDbEntity
  8
0
 62
7
100
AcDbSpline
 70
8
 71
3
 72
8
 73
4
 74
0
 40
0
 40
0
 40
0
 40
0
 40
1
 40
1
 40
1
 40
1
 10
297.656252
 20
-110.268106
 30
0.0
 10
297.656252
 20
-111.583235
 30
0.0
 10
296.590129
 20
-112.649358
 30
0.0
 10
295.275000
 20
-112.649358
 30
0.0
  0
SPLINE
  5
221
100
AcDbEntity
  8
0
 62
7
100
AcDbSpline
 70
8
 71
3
 72
8
 73
4
 74
0
 40
0
 40
0
 40
0
 40
0
 40
1
 40
1
 40
1
 40
1
 10
295.275000
 20
-112.649358
 30
0.0
 10
293.959871
 20
-112.649358
 30
0.0
 10
292.893748
 20
-111.583235
 30
0.0
 10
292.893748
 20
-110.268106
 30
0.0
  0
SPLINE
  5
222
100
AcDbEntity
  8
0
 62
7
100
AcDbSpline
 70
8
 71
3
 72
8
 73
4
 74
0
 40
0
 40
0
 40
0
 40
0
 40
1
 40
1
 40
1
 40
1
 10
292.893748
 20
-110.268106
 30
0.0
 10
292.893748
 20
-109.417366
 30
0.0
 10
293.347612
 20
-108.631250
 30
0.0
 10
294.084374
 20
-108.205880
 30
0.0
  0
SPLINE
  5
223
100
AcDbEntity
  8
0
 62
7
100
AcDbSpline
 70
8
 71
3
 72
8
 73
4
 74
0
 40
0
 40
0
 40
0
 40
0
 40
1
 40
1
 40
1
 40
1
 10
294.084374
 20
-108.205880
 30
0.0
 10
294.821136
 20
-107.780511
 30
0.0
 10
295.728864
 20
-107.780511
 30
0.0
 10
296.465626
 20
-108.205880
 30
0.0
  0
SPLINE
  5
224
100
AcDbEntity
  8
0
 62
7
100
AcDbSpline
 70
8
 71
3
 72
8
 73
4
 74
0
 40
0
 40
0
 40
0
 40
0
 40
1
 40
1
 40
1
 40
1
 10
296.465626
 20
-108.205880
 30
0.0
 10
297.202388
 20
-108.631250
 30
0.0
 10
297.656252
 20
-109.417366
 30
0.0
 10
297.656252
 20
-110.268106
 30
0.0
  0
LWPOLYLINE
  5
225
100
AcDbEntity
  8
0
 62
7
100
AcDbPolyline
 90
1
 70
1
 10
297.656252
 20
-205.518365
 30
0.0
  0
SPLINE
  5
226
100
AcDbEntity
  8
0
 62
7
100
AcDbSpline
 70
8
 71
3
 72
8
 73
4
 74
0
 40
0
 40
0
 40
0
 40
0
 40
1
 40
1
 40
1
 40
1
 10
221.456512
 20
-110.268106
 30
0.0
 10
221.456511
 20
-111.583235
 30
0.0
 10
220.390388
 20
-112.649358
 30
0.0
 10
219.075259
 20
-112.649358
 30
0.0
  0
SPLINE
  5
227
100
AcDbEntity
  8
0
 62
7
100
AcDbSpline
 70
8
 71
3
 72
8
 73
4
 74
0
 40
0
 40
0
 40
0
 40
0
 40
1
 40
1
 40
1
 40
1
 10
219.075259
 20
-112.649358
 30
0.0
 10
217.760130
 20
-112.649358
 30
0.0
 10
216.694007
 20
-111.583235
 30
0.0
 10
216.694007
 20
-110.268106
 30
0.0
  0
SPLINE
  5
228
100
AcDbEntity
  8
0
 62
7
100
AcDbSpline
 70
8
 71
3
 72
8
 73
4
 74
0
 40
0
 40
0
 40
0
 40
0
 40
1
 40
1
 40
1
 40
1
 10
216.694007
 20
-110.268106
 30
0.0
 10
216.694007
 20
-109.417366
 30
0.0
 10
217.147871
 20
-108.631250
 30
0.0
 10
217.884633
 20
-108.205880
 30
0.0
  0
SPLINE
  5
229
100
AcDbEntity
  8
0
 62
7
100
AcDbSpline
 70
8
 71
3
 72
8
 73
4
 74
0
 40
0
 40
0
 40
0
 40
0
 40
1
 40
1
 40
1
 40
1
 10
217.884633
 20
-108.205880
 30
0.0
 10
218.621395
 20
-107.780511
 30
0.0
 10
219.529123
 20
-107.780511
 30
0.0
 10
220.265885
 20
-108.205880
 30
0.0
  0
SPLINE
  5
22a
100
AcDbEntity
  8
0
 62
7
100
AcDbSpline
 70
8
 71
3
 72
8
 73
4
 74
0
 40
0
 40
0
 40
0
 40
0
 40
1
 40
1
 40
1
 40
1
 10
220.265885
 20
-108.205880
 30
0.0
 10
221.002647
 20
-108.631250
 30
0.0
 10
221.456512
 20
-109.417366
 30
0.0
 10
221.456512
 20
-110.268106
 30
0.0
  0
LWPOLYLINE
  5
22b
100
AcDbEntity
  8
0
 62
7
100
AcDbPolyline
 90
1
 70
1
 10
297.656252
 20
-110.268106
 30
0.0
  0
SPLINE
  5
22c
100
AcDbEntity
  8
0
 62
7
100
AcDbSpline
 70
8
 71
3
 72
8
 73
4
 74
0
 40
0
 40
0
 40
0
 40
0
 40
1
 40
1
 40
1
 40
1
 10
126.206252
 20
-110.268106
 30
0.0
 10
126.206252
 20
-111.118845
 30
0.0
 10
125.752388
 20
-111.904961
 30
0.0
 10
125.015626
 20
-112.330331
 30
0.0
  0
SPLINE
  5
22d
100
AcDbEntity
  8
0
 62
7
100
AcDbSpline
 70
8
 71
3
 72
8
 73
4
 74
0
 40
0
 40
0
 40
0
 40
0
 40
1
 40
1
 40
1
 40
1
 10
125.015626
 20
-112.330331
 30
0.0
 10
124.278864
 20
-112.755701
 30
0.0
 10
123.371136
 20
-112.755701
 30
0.0
 10
122.634374
 20
-112.330331
 30
0.0
  0
SPLINE
  5
22e
100
AcDbEntity
  8
0
 62
7
100
AcDbSpline
 70
8
 71
3
 72
8
 73
4
 74
0
 40
0
 40
0
 40
0
 40
0
 40
1
 40
1
 40
1
 40
1
 10
122.634374
 20
-112.330331
 30
0.0
 10
121.897612
 20
-111.904961
 30
0.0
 10
121.443748
 20
-111.118845
 30
0.0
 10
121.443748
 20
-110.268106
 30
0.0
  0
SPLINE
  5
22f
100
AcDbEntity
  8
0
 62
7
100
AcDbSpline
 70
8
 71
3
 72
8
 73
4
 74
0
 40
0
 40
0
 40
0
 40
0
 40
1
 40
1
 40
1
 40
1
 10
121.443748
 20
-110.268106
 30
0.0
 10
121.443748
 20
-109.417366
 30
0.0
 10
121.897612
 20
-108.631250
 30
0.0
 10
122.634374
 20
-108.205880
 30
0.0
  0
SPLINE
  5
230
100
AcDbEntity
  8
0
 62
7
100
AcDbSpline
 70
8
 71
3
 72
8
 73
4
 74
0
 40
0
 40
0
 40
0
 40
0
 40
1
 40
1
 40
1
 40
1
 10
122.634374
 20
-108.205880
 30
0.0
 10
123.371136
 20
-107.780511
 30
0.0
 10
124.278864
 20
-107.780511
 30
0.0
 10
125.015626
 20
-108.205880
 30
0.0
  0
SPLINE
  5
231
100
AcDbEntity
  8
0
 62
7
100
AcDbSpline
 70
8
 71
3
 72
8
 73
4
 74
0
 40
0
 40
0
 40
0
 40
0
 40
1
 40
1
 40
1
 40
1
 10
125.015626
 20
-108.205880
 30
0.0
 10
125.752388
 20
-108.631250
 30
0.0
 10
126.206252
 20
-109.417366
 30
0.0
 10
126.206252
 20
-110.268106
 30
0.0
  0
LWPOLYLINE
  5
232
100
AcDbEntity
  8
0
 62
7
100
AcDbPolyline
 90
1
 70
1
 10
221.456512
 20
-110.268106
 30
0.0
  0
SPLINE
  5
233
100
AcDbEntity
  8
0
 62
7
100
AcDbSpline
 70
8
 71
3
 72
8
 73
4
 74
0
 40
0
 40
0
 40
0
 40
0
 40
1
 40
1
 40
1
 40
1
 10
50.006252
 20
-110.268106
 30
0.0
 10
50.006252
 20
-111.118845
 30
0.0
 10
49.552388
 20
-111.904961
 30
0.0
 10
48.815626
 20
-112.330331
 30
0.0
  0
SPLINE
  5
234
100
AcDbEntity
  8
0
 62
7
100
AcDbSpline
 70
8
 71
3
 72
8
 73
4
 74
0
 40
0
 40
0
 40
0
 40
0
 40
1
 40
1
 40
1
 40
1
 10
48.815626
 20
-112.330331
 30
0.0
 10
48.078864
 20
-112.755701
 30
0.0
 10
47.171136
 20
-112.755701
 30
0.0
 10
46.434374
 20
-112.330331
 30
0.0
  0
SPLINE
  5
235
100
AcDbEntity
  8
0
 62
7
100
AcDbSpline
 70
8
 71
3
 72
8
 73
4
 74
0
 40
0
 40
0
 40
0
 40
0
 40
1
 40
1
 40
1
 40
1
 10
46.434374
 20
-112.330331
 30
0.0
 10
45.697612
 20
-111.904961
 30
0.0
 10
45.243748
 20
-111.118845
 30
0.0
 10
45.243748
 20
-110.268106
 30
0.0
  0
SPLINE
  5
236
100
AcDbEntity
  8
0
 62
7
100
AcDbSpline
 70
8
 71
3
 72
8
 73
4
 74
0
 40
0
 40
0
 40
0
 40
0
 40
1
 40
1
 40
1
 40
1
 10
45.243748
 20
-110.268106
 30
0.0
 10
45.243748
 20
-109.417366
 30
0.0
 10
45.697612
 20
-108.631250
 30
0.0
 10
46.434374
 20
-108.205880
 30
0.0
  0
SPLINE
  5
237
100
AcDbEntity
  8
0
 62
7
100
AcDbSpline
 70
8
 71
3
 72
8
 73
4
 74
0
 40
0
 40
0
 40
0
 40
0
 40
1
 40
1
 40
1
 40
1
 10
46.434374
 20
-108.205880
 30
0.0
 10
47.171136
 20
-107.780511
 30
0.0
 10
48.078864
 20
-107.780511
 30
0.0
 10
48.815626
 20
-108.205880
 30
0.0
  0
SPLINE
  5
238
100
AcDbEntity
  8
0
 62
7
100
AcDbSpline
 70
8
 71
3
 72
8
 73
4
 74
0
 40
0
 40
0
 40
0
 40
0
 40
1
 40
1
 40
1
 40
1
 10
48.815626
 20
-108.205880
 30
0.0
 10
49.552388
 20
-108.631250
 30
0.0
 10
50.006252
 20
-109.417366
 30
0.0
 10
50.006252
 20
-110.268106
 30
0.0
  0
LWPOLYLINE
  5
239
100
AcDbEntity
  8
0
 62
7
100
AcDbPolyline
 90
1
 70
1
 10
126.206252
 20
-110.268106
 30
0.0
  0
SPLINE
  5
23a
100
AcDbEntity
  8
0
 62
7
100
AcDbSpline
 70
8
 71
3
 72
8
 73
4
 74
0
 40
0
 40
0
 40
0
 40
0
 40
1
 40
1
 40
1
 40
1
 10
50.079539
 20
-34.068106
 30
0.0
 10
50.079539
 20
-35.423710
 30
0.0
 10
48.980604
 20
-36.522645
 30
0.0
 10
47.625000
 20
-36.522645
 30
0.0
  0
SPLINE
  5
23b
100
AcDbEntity
  8
0
 62
7
100
AcDbSpline
 70
8
 71
3
 72
8
 73
4
 74
0
 40
0
 40
0
 40
0
 40
0
 40
1
 40
1
 40
1
 40
1
 10
47.625000
 20
-36.522645
 30
0.0
 10
46.269396
 20
-36.522645
 30
0.0
 10
45.170461
 20
-35.423710
 30
0.0
 10
45.170461
 20
-34.068106
 30
0.0
  0
SPLINE
  5
23c
100
AcDbEntity
  8
0
 62
7
100
AcDbSpline
 70
8
 71
3
 72
8
 73
4
 74
0
 40
0
 40
0
 40
0
 40
0
 40
1
 40
1
 40
1
 40
1
 10
45.170461
 20
-34.068106
 30
0.0
 10
45.170461
 20
-32.712501
 30
0.0
 10
46.269396
 20
-31.613567
 30
0.0
 10
47.625000
 20
-31.613567
 30
0.0
  0
SPLINE
  5
23d
100
AcDbEntity
  8
0
 62
7
100
AcDbSpline
 70
8
 71
3
 72
8
 73
4
 74
0
 40
0
 40
0
 40
0
 40
0
 40
1
 40
1
 40
1
 40
1
 10
47.625000
 20
-31.613567
 30
0.0
 10
48.980604
 20
-31.613567
 30
0.0
 10
50.079539
 20
-32.712501
 30
0.0
 10
50.079539
 20
-34.068106
 30
0.0
  0
LWPOLYLINE
  5
23e
100
AcDbEntity
  8
0
 62
7
100
AcDbPolyline
 90
1
 70
1
 10
50.006252
 20
-110.268106
 30
0.0
  0
SPLINE
  5
23f
100
AcDbEntity
  8
0
 62
7
100
AcDbSpline
 70
8
 71
3
 72
8
 73
4
 74
0
 40
0
 40
0
 40
0
 40
0
 40
1
 40
1
 40
1
 40
1
 10
126.206252
 20
-34.068106
 30
0.0
 10
126.206252
 20
-34.918845
 30
0.0
 10
125.752388
 20
-35.704961
 30
0.0
 10
125.015626
 20
-36.130331
 30
0.0
  0
SPLINE
  5
240
100
AcDbEntity
  8
0
 62
7
100
AcDbSpline
 70
8
 71
3
 72
8
 73
4
 74
0
 40
0
 40
0
 40
0
 40
0
 40
1
 40
1
 40
1
 40
1
 10
125.015626
 20
-36.130331
 30
0.0
 10
124.278864
 20
-36.555701
 30
0.0
 10
123.371136
 20
-36.555701
 30
0.0
 10
122.634374
 20
-36.130331
 30
0.0
  0
SPLINE
  5
241
100
AcDbEntity
  8
0
 62
7
100
AcDbSpline
 70
8
 71
3
 72
8
 73
4
 74
0
 40
0
 40
0
 40
0
 40
0
 40
1
 40
1
 40
1
 40
1
 10
122.634374
 20
-36.130331
 30
0.0
 10
121.897612
 20
-35.704961
 30
0.0
 10
121.443748
 20
-34.918845
 30
0.0
 10
121.443748
 20
-34.068106
 30
0.0
  0
SPLINE
  5
242
100
AcDbEntity
  8
0
 62
7
100
AcDbSpline
 70
8
 71
3
 72
8
 73
4
 74
0
 40
0
 40
0
 40
0
 40
0
 40
1
 40
1
 40
1
 40
1
 10
121.443748
 20
-34.068106
 30
0.0
 10
121.443748
 20
-33.217366
 30
0.0
 10
121.897612
 20
-32.431250
 30
0.0
 10
122.634374
 20
-32.005880
 30
0.0
  0
SPLINE
  5
243
100
AcDbEntity
  8
0
 62
7
100
AcDbSpline
 70
8
 71
3
 72
8
 73
4
 74
0
 40
0
 40
0
 40
0
 40
0
 40
1
 40
1
 40
1
 40
1
 10
122.634374
 20
-32.005880
 30
0.0
 10
123.371136
 20
-31.580511
 30
0.0
 10
124.278864
 20
-31.580511
 30
0.0
 10
125.015626
 20
-32.005880
 30
0.0
  0
SPLINE
  5
244
100
AcDbEntity
  8
0
 62
7
100
AcDbSpline
 70
8
 71
3
 72
8
 73
4
 74
0
 40
0
 40
0
 40
0
 40
0
 40
1
 40
1
 40
1
 40
1
 10
125.015626
 20
-32.005880
 30
0.0
 10
125.752388
 20
-32.431250
 30
0.0
 10
126.206252
 20
-33.217366
 30
0.0
 10
126.206252
 20
-34.068106
 30
0.0
  0
LWPOLYLINE
  5
245
100
AcDbEntity
  8
0
 62
7
100
AcDbPolyline
 90
1
 70
1
 10
50.079539
 20
-34.068106
 30
0.0
  0
SPLINE
  5
246
100
AcDbEntity
  8
0
 62
7
100
AcDbSpline
 70
8
 71
3
 72
8
 73
4
 74
0
 40
0
 40
0
 40
0
 40
0
 40
1
 40
1
 40
1
 40
1
 10
221.529798
 20
-34.068106
 30
0.0
 10
221.529798
 20
-34.945028
 30
0.0
 10
221.061966
 20
-35.755338
 30
0.0
 10
220.302529
 20
-36.193799
 30
0.0
  0
SPLINE
  5
247
100
AcDbEntity
  8
0
 62
7
100
AcDbSpline
 70
8
 71
3
 72
8
 73
4
 74
0
 40
0
 40
0
 40
0
 40
0
 40
1
 40
1
 40
1
 40
1
 10
220.302529
 20
-36.193799
 30
0.0
 10
219.543092
 20
-36.632260
 30
0.0
 10
218.607427
 20
-36.632260
 30
0.0
 10
217.847990
 20
-36.193799
 30
0.0
  0
SPLINE
  5
248
100
AcDbEntity
  8
0
 62
7
100
AcDbSpline
 70
8
 71
3
 72
8
 73
4
 74
0
 40
0
 40
0
 40
0
 40
0
 40
1
 40
1
 40
1
 40
1
 10
217.847990
 20
-36.193799
 30
0.0
 10
217.088552
 20
-35.755338
 30
0.0
 10
216.620720
 20
-34.945028
 30
0.0
 10
216.620720
 20
-34.068106
 30
0.0
  0
SPLINE
  5
249
100
AcDbEntity
  8
0
 62
7
100
AcDbSpline
 70
8
 71
3
 72
8
 73
4
 74
0
 40
0
 40
0
 40
0
 40
0
 40
1
 40
1
 40
1
 40
1
 10
216.620720
 20
-34.068106
 30
0.0
 10
216.620720
 20
-32.712501
 30
0.0
 10
217.719655
 20
-31.613567
 30
0.0
 10
219.075259
 20
-31.613567
 30
0.0
  0
SPLINE
  5
24a
100
AcDbEntity
  8
0
 62
7
100
AcDbSpline
 70
8
 71
3
 72
8
 73
4
 74
0
 40
0
 40
0
 40
0
 40
0
 40
1
 40
1
 40
1
 40
1
 10
219.075259
 20
-31.613567
 30
0.0
 10
220.430864
 20
-31.613567
 30
0.0
 10
221.529798
 20
-32.712501
 30
0.0
 10
221.529798
 20
-34.068106
 30
0.0
  0
LWPOLYLINE
  5
24b
100
AcDbEntity
  8
0
 62
7
100
AcDbPolyline
 90
1
 70
1
 10
126.206252
 20
-34.068106
 30
0.0
  0
SPLINE
  5
24c
100
AcDbEntity
  8
0
 62
7
100
AcDbSpline
 70
8
 71
3
 72
8
 73
4
 74
0
 40
0
 40
0
 40
0
 40
0
 40
1
 40
1
 40
1
 40
1
 10
297.656252
 20
-34.068106
 30
0.0
 10
297.656252
 20
-35.383235
 30
0.0
 10
296.590129
 20
-36.449358
 30
0.0
 10
295.275000
 20
-36.449358
 30
0.0
  0
SPLINE
  5
24d
100
AcDbEntity
  8
0
 62
7
100
AcDbSpline
 70
8
 71
3
 72
8
 73
4
 74
0
 40
0
 40
0
 40
0
 40
0
 40
1
 40
1
 40
1
 40
1
 10
295.275000
 20
-36.449358
 30
0.0
 10
293.959871
 20
-36.449358
 30
0.0
 10
292.893748
 20
-35.383235
 30
0.0
 10
292.893748
 20
-34.068106
 30
0.0
  0
SPLINE
  5
24e
100
AcDbEntity
  8
0
 62
7
100
AcDbSpline
 70
8
 71
3
 72
8
 73
4
 74
0
 40
0
 40
0
 40
0
 40
0
 40
1
 40
1
 40
1
 40
1
 10
292.893748
 20
-34.068106
 30
0.0
 10
292.893748
 20
-33.217366
 30
0.0
 10
293.347612
 20
-32.431250
 30
0.0
 10
294.084374
 20
-32.005880
 30
0.0
  0
SPLINE
  5
24f
100
AcDbEntity
  8
0
 62
7
100
AcDbSpline
 70
8
 71
3
 72
8
 73
4
 74
0
 40
0
 40
0
 40
0
 40
0
 40
1
 40
1
 40
1
 40
1
 10
294.084374
 20
-32.005880
 30
0.0
 10
294.821136
 20
-31.580511
 30
0.0
 10
295.728864
 20
-31.580511
 30
0.0
 10
296.465626
 20
-32.005880
 30
0.0
  0
SPLINE
  5
250
100
AcDbEntity
  8
0
 62
7
100
AcDbSpline
 70
8
 71
3
 72
8
 73
4
 74
0
 40
0
 40
0
 40
0
 40
0
 40
1
 40
1
 40
1
 40
1
 10
296.465626
 20
-32.005880
 30
0.0
 10
297.202388
 20
-32.431250
 30
0.0
 10
297.656252
 20
-33.217366
 30
0.0
 10
297.656252
 20
-34.068106
 30
0.0
  0
LWPOLYLINE
  5
251
100
AcDbEntity
  8
0
 62
7
100
AcDbPolyline
 90
1
 70
1
 10
221.529798
 20
-34.068106
 30
0.0
  0
LWPOLYLINE
  5
252
100
AcDbEntity
  8
0
 62
7
100
AcDbPolyline
 90
1
 70
1
 10
297.656252
 20
-34.068106
 30
0.0
  0
LWPOLYLINE
  5
253
100
AcDbEntity
  8
0
 62
7
100
AcDbPolyline
 90
2
 70
0
 10
28.575000
 20
-296.005606
 30
0.0
 10
28.575000
 20
-19.780606
 30
0.0
  0
LWPOLYLINE
  5
254
100
AcDbEntity
  8
0
 62
7
100
AcDbPolyline
 90
2
 70
0
 10
309.562500
 20
-300.768106
 30
0.0
 10
33.337500
 20
-300.768106
 30
0.0
  0
LWPOLYLINE
  5
255
100
AcDbEntity
  8
0
 62
7
100
AcDbPolyline
 90
2
 70
0
 10
314.325000
 20
-19.780606
 30
0.0
 10
314.325000
 20
-296.005606
 30
0.0
  0
SPLINE
  5
256
100
AcDbEntity
  8
0
 62
7
100
AcDbSpline
 70
8
 71
3
 72
8
 73
4
 74
0
 40
0
 40
0
 40
0
 40
0
 40
1
 40
1
 40
1
 40
1
 10
33.337500
 20
-15.018106
 30
0.0
 10
32.074406
 20
-15.018106
 30
0.0
 10
30.863046
 20
-15.519868
 30
0.0
 10
29.969904
 20
-16.413010
 30
0.0
  0
SPLINE
  5
257
100
AcDbEntity
  8
0
 62
7
100
AcDbSpline
 70
8
 71
3
 72
8
 73
4
 74
0
 40
0
 40
0
 40
0
 40
0
 40
1
 40
1
 40
1
 40
1
 10
29.969904
 20
-16.413010
 30
0.0
 10
29.076762
 20
-17.306152
 30
0.0
 10
28.575000
 20
-18.517512
 30
0.0
 10
28.575000
 20
-19.780606
 30
0.0
  0
SPLINE
  5
258
100
AcDbEntity
  8
0
 62
7
100
AcDbSpline
 70
8
 71
3
 72
8
 73
4
 74
0
 40
0
 40
0
 40
0
 40
0
 40
1
 40
1
 40
1
 40
1
 10
28.575000
 20
-296.005606
 30
0.0
 10
28.575000
 20
-297.268699
 30
0.0
 10
29.076762
 20
-298.480060
 30
0.0
 10
29.969904
 20
-299.373202
 30
0.0
  0
SPLINE
  5
259
100
AcDbEntity
  8
0
 62
7
100
AcDbSpline
 70
8
 71
3
 72
8
 73
4
 74
0
 40
0
 40
0
 40
0
 40
0
 40
1
 40
1
 40
1
 40
1
 10
29.969904
 20
-299.373202
 30
0.0
 10
30.863046
 20
-300.266344
 30
0.0
 10
32.074406
 20
-300.768106
 30
0.0
 10
33.337500
 20
-300.768106
 30
0.0
  0
SPLINE
  5
25a
100
AcDbEntity
  8
0
 62
7
100
AcDbSpline
 70
8
 71
3
 72
8
 73
4
 74
0
 40
0
 40
0
 40
0
 40
0
 40
1
 40
1
 40
1
 40
1
 10
309.562500
 20
-300.768106
 30
0.0
 10
310.825594
 20
-300.768106
 30
0.0
 10
312.036954
 20
-300.266344
 30
0.0
 10
312.930096
 20
-299.373202
 30
0.0
  0
SPLINE
  5
25b
100
AcDbEntity
  8
0
 62
7
100
AcDbSpline
 70
8
 71
3
 72
8
 73
4
 74
0
 40
0
 40
0
 40
0
 40
0
 40
1
 40
1
 40
1
 40
1
 10
312.930096
 20
-299.373202
 30
0.0
 10
313.823238
 20
-298.480060
 30
0.0
 10
314.325000
 20
-297.268699
 30
0.0
 10
314.325000
 20
-296.005606
 30
0.0
  0
SPLINE
  5
25c
100
AcDbEntity
  8
0
 62
7
100
AcDbSpline
 70
8
 71
3
 72
8
 73
4
 74
0
 40
0
 40
0
 40
0
 40
0
 40
1
 40
1
 40
1
 40
1
 10
314.325000
 20
-19.780606
 30
0.0
 10
314.325000
 20
-18.517512
 30
0.0
 10
313.823238
 20
-17.306152
 30
0.0
 10
312.930096
 20
-16.413010
 30
0.0
  0
SPLINE
  5
25d
100
AcDbEntity
  8
0
 62
7
100
AcDbSpline
 70
8
 71
3
 72
8
 73
4
 74
0
 40
0
 40
0
 40
0
 40
0
 40
1
 40
1
 40
1
 40
1
 10
312.930096
 20
-16.413010
 30
0.0
 10
312.036954
 20
-15.519868
 30
0.0
 10
310.825594
 20
-15.018106
 30
0.0
 10
309.562500
 20
-15.018106
 30
0.0
  0
LWPOLYLINE
  5
25e
100
AcDbEntity
  8
0
 62
7
100
AcDbPolyline
 90
2
 70
0
 10
33.337500
 20
-15.018106
 30
0.0
 10
309.562500
 20
-15.018106
 30
0.0
  0
ENDSEC
  0
SECTION
  2
OBJECTS
  0
DICTIONARY
  5
C
330
0
100
AcDbDictionary
  3
ACAD_GROUP
350
D
  3
ACAD_MLINESTYLE
350
17
  0
DICTIONARY
  5
D
330
C
100
AcDbDictionary
  0
DICTIONARY
  5
1A
330
C
100
AcDbDictionary
  0
DICTIONARY
  5
17
330
C
100
AcDbDictionary
  3
STANDARD
350
18
  0
DICTIONARY
  5
19
330
C
100
AcDbDictionary
  0
ENDSEC
  0
EOF
