  0
SECTION
  2
HEADER
  9
$ANGBASE
  50
0.0
  9
$ANGDIR
  70
1
  9
$MEASUREMENT
  70
0
  0
ENDSEC
  0
SECTION
  2
TABLES
  0
TABLE
  2
LTYPE
  70
4
  0
LTYPE
  5
40F
  2
CONTINUOUS
  70
0
  3
Solid line
  72
65
  73
0
  40
0.0
  0
LTYPE
  5
410
  2
DASHDOT
 70
0
  3
Dash Dot ____ _ ____ _
 72
65
 73
4
 40
2.0
 49
1.25
 49
-0.25
 49
0.25
 49
-0.25
  0
LTYPE
  5
411
  2
DASHED
 70
0
  3
Dashed __ __ __ __ __
 72
65
 73
2
 40
0.75
 49
0.5
 49
-0.25
  0
LTYPE
  5
43B
  2
DOTTED
 70
0
  3
Dotted .  .  .  .
 72
65
 73
2
 40
0.2
 49
0.0
 49
-0.2
  0
ENDTAB
  0
TABLE
  2
STYLE
  70
4
  0
STYLE
  2
KICAD
  70
0
  40
0
  41
1
  42
1
  50
0
  71
0
  3
isocp.shx
  0
STYLE
  2
KICADB
  70
0
  40
0
  41
1
  42
1
  50
0
  71
0
  3
isocp.shx
  0
STYLE
  2
KICADI
  70
0
  40
0
  41
1
  42
1
  50
15
  71
0
  3
isocp.shx
  0
STYLE
  2
KICADBI
  70
0
  40
0
  41
1
  42
1
  50
15
  71
0
  3
isocp.shx
  0
ENDTAB
  0
TABLE
  2
LAYER
  70
1
  0
LAYER
  2
BLACK
  70
0
  62
7
  6
CONTINUOUS
  0
ENDTAB
  0
ENDSEC
  0
SECTION
  2
ENTITIES
0
LINE
8
BLACK
6
CONTINUOUS
10
12.1878
20
-0.74706
11
12.2219
21
-0.750199
0
LINE
8
BLACK
6
CONTINUOUS
10
12.2219
20
-0.750199
11
12.222
21
-0.750207
0
LINE
8
BLACK
6
CONTINUOUS
10
12.222
20
-0.750207
11
12.2222
21
-0.750256
0
LINE
8
BLACK
6
CONTINUOUS
10
12.2222
20
-0.750256
11
12.2225
21
-0.750298
0
LINE
8
BLACK
6
CONTINUOUS
10
12.2225
20
-0.750298
11
12.2555
21
-0.759612
0
LINE
8
BLACK
6
CONTINUOUS
10
12.2555
20
-0.759612
11
12.2556
21
-0.759634
0
LINE
8
BLACK
6
CONTINUOUS
10
12.2556
20
-0.759634
11
12.2558
21
-0.759722
0
LINE
8
BLACK
6
CONTINUOUS
10
12.2558
20
-0.759722
11
12.256
21
-0.759805
0
LINE
8
BLACK
6
CONTINUOUS
10
12.256
20
-0.759805
11
12.2868
21
-0.774982
0
LINE
8
BLACK
6
CONTINUOUS
10
12.2868
20
-0.774982
11
12.2868
21
-0.774982
0
LINE
8
BLACK
6
CONTINUOUS
10
12.2868
20
-0.774982
11
12.2868
21
-0.774982
0
LINE
8
BLACK
6
CONTINUOUS
10
12.2868
20
-0.774982
11
12.2868
21
-0.775017
0
LINE
8
BLACK
6
CONTINUOUS
10
12.2868
20
-0.775017
11
12.287
21
-0.775143
0
LINE
8
BLACK
6
CONTINUOUS
10
12.287
20
-0.775143
11
12.2872
21
-0.775264
0
LINE
8
BLACK
6
CONTINUOUS
10
12.2872
20
-0.775264
11
12.3147
21
-0.795794
0
LINE
8
BLACK
6
CONTINUOUS
10
12.3147
20
-0.795794
11
12.3148
21
-0.795841
0
LINE
8
BLACK
6
CONTINUOUS
10
12.3148
20
-0.795841
11
12.315
21
-0.796001
0
LINE
8
BLACK
6
CONTINUOUS
10
12.315
20
-0.796001
11
12.3151
21
-0.796156
0
LINE
8
BLACK
6
CONTINUOUS
10
12.3151
20
-0.796156
11
12.3384
21
-0.821353
0
LINE
8
BLACK
6
CONTINUOUS
10
12.3384
20
-0.821353
11
12.3385
21
-0.82141
0
LINE
8
BLACK
6
CONTINUOUS
10
12.3385
20
-0.82141
11
12.3386
21
-0.821597
0
LINE
8
BLACK
6
CONTINUOUS
10
12.3386
20
-0.821597
11
12.3388
21
-0.821782
0
LINE
8
BLACK
6
CONTINUOUS
10
12.3388
20
-0.821782
11
12.3571
21
-0.850801
0
LINE
8
BLACK
6
CONTINUOUS
10
12.3571
20
-0.850801
11
12.3571
21
-0.850867
0
LINE
8
BLACK
6
CONTINUOUS
10
12.3571
20
-0.850867
11
12.3572
21
-0.851076
0
LINE
8
BLACK
6
CONTINUOUS
10
12.3572
20
-0.851076
11
12.3573
21
-0.851283
0
LINE
8
BLACK
6
CONTINUOUS
10
12.3573
20
-0.851283
11
12.37
21
-0.883153
0
LINE
8
BLACK
6
CONTINUOUS
10
12.37
20
-0.883153
11
12.37
21
-0.883225
0
LINE
8
BLACK
6
CONTINUOUS
10
12.37
20
-0.883225
11
12.3701
21
-0.883448
0
LINE
8
BLACK
6
CONTINUOUS
10
12.3701
20
-0.883448
11
12.3702
21
-0.883671
0
LINE
8
BLACK
6
CONTINUOUS
10
12.3702
20
-0.883671
11
12.3769
21
-0.917325
0
LINE
8
BLACK
6
CONTINUOUS
10
12.3769
20
-0.917325
11
12.3769
21
-0.917401
0
LINE
8
BLACK
6
CONTINUOUS
10
12.3769
20
-0.917401
11
12.3769
21
-0.917574
0
LINE
8
BLACK
6
CONTINUOUS
10
12.3769
20
-0.917574
11
12.3769
21
-0.917746
0
LINE
8
BLACK
6
CONTINUOUS
10
12.3769
20
-0.917746
11
12.3779
21
-0.937279
0
LINE
8
BLACK
6
CONTINUOUS
10
12.3779
20
-0.937279
11
12.378
21
-0.937355
0
LINE
8
BLACK
6
CONTINUOUS
10
12.378
20
-0.937355
11
12.378
21
-11.8126
0
LINE
8
BLACK
6
CONTINUOUS
10
12.378
20
-11.8126
11
12.3779
21
-11.8128
0
LINE
8
BLACK
6
CONTINUOUS
10
12.3779
20
-11.8128
11
12.3748
21
-11.8469
0
LINE
8
BLACK
6
CONTINUOUS
10
12.3748
20
-11.8469
11
12.3748
21
-11.847
0
LINE
8
BLACK
6
CONTINUOUS
10
12.3748
20
-11.847
11
12.3747
21
-11.8472
0
LINE
8
BLACK
6
CONTINUOUS
10
12.3747
20
-11.8472
11
12.3747
21
-11.8475
0
LINE
8
BLACK
6
CONTINUOUS
10
12.3747
20
-11.8475
11
12.3654
21
-11.8805
0
LINE
8
BLACK
6
CONTINUOUS
10
12.3654
20
-11.8805
11
12.3654
21
-11.8806
0
LINE
8
BLACK
6
CONTINUOUS
10
12.3654
20
-11.8806
11
12.3653
21
-11.8808
0
LINE
8
BLACK
6
CONTINUOUS
10
12.3653
20
-11.8808
11
12.3652
21
-11.881
0
LINE
8
BLACK
6
CONTINUOUS
10
12.3652
20
-11.881
11
12.35
21
-11.9118
0
LINE
8
BLACK
6
CONTINUOUS
10
12.35
20
-11.9118
11
12.35
21
-11.9118
0
LINE
8
BLACK
6
CONTINUOUS
10
12.35
20
-11.9118
11
12.35
21
-11.9118
0
LINE
8
BLACK
6
CONTINUOUS
10
12.35
20
-11.9118
11
12.35
21
-11.9118
0
LINE
8
BLACK
6
CONTINUOUS
10
12.35
20
-11.9118
11
12.3499
21
-11.912
0
LINE
8
BLACK
6
CONTINUOUS
10
12.3499
20
-11.912
11
12.3497
21
-11.9122
0
LINE
8
BLACK
6
CONTINUOUS
10
12.3497
20
-11.9122
11
12.3292
21
-11.9397
0
LINE
8
BLACK
6
CONTINUOUS
10
12.3292
20
-11.9397
11
12.3292
21
-11.9398
0
LINE
8
BLACK
6
CONTINUOUS
10
12.3292
20
-11.9398
11
12.329
21
-11.94
0
LINE
8
BLACK
6
CONTINUOUS
10
12.329
20
-11.94
11
12.3288
21
-11.9401
0
LINE
8
BLACK
6
CONTINUOUS
10
12.3288
20
-11.9401
11
12.3036
21
-11.9634
0
LINE
8
BLACK
6
CONTINUOUS
10
12.3036
20
-11.9634
11
12.3036
21
-11.9635
0
LINE
8
BLACK
6
CONTINUOUS
10
12.3036
20
-11.9635
11
12.3034
21
-11.9636
0
LINE
8
BLACK
6
CONTINUOUS
10
12.3034
20
-11.9636
11
12.3032
21
-11.9638
0
LINE
8
BLACK
6
CONTINUOUS
10
12.3032
20
-11.9638
11
12.2742
21
-11.9821
0
LINE
8
BLACK
6
CONTINUOUS
10
12.2742
20
-11.9821
11
12.2741
21
-11.9821
0
LINE
8
BLACK
6
CONTINUOUS
10
12.2741
20
-11.9821
11
12.2739
21
-11.9822
0
LINE
8
BLACK
6
CONTINUOUS
10
12.2739
20
-11.9822
11
12.2737
21
-11.9823
0
LINE
8
BLACK
6
CONTINUOUS
10
12.2737
20
-11.9823
11
12.2418
21
-11.995
0
LINE
8
BLACK
6
CONTINUOUS
10
12.2418
20
-11.995
11
12.2418
21
-11.995
0
LINE
8
BLACK
6
CONTINUOUS
10
12.2418
20
-11.995
11
12.2416
21
-11.9951
0
LINE
8
BLACK
6
CONTINUOUS
10
12.2416
20
-11.9951
11
12.2413
21
-11.9952
0
LINE
8
BLACK
6
CONTINUOUS
10
12.2413
20
-11.9952
11
12.2077
21
-12.0019
0
LINE
8
BLACK
6
CONTINUOUS
10
12.2077
20
-12.0019
11
12.2076
21
-12.0019
0
LINE
8
BLACK
6
CONTINUOUS
10
12.2076
20
-12.0019
11
12.2074
21
-12.0019
0
LINE
8
BLACK
6
CONTINUOUS
10
12.2074
20
-12.0019
11
12.2073
21
-12.0019
0
LINE
8
BLACK
6
CONTINUOUS
10
12.2073
20
-12.0019
11
12.1877
21
-12.0029
0
LINE
8
BLACK
6
CONTINUOUS
10
12.1877
20
-12.0029
11
12.1876
21
-12.003
0
LINE
8
BLACK
6
CONTINUOUS
10
12.1876
20
-12.003
11
1.31236
21
-12.003
0
LINE
8
BLACK
6
CONTINUOUS
10
1.31236
20
-12.003
11
1.31222
21
-12.0029
0
LINE
8
BLACK
6
CONTINUOUS
10
1.31222
20
-12.0029
11
1.27806
21
-11.9998
0
LINE
8
BLACK
6
CONTINUOUS
10
1.27806
20
-11.9998
11
1.27798
21
-11.9998
0
LINE
8
BLACK
6
CONTINUOUS
10
1.27798
20
-11.9998
11
1.27776
21
-11.9997
0
LINE
8
BLACK
6
CONTINUOUS
10
1.27776
20
-11.9997
11
1.27753
21
-11.9997
0
LINE
8
BLACK
6
CONTINUOUS
10
1.27753
20
-11.9997
11
1.2445
21
-11.9904
0
LINE
8
BLACK
6
CONTINUOUS
10
1.2445
20
-11.9904
11
1.24443
21
-11.9904
0
LINE
8
BLACK
6
CONTINUOUS
10
1.24443
20
-11.9904
11
1.24422
21
-11.9903
0
LINE
8
BLACK
6
CONTINUOUS
10
1.24422
20
-11.9903
11
1.244
21
-11.9902
0
LINE
8
BLACK
6
CONTINUOUS
10
1.244
20
-11.9902
11
1.21323
21
-11.975
0
LINE
8
BLACK
6
CONTINUOUS
10
1.21323
20
-11.975
11
1.21323
21
-11.975
0
LINE
8
BLACK
6
CONTINUOUS
10
1.21323
20
-11.975
11
1.21323
21
-11.975
0
LINE
8
BLACK
6
CONTINUOUS
10
1.21323
20
-11.975
11
1.21316
21
-11.975
0
LINE
8
BLACK
6
CONTINUOUS
10
1.21316
20
-11.975
11
1.21296
21
-11.9749
0
LINE
8
BLACK
6
CONTINUOUS
10
1.21296
20
-11.9749
11
1.21276
21
-11.9747
0
LINE
8
BLACK
6
CONTINUOUS
10
1.21276
20
-11.9747
11
1.18527
21
-11.9542
0
LINE
8
BLACK
6
CONTINUOUS
10
1.18527
20
-11.9542
11
1.18521
21
-11.9542
0
LINE
8
BLACK
6
CONTINUOUS
10
1.18521
20
-11.9542
11
1.18504
21
-11.954
0
LINE
8
BLACK
6
CONTINUOUS
10
1.18504
20
-11.954
11
1.18487
21
-11.9538
0
LINE
8
BLACK
6
CONTINUOUS
10
1.18487
20
-11.9538
11
1.16158
21
-11.9286
0
LINE
8
BLACK
6
CONTINUOUS
10
1.16158
20
-11.9286
11
1.16153
21
-11.9286
0
LINE
8
BLACK
6
CONTINUOUS
10
1.16153
20
-11.9286
11
1.16139
21
-11.9284
0
LINE
8
BLACK
6
CONTINUOUS
10
1.16139
20
-11.9284
11
1.16125
21
-11.9282
0
LINE
8
BLACK
6
CONTINUOUS
10
1.16125
20
-11.9282
11
1.14294
21
-11.8992
0
LINE
8
BLACK
6
CONTINUOUS
10
1.14294
20
-11.8992
11
1.1429
21
-11.8991
0
LINE
8
BLACK
6
CONTINUOUS
10
1.1429
20
-11.8991
11
1.1428
21
-11.8989
0
LINE
8
BLACK
6
CONTINUOUS
10
1.1428
20
-11.8989
11
1.14269
21
-11.8987
0
LINE
8
BLACK
6
CONTINUOUS
10
1.14269
20
-11.8987
11
1.12998
21
-11.8668
0
LINE
8
BLACK
6
CONTINUOUS
10
1.12998
20
-11.8668
11
1.12995
21
-11.8668
0
LINE
8
BLACK
6
CONTINUOUS
10
1.12995
20
-11.8668
11
1.12989
21
-11.8666
0
LINE
8
BLACK
6
CONTINUOUS
10
1.12989
20
-11.8666
11
1.12983
21
-11.8663
0
LINE
8
BLACK
6
CONTINUOUS
10
1.12983
20
-11.8663
11
1.12313
21
-11.8327
0
LINE
8
BLACK
6
CONTINUOUS
10
1.12313
20
-11.8327
11
1.12312
21
-11.8326
0
LINE
8
BLACK
6
CONTINUOUS
10
1.12312
20
-11.8326
11
1.1231
21
-11.8324
0
LINE
8
BLACK
6
CONTINUOUS
10
1.1231
20
-11.8324
11
1.12308
21
-11.8323
0
LINE
8
BLACK
6
CONTINUOUS
10
1.12308
20
-11.8323
11
1.12205
21
-11.8127
0
LINE
8
BLACK
6
CONTINUOUS
10
1.12205
20
-11.8127
11
1.12205
21
-11.8126
0
LINE
8
BLACK
6
CONTINUOUS
10
1.12205
20
-11.8126
11
1.12205
21
-0.937355
0
LINE
8
BLACK
6
CONTINUOUS
10
1.12205
20
-0.937355
11
1.12206
21
-0.93723
0
LINE
8
BLACK
6
CONTINUOUS
10
1.12206
20
-0.93723
11
1.1252
21
-0.903061
0
LINE
8
BLACK
6
CONTINUOUS
10
1.1252
20
-0.903061
11
1.12521
21
-0.902984
0
LINE
8
BLACK
6
CONTINUOUS
10
1.12521
20
-0.902984
11
1.12526
21
-0.902757
0
LINE
8
BLACK
6
CONTINUOUS
10
1.12526
20
-0.902757
11
1.1253
21
-0.902529
0
LINE
8
BLACK
6
CONTINUOUS
10
1.1253
20
-0.902529
11
1.13461
21
-0.869505
0
LINE
8
BLACK
6
CONTINUOUS
10
1.13461
20
-0.869505
11
1.13463
21
-0.86943
0
LINE
8
BLACK
6
CONTINUOUS
10
1.13463
20
-0.86943
11
1.13472
21
-0.869217
0
LINE
8
BLACK
6
CONTINUOUS
10
1.13472
20
-0.869217
11
1.13481
21
-0.869
0
LINE
8
BLACK
6
CONTINUOUS
10
1.13481
20
-0.869
11
1.14998
21
-0.838226
0
LINE
8
BLACK
6
CONTINUOUS
10
1.14998
20
-0.838226
11
1.14998
21
-0.838226
0
LINE
8
BLACK
6
CONTINUOUS
10
1.14998
20
-0.838226
11
1.14998
21
-0.838225
0
LINE
8
BLACK
6
CONTINUOUS
10
1.14998
20
-0.838225
11
1.15002
21
-0.838157
0
LINE
8
BLACK
6
CONTINUOUS
10
1.15002
20
-0.838157
11
1.15014
21
-0.837962
0
LINE
8
BLACK
6
CONTINUOUS
10
1.15014
20
-0.837962
11
1.15026
21
-0.837765
0
LINE
8
BLACK
6
CONTINUOUS
10
1.15026
20
-0.837765
11
1.17079
21
-0.810271
0
LINE
8
BLACK
6
CONTINUOUS
10
1.17079
20
-0.810271
11
1.17084
21
-0.81021
0
LINE
8
BLACK
6
CONTINUOUS
10
1.17084
20
-0.81021
11
1.171
21
-0.810042
0
LINE
8
BLACK
6
CONTINUOUS
10
1.171
20
-0.810042
11
1.17116
21
-0.80987
0
LINE
8
BLACK
6
CONTINUOUS
10
1.17116
20
-0.80987
11
1.19635
21
-0.786578
0
LINE
8
BLACK
6
CONTINUOUS
10
1.19635
20
-0.786578
11
1.19641
21
-0.786526
0
LINE
8
BLACK
6
CONTINUOUS
10
1.19641
20
-0.786526
11
1.1966
21
-0.786391
0
LINE
8
BLACK
6
CONTINUOUS
10
1.1966
20
-0.786391
11
1.19678
21
-0.786249
0
LINE
8
BLACK
6
CONTINUOUS
10
1.19678
20
-0.786249
11
1.2258
21
-0.767939
0
LINE
8
BLACK
6
CONTINUOUS
10
1.2258
20
-0.767939
11
1.22587
21
-0.767899
0
LINE
8
BLACK
6
CONTINUOUS
10
1.22587
20
-0.767899
11
1.22608
21
-0.767799
0
LINE
8
BLACK
6
CONTINUOUS
10
1.22608
20
-0.767799
11
1.22628
21
-0.767694
0
LINE
8
BLACK
6
CONTINUOUS
10
1.22628
20
-0.767694
11
1.25815
21
-0.754979
0
LINE
8
BLACK
6
CONTINUOUS
10
1.25815
20
-0.754979
11
1.25823
21
-0.754951
0
LINE
8
BLACK
6
CONTINUOUS
10
1.25823
20
-0.754951
11
1.25845
21
-0.754891
0
LINE
8
BLACK
6
CONTINUOUS
10
1.25845
20
-0.754891
11
1.25867
21
-0.754825
0
LINE
8
BLACK
6
CONTINUOUS
10
1.25867
20
-0.754825
11
1.29232
21
-0.748131
0
LINE
8
BLACK
6
CONTINUOUS
10
1.29232
20
-0.748131
11
1.2924
21
-0.748117
0
LINE
8
BLACK
6
CONTINUOUS
10
1.2924
20
-0.748117
11
1.29257
21
-0.748103
0
LINE
8
BLACK
6
CONTINUOUS
10
1.29257
20
-0.748103
11
1.29275
21
-0.748078
0
LINE
8
BLACK
6
CONTINUOUS
10
1.29275
20
-0.748078
11
1.31228
21
-0.747055
0
LINE
8
BLACK
6
CONTINUOUS
10
1.31228
20
-0.747055
11
1.31236
21
-0.747047
0
LINE
8
BLACK
6
CONTINUOUS
10
1.31236
20
-0.747047
11
12.1876
21
-0.747047
0
LINE
8
BLACK
6
CONTINUOUS
10
12.1876
20
-0.747047
11
12.1878
21
-0.74706
0
LINE
8
BLACK
6
CONTINUOUS
10
1.31258
20
-0.752953
11
1.29327
21
-0.753965
0
LINE
8
BLACK
6
CONTINUOUS
10
1.29327
20
-0.753965
11
1.26009
21
-0.760564
0
LINE
8
BLACK
6
CONTINUOUS
10
1.26009
20
-0.760564
11
1.22872
21
-0.773078
0
LINE
8
BLACK
6
CONTINUOUS
10
1.22872
20
-0.773078
11
1.20016
21
-0.791099
0
LINE
8
BLACK
6
CONTINUOUS
10
1.20016
20
-0.791099
11
1.17536
21
-0.814022
0
LINE
8
BLACK
6
CONTINUOUS
10
1.17536
20
-0.814022
11
1.15516
21
-0.841081
0
LINE
8
BLACK
6
CONTINUOUS
10
1.15516
20
-0.841081
11
1.14022
21
-0.871369
0
LINE
8
BLACK
6
CONTINUOUS
10
1.14022
20
-0.871369
11
1.13106
21
-0.903871
0
LINE
8
BLACK
6
CONTINUOUS
10
1.13106
20
-0.903871
11
1.12795
21
-0.937635
0
LINE
8
BLACK
6
CONTINUOUS
10
1.12795
20
-0.937635
11
1.12795
21
-11.8124
0
LINE
8
BLACK
6
CONTINUOUS
10
1.12795
20
-11.8124
11
1.12896
21
-11.8317
0
LINE
8
BLACK
6
CONTINUOUS
10
1.12896
20
-11.8317
11
1.13556
21
-11.8649
0
LINE
8
BLACK
6
CONTINUOUS
10
1.13556
20
-11.8649
11
1.14808
21
-11.8963
0
LINE
8
BLACK
6
CONTINUOUS
10
1.14808
20
-11.8963
11
1.1661
21
-11.9248
0
LINE
8
BLACK
6
CONTINUOUS
10
1.1661
20
-11.9248
11
1.18902
21
-11.9496
0
LINE
8
BLACK
6
CONTINUOUS
10
1.18902
20
-11.9496
11
1.21608
21
-11.9698
0
LINE
8
BLACK
6
CONTINUOUS
10
1.21608
20
-11.9698
11
1.24637
21
-11.9848
0
LINE
8
BLACK
6
CONTINUOUS
10
1.24637
20
-11.9848
11
1.27887
21
-11.9939
0
LINE
8
BLACK
6
CONTINUOUS
10
1.27887
20
-11.9939
11
1.31264
21
-11.997
0
LINE
8
BLACK
6
CONTINUOUS
10
1.31264
20
-11.997
11
12.1874
21
-11.997
0
LINE
8
BLACK
6
CONTINUOUS
10
12.1874
20
-11.997
11
12.2067
21
-11.996
0
LINE
8
BLACK
6
CONTINUOUS
10
12.2067
20
-11.996
11
12.2399
21
-11.9894
0
LINE
8
BLACK
6
CONTINUOUS
10
12.2399
20
-11.9894
11
12.2713
21
-11.9769
0
LINE
8
BLACK
6
CONTINUOUS
10
12.2713
20
-11.9769
11
12.2998
21
-11.9589
0
LINE
8
BLACK
6
CONTINUOUS
10
12.2998
20
-11.9589
11
12.3246
21
-11.936
0
LINE
8
BLACK
6
CONTINUOUS
10
12.3246
20
-11.936
11
12.3448
21
-11.9089
0
LINE
8
BLACK
6
CONTINUOUS
10
12.3448
20
-11.9089
11
12.3598
21
-11.8786
0
LINE
8
BLACK
6
CONTINUOUS
10
12.3598
20
-11.8786
11
12.3689
21
-11.8461
0
LINE
8
BLACK
6
CONTINUOUS
10
12.3689
20
-11.8461
11
12.372
21
-11.8124
0
LINE
8
BLACK
6
CONTINUOUS
10
12.372
20
-11.8124
11
12.372
21
-0.937577
0
LINE
8
BLACK
6
CONTINUOUS
10
12.372
20
-0.937577
11
12.371
21
-0.918268
0
LINE
8
BLACK
6
CONTINUOUS
10
12.371
20
-0.918268
11
12.3644
21
-0.885089
0
LINE
8
BLACK
6
CONTINUOUS
10
12.3644
20
-0.885089
11
12.3519
21
-0.853723
0
LINE
8
BLACK
6
CONTINUOUS
10
12.3519
20
-0.853723
11
12.3339
21
-0.825162
0
LINE
8
BLACK
6
CONTINUOUS
10
12.3339
20
-0.825162
11
12.311
21
-0.800364
0
LINE
8
BLACK
6
CONTINUOUS
10
12.311
20
-0.800364
11
12.2839
21
-0.780158
0
LINE
8
BLACK
6
CONTINUOUS
10
12.2839
20
-0.780158
11
12.2536
21
-0.765222
0
LINE
8
BLACK
6
CONTINUOUS
10
12.2536
20
-0.765222
11
12.2211
21
-0.756055
0
LINE
8
BLACK
6
CONTINUOUS
10
12.2211
20
-0.756055
11
12.1874
21
-0.752953
0
LINE
8
BLACK
6
CONTINUOUS
10
12.1874
20
-0.752953
11
1.31258
21
-0.752953
0
LINE
8
BLACK
6
CONTINUOUS
10
8.53171
20
-11.2217
11
8.53903
21
-11.2041
0
LINE
8
BLACK
6
CONTINUOUS
10
8.53903
20
-11.2041
11
8.54965
21
-11.1882
0
LINE
8
BLACK
6
CONTINUOUS
10
8.54965
20
-11.1882
11
8.56316
21
-11.1746
0
LINE
8
BLACK
6
CONTINUOUS
10
8.56316
20
-11.1746
11
8.57905
21
-11.164
0
LINE
8
BLACK
6
CONTINUOUS
10
8.57905
20
-11.164
11
8.59671
21
-11.1567
0
LINE
8
BLACK
6
CONTINUOUS
10
8.59671
20
-11.1567
11
8.61545
21
-11.153
0
LINE
8
BLACK
6
CONTINUOUS
10
8.61545
20
-11.153
11
8.63456
21
-11.153
0
LINE
8
BLACK
6
CONTINUOUS
10
8.63456
20
-11.153
11
8.65331
21
-11.1567
0
LINE
8
BLACK
6
CONTINUOUS
10
8.65331
20
-11.1567
11
8.67096
21
-11.164
0
LINE
8
BLACK
6
CONTINUOUS
10
8.67096
20
-11.164
11
8.68685
21
-11.1746
0
LINE
8
BLACK
6
CONTINUOUS
10
8.68685
20
-11.1746
11
8.70037
21
-11.1882
0
LINE
8
BLACK
6
CONTINUOUS
10
8.70037
20
-11.1882
11
8.71099
21
-11.2041
0
LINE
8
BLACK
6
CONTINUOUS
10
8.71099
20
-11.2041
11
8.7183
21
-11.2217
0
LINE
8
BLACK
6
CONTINUOUS
10
8.7183
20
-11.2217
11
8.72203
21
-11.2405
0
LINE
8
BLACK
6
CONTINUOUS
10
8.72203
20
-11.2405
11
8.72203
21
-11.2596
0
LINE
8
BLACK
6
CONTINUOUS
10
8.72203
20
-11.2596
11
8.7183
21
-11.2783
0
LINE
8
BLACK
6
CONTINUOUS
10
8.7183
20
-11.2783
11
8.71099
21
-11.296
0
LINE
8
BLACK
6
CONTINUOUS
10
8.71099
20
-11.296
11
8.70037
21
-11.3119
0
LINE
8
BLACK
6
CONTINUOUS
10
8.70037
20
-11.3119
11
8.68685
21
-11.3254
0
LINE
8
BLACK
6
CONTINUOUS
10
8.68685
20
-11.3254
11
8.67096
21
-11.336
0
LINE
8
BLACK
6
CONTINUOUS
10
8.67096
20
-11.336
11
8.65331
21
-11.3433
0
LINE
8
BLACK
6
CONTINUOUS
10
8.65331
20
-11.3433
11
8.63456
21
-11.347
0
LINE
8
BLACK
6
CONTINUOUS
10
8.63456
20
-11.347
11
8.61545
21
-11.347
0
LINE
8
BLACK
6
CONTINUOUS
10
8.61545
20
-11.347
11
8.59671
21
-11.3433
0
LINE
8
BLACK
6
CONTINUOUS
10
8.59671
20
-11.3433
11
8.57905
21
-11.336
0
LINE
8
BLACK
6
CONTINUOUS
10
8.57905
20
-11.336
11
8.56316
21
-11.3254
0
LINE
8
BLACK
6
CONTINUOUS
10
8.56316
20
-11.3254
11
8.54965
21
-11.3119
0
LINE
8
BLACK
6
CONTINUOUS
10
8.54965
20
-11.3119
11
8.53903
21
-11.296
0
LINE
8
BLACK
6
CONTINUOUS
10
8.53903
20
-11.296
11
8.53171
21
-11.2783
0
LINE
8
BLACK
6
CONTINUOUS
10
8.53171
20
-11.2783
11
8.52799
21
-11.2596
0
LINE
8
BLACK
6
CONTINUOUS
10
8.52799
20
-11.2596
11
8.52799
21
-11.2405
0
LINE
8
BLACK
6
CONTINUOUS
10
8.52799
20
-11.2405
11
8.53171
21
-11.2217
0
LINE
8
BLACK
6
CONTINUOUS
10
8.53812
20
-11.2764
11
8.54493
21
-11.2928
0
LINE
8
BLACK
6
CONTINUOUS
10
8.54493
20
-11.2928
11
8.55482
21
-11.3076
0
LINE
8
BLACK
6
CONTINUOUS
10
8.55482
20
-11.3076
11
8.56741
21
-11.3202
0
LINE
8
BLACK
6
CONTINUOUS
10
8.56741
20
-11.3202
11
8.58221
21
-11.3301
0
LINE
8
BLACK
6
CONTINUOUS
10
8.58221
20
-11.3301
11
8.59865
21
-11.3369
0
LINE
8
BLACK
6
CONTINUOUS
10
8.59865
20
-11.3369
11
8.61611
21
-11.3404
0
LINE
8
BLACK
6
CONTINUOUS
10
8.61611
20
-11.3404
11
8.63391
21
-11.3404
0
LINE
8
BLACK
6
CONTINUOUS
10
8.63391
20
-11.3404
11
8.65136
21
-11.3369
0
LINE
8
BLACK
6
CONTINUOUS
10
8.65136
20
-11.3369
11
8.66781
21
-11.3301
0
LINE
8
BLACK
6
CONTINUOUS
10
8.66781
20
-11.3301
11
8.68261
21
-11.3202
0
LINE
8
BLACK
6
CONTINUOUS
10
8.68261
20
-11.3202
11
8.69519
21
-11.3076
0
LINE
8
BLACK
6
CONTINUOUS
10
8.69519
20
-11.3076
11
8.70508
21
-11.2928
0
LINE
8
BLACK
6
CONTINUOUS
10
8.70508
20
-11.2928
11
8.71189
21
-11.2764
0
LINE
8
BLACK
6
CONTINUOUS
10
8.71189
20
-11.2764
11
8.71537
21
-11.2589
0
LINE
8
BLACK
6
CONTINUOUS
10
8.71537
20
-11.2589
11
8.71537
21
-11.2411
0
LINE
8
BLACK
6
CONTINUOUS
10
8.71537
20
-11.2411
11
8.71189
21
-11.2237
0
LINE
8
BLACK
6
CONTINUOUS
10
8.71189
20
-11.2237
11
8.70508
21
-11.2072
0
LINE
8
BLACK
6
CONTINUOUS
10
8.70508
20
-11.2072
11
8.69519
21
-11.1924
0
LINE
8
BLACK
6
CONTINUOUS
10
8.69519
20
-11.1924
11
8.68261
21
-11.1798
0
LINE
8
BLACK
6
CONTINUOUS
10
8.68261
20
-11.1798
11
8.66781
21
-11.1699
0
LINE
8
BLACK
6
CONTINUOUS
10
8.66781
20
-11.1699
11
8.65136
21
-11.1631
0
LINE
8
BLACK
6
CONTINUOUS
10
8.65136
20
-11.1631
11
8.63391
21
-11.1596
0
LINE
8
BLACK
6
CONTINUOUS
10
8.63391
20
-11.1596
11
8.61611
21
-11.1596
0
LINE
8
BLACK
6
CONTINUOUS
10
8.61611
20
-11.1596
11
8.59865
21
-11.1631
0
LINE
8
BLACK
6
CONTINUOUS
10
8.59865
20
-11.1631
11
8.58221
21
-11.1699
0
LINE
8
BLACK
6
CONTINUOUS
10
8.58221
20
-11.1699
11
8.56741
21
-11.1798
0
LINE
8
BLACK
6
CONTINUOUS
10
8.56741
20
-11.1798
11
8.55482
21
-11.1924
0
LINE
8
BLACK
6
CONTINUOUS
10
8.55482
20
-11.1924
11
8.54493
21
-11.2072
0
LINE
8
BLACK
6
CONTINUOUS
10
8.54493
20
-11.2072
11
8.53812
21
-11.2237
0
LINE
8
BLACK
6
CONTINUOUS
10
8.53812
20
-11.2237
11
8.53465
21
-11.2411
0
LINE
8
BLACK
6
CONTINUOUS
10
8.53465
20
-11.2411
11
8.53465
21
-11.2589
0
LINE
8
BLACK
6
CONTINUOUS
10
8.53465
20
-11.2589
11
8.53812
21
-11.2764
0
LINE
8
BLACK
6
CONTINUOUS
10
4.78171
20
-11.2217
11
4.78903
21
-11.2041
0
LINE
8
BLACK
6
CONTINUOUS
10
4.78903
20
-11.2041
11
4.79964
21
-11.1882
0
LINE
8
BLACK
6
CONTINUOUS
10
4.79964
20
-11.1882
11
4.81316
21
-11.1746
0
LINE
8
BLACK
6
CONTINUOUS
10
4.81316
20
-11.1746
11
4.82905
21
-11.164
0
LINE
8
BLACK
6
CONTINUOUS
10
4.82905
20
-11.164
11
4.8467
21
-11.1567
0
LINE
8
BLACK
6
CONTINUOUS
10
4.8467
20
-11.1567
11
4.86545
21
-11.153
0
LINE
8
BLACK
6
CONTINUOUS
10
4.86545
20
-11.153
11
4.88456
21
-11.153
0
LINE
8
BLACK
6
CONTINUOUS
10
4.88456
20
-11.153
11
4.9033
21
-11.1567
0
LINE
8
BLACK
6
CONTINUOUS
10
4.9033
20
-11.1567
11
4.92096
21
-11.164
0
LINE
8
BLACK
6
CONTINUOUS
10
4.92096
20
-11.164
11
4.93685
21
-11.1746
0
LINE
8
BLACK
6
CONTINUOUS
10
4.93685
20
-11.1746
11
4.95037
21
-11.1882
0
LINE
8
BLACK
6
CONTINUOUS
10
4.95037
20
-11.1882
11
4.96098
21
-11.2041
0
LINE
8
BLACK
6
CONTINUOUS
10
4.96098
20
-11.2041
11
4.9683
21
-11.2217
0
LINE
8
BLACK
6
CONTINUOUS
10
4.9683
20
-11.2217
11
4.97202
21
-11.2405
0
LINE
8
BLACK
6
CONTINUOUS
10
4.97202
20
-11.2405
11
4.97202
21
-11.2596
0
LINE
8
BLACK
6
CONTINUOUS
10
4.97202
20
-11.2596
11
4.9683
21
-11.2783
0
LINE
8
BLACK
6
CONTINUOUS
10
4.9683
20
-11.2783
11
4.96098
21
-11.296
0
LINE
8
BLACK
6
CONTINUOUS
10
4.96098
20
-11.296
11
4.95037
21
-11.3119
0
LINE
8
BLACK
6
CONTINUOUS
10
4.95037
20
-11.3119
11
4.93685
21
-11.3254
0
LINE
8
BLACK
6
CONTINUOUS
10
4.93685
20
-11.3254
11
4.92096
21
-11.336
0
LINE
8
BLACK
6
CONTINUOUS
10
4.92096
20
-11.336
11
4.9033
21
-11.3433
0
LINE
8
BLACK
6
CONTINUOUS
10
4.9033
20
-11.3433
11
4.88456
21
-11.347
0
LINE
8
BLACK
6
CONTINUOUS
10
4.88456
20
-11.347
11
4.86545
21
-11.347
0
LINE
8
BLACK
6
CONTINUOUS
10
4.86545
20
-11.347
11
4.8467
21
-11.3433
0
LINE
8
BLACK
6
CONTINUOUS
10
4.8467
20
-11.3433
11
4.82905
21
-11.336
0
LINE
8
BLACK
6
CONTINUOUS
10
4.82905
20
-11.336
11
4.81316
21
-11.3254
0
LINE
8
BLACK
6
CONTINUOUS
10
4.81316
20
-11.3254
11
4.79964
21
-11.3119
0
LINE
8
BLACK
6
CONTINUOUS
10
4.79964
20
-11.3119
11
4.78903
21
-11.296
0
LINE
8
BLACK
6
CONTINUOUS
10
4.78903
20
-11.296
11
4.78171
21
-11.2783
0
LINE
8
BLACK
6
CONTINUOUS
10
4.78171
20
-11.2783
11
4.77798
21
-11.2596
0
LINE
8
BLACK
6
CONTINUOUS
10
4.77798
20
-11.2596
11
4.77798
21
-11.2405
0
LINE
8
BLACK
6
CONTINUOUS
10
4.77798
20
-11.2405
11
4.78171
21
-11.2217
0
LINE
8
BLACK
6
CONTINUOUS
10
4.78812
20
-11.2764
11
4.79493
21
-11.2928
0
LINE
8
BLACK
6
CONTINUOUS
10
4.79493
20
-11.2928
11
4.80482
21
-11.3076
0
LINE
8
BLACK
6
CONTINUOUS
10
4.80482
20
-11.3076
11
4.8174
21
-11.3202
0
LINE
8
BLACK
6
CONTINUOUS
10
4.8174
20
-11.3202
11
4.8322
21
-11.3301
0
LINE
8
BLACK
6
CONTINUOUS
10
4.8322
20
-11.3301
11
4.84865
21
-11.3369
0
LINE
8
BLACK
6
CONTINUOUS
10
4.84865
20
-11.3369
11
4.8661
21
-11.3404
0
LINE
8
BLACK
6
CONTINUOUS
10
4.8661
20
-11.3404
11
4.8839
21
-11.3404
0
LINE
8
BLACK
6
CONTINUOUS
10
4.8839
20
-11.3404
11
4.90136
21
-11.3369
0
LINE
8
BLACK
6
CONTINUOUS
10
4.90136
20
-11.3369
11
4.91781
21
-11.3301
0
LINE
8
BLACK
6
CONTINUOUS
10
4.91781
20
-11.3301
11
4.93261
21
-11.3202
0
LINE
8
BLACK
6
CONTINUOUS
10
4.93261
20
-11.3202
11
4.94519
21
-11.3076
0
LINE
8
BLACK
6
CONTINUOUS
10
4.94519
20
-11.3076
11
4.95508
21
-11.2928
0
LINE
8
BLACK
6
CONTINUOUS
10
4.95508
20
-11.2928
11
4.96189
21
-11.2764
0
LINE
8
BLACK
6
CONTINUOUS
10
4.96189
20
-11.2764
11
4.96536
21
-11.2589
0
LINE
8
BLACK
6
CONTINUOUS
10
4.96536
20
-11.2589
11
4.96536
21
-11.2411
0
LINE
8
BLACK
6
CONTINUOUS
10
4.96536
20
-11.2411
11
4.96189
21
-11.2237
0
LINE
8
BLACK
6
CONTINUOUS
10
4.96189
20
-11.2237
11
4.95508
21
-11.2072
0
LINE
8
BLACK
6
CONTINUOUS
10
4.95508
20
-11.2072
11
4.94519
21
-11.1924
0
LINE
8
BLACK
6
CONTINUOUS
10
4.94519
20
-11.1924
11
4.93261
21
-11.1798
0
LINE
8
BLACK
6
CONTINUOUS
10
4.93261
20
-11.1798
11
4.91781
21
-11.1699
0
LINE
8
BLACK
6
CONTINUOUS
10
4.91781
20
-11.1699
11
4.90136
21
-11.1631
0
LINE
8
BLACK
6
CONTINUOUS
10
4.90136
20
-11.1631
11
4.8839
21
-11.1596
0
LINE
8
BLACK
6
CONTINUOUS
10
4.8839
20
-11.1596
11
4.8661
21
-11.1596
0
LINE
8
BLACK
6
CONTINUOUS
10
4.8661
20
-11.1596
11
4.84865
21
-11.1631
0
LINE
8
BLACK
6
CONTINUOUS
10
4.84865
20
-11.1631
11
4.8322
21
-11.1699
0
LINE
8
BLACK
6
CONTINUOUS
10
4.8322
20
-11.1699
11
4.8174
21
-11.1798
0
LINE
8
BLACK
6
CONTINUOUS
10
4.8174
20
-11.1798
11
4.80482
21
-11.1924
0
LINE
8
BLACK
6
CONTINUOUS
10
4.80482
20
-11.1924
11
4.79493
21
-11.2072
0
LINE
8
BLACK
6
CONTINUOUS
10
4.79493
20
-11.2072
11
4.78812
21
-11.2237
0
LINE
8
BLACK
6
CONTINUOUS
10
4.78812
20
-11.2237
11
4.78464
21
-11.2411
0
LINE
8
BLACK
6
CONTINUOUS
10
4.78464
20
-11.2411
11
4.78464
21
-11.2589
0
LINE
8
BLACK
6
CONTINUOUS
10
4.78464
20
-11.2589
11
4.78812
21
-11.2764
0
LINE
8
BLACK
6
CONTINUOUS
10
1.78171
20
-11.2217
11
1.78902
21
-11.2041
0
LINE
8
BLACK
6
CONTINUOUS
10
1.78902
20
-11.2041
11
1.79964
21
-11.1882
0
LINE
8
BLACK
6
CONTINUOUS
10
1.79964
20
-11.1882
11
1.81315
21
-11.1746
0
LINE
8
BLACK
6
CONTINUOUS
10
1.81315
20
-11.1746
11
1.82905
21
-11.164
0
LINE
8
BLACK
6
CONTINUOUS
10
1.82905
20
-11.164
11
1.8467
21
-11.1567
0
LINE
8
BLACK
6
CONTINUOUS
10
1.8467
20
-11.1567
11
1.86545
21
-11.153
0
LINE
8
BLACK
6
CONTINUOUS
10
1.86545
20
-11.153
11
1.88456
21
-11.153
0
LINE
8
BLACK
6
CONTINUOUS
10
1.88456
20
-11.153
11
1.9033
21
-11.1567
0
LINE
8
BLACK
6
CONTINUOUS
10
1.9033
20
-11.1567
11
1.92096
21
-11.164
0
LINE
8
BLACK
6
CONTINUOUS
10
1.92096
20
-11.164
11
1.93685
21
-11.1746
0
LINE
8
BLACK
6
CONTINUOUS
10
1.93685
20
-11.1746
11
1.95036
21
-11.1882
0
LINE
8
BLACK
6
CONTINUOUS
10
1.95036
20
-11.1882
11
1.96098
21
-11.2041
0
LINE
8
BLACK
6
CONTINUOUS
10
1.96098
20
-11.2041
11
1.96829
21
-11.2217
0
LINE
8
BLACK
6
CONTINUOUS
10
1.96829
20
-11.2217
11
1.97202
21
-11.2405
0
LINE
8
BLACK
6
CONTINUOUS
10
1.97202
20
-11.2405
11
1.97202
21
-11.2596
0
LINE
8
BLACK
6
CONTINUOUS
10
1.97202
20
-11.2596
11
1.96829
21
-11.2783
0
LINE
8
BLACK
6
CONTINUOUS
10
1.96829
20
-11.2783
11
1.96098
21
-11.296
0
LINE
8
BLACK
6
CONTINUOUS
10
1.96098
20
-11.296
11
1.95036
21
-11.3119
0
LINE
8
BLACK
6
CONTINUOUS
10
1.95036
20
-11.3119
11
1.93685
21
-11.3254
0
LINE
8
BLACK
6
CONTINUOUS
10
1.93685
20
-11.3254
11
1.92096
21
-11.336
0
LINE
8
BLACK
6
CONTINUOUS
10
1.92096
20
-11.336
11
1.9033
21
-11.3433
0
LINE
8
BLACK
6
CONTINUOUS
10
1.9033
20
-11.3433
11
1.88456
21
-11.347
0
LINE
8
BLACK
6
CONTINUOUS
10
1.88456
20
-11.347
11
1.86545
21
-11.347
0
LINE
8
BLACK
6
CONTINUOUS
10
1.86545
20
-11.347
11
1.8467
21
-11.3433
0
LINE
8
BLACK
6
CONTINUOUS
10
1.8467
20
-11.3433
11
1.82905
21
-11.336
0
LINE
8
BLACK
6
CONTINUOUS
10
1.82905
20
-11.336
11
1.81315
21
-11.3254
0
LINE
8
BLACK
6
CONTINUOUS
10
1.81315
20
-11.3254
11
1.79964
21
-11.3119
0
LINE
8
BLACK
6
CONTINUOUS
10
1.79964
20
-11.3119
11
1.78902
21
-11.296
0
LINE
8
BLACK
6
CONTINUOUS
10
1.78902
20
-11.296
11
1.78171
21
-11.2783
0
LINE
8
BLACK
6
CONTINUOUS
10
1.78171
20
-11.2783
11
1.77798
21
-11.2596
0
LINE
8
BLACK
6
CONTINUOUS
10
1.77798
20
-11.2596
11
1.77798
21
-11.2405
0
LINE
8
BLACK
6
CONTINUOUS
10
1.77798
20
-11.2405
11
1.78171
21
-11.2217
0
LINE
8
BLACK
6
CONTINUOUS
10
1.78811
20
-11.2764
11
1.79493
21
-11.2928
0
LINE
8
BLACK
6
CONTINUOUS
10
1.79493
20
-11.2928
11
1.80481
21
-11.3076
0
LINE
8
BLACK
6
CONTINUOUS
10
1.80481
20
-11.3076
11
1.8174
21
-11.3202
0
LINE
8
BLACK
6
CONTINUOUS
10
1.8174
20
-11.3202
11
1.8322
21
-11.3301
0
LINE
8
BLACK
6
CONTINUOUS
10
1.8322
20
-11.3301
11
1.84864
21
-11.3369
0
LINE
8
BLACK
6
CONTINUOUS
10
1.84864
20
-11.3369
11
1.8661
21
-11.3404
0
LINE
8
BLACK
6
CONTINUOUS
10
1.8661
20
-11.3404
11
1.8839
21
-11.3404
0
LINE
8
BLACK
6
CONTINUOUS
10
1.8839
20
-11.3404
11
1.90136
21
-11.3369
0
LINE
8
BLACK
6
CONTINUOUS
10
1.90136
20
-11.3369
11
1.9178
21
-11.3301
0
LINE
8
BLACK
6
CONTINUOUS
10
1.9178
20
-11.3301
11
1.9326
21
-11.3202
0
LINE
8
BLACK
6
CONTINUOUS
10
1.9326
20
-11.3202
11
1.94519
21
-11.3076
0
LINE
8
BLACK
6
CONTINUOUS
10
1.94519
20
-11.3076
11
1.95508
21
-11.2928
0
LINE
8
BLACK
6
CONTINUOUS
10
1.95508
20
-11.2928
11
1.96189
21
-11.2764
0
LINE
8
BLACK
6
CONTINUOUS
10
1.96189
20
-11.2764
11
1.96536
21
-11.2589
0
LINE
8
BLACK
6
CONTINUOUS
10
1.96536
20
-11.2589
11
1.96536
21
-11.2411
0
LINE
8
BLACK
6
CONTINUOUS
10
1.96536
20
-11.2411
11
1.96189
21
-11.2237
0
LINE
8
BLACK
6
CONTINUOUS
10
1.96189
20
-11.2237
11
1.95508
21
-11.2072
0
LINE
8
BLACK
6
CONTINUOUS
10
1.95508
20
-11.2072
11
1.94519
21
-11.1924
0
LINE
8
BLACK
6
CONTINUOUS
10
1.94519
20
-11.1924
11
1.9326
21
-11.1798
0
LINE
8
BLACK
6
CONTINUOUS
10
1.9326
20
-11.1798
11
1.9178
21
-11.1699
0
LINE
8
BLACK
6
CONTINUOUS
10
1.9178
20
-11.1699
11
1.90136
21
-11.1631
0
LINE
8
BLACK
6
CONTINUOUS
10
1.90136
20
-11.1631
11
1.8839
21
-11.1596
0
LINE
8
BLACK
6
CONTINUOUS
10
1.8839
20
-11.1596
11
1.8661
21
-11.1596
0
LINE
8
BLACK
6
CONTINUOUS
10
1.8661
20
-11.1596
11
1.84864
21
-11.1631
0
LINE
8
BLACK
6
CONTINUOUS
10
1.84864
20
-11.1631
11
1.8322
21
-11.1699
0
LINE
8
BLACK
6
CONTINUOUS
10
1.8322
20
-11.1699
11
1.8174
21
-11.1798
0
LINE
8
BLACK
6
CONTINUOUS
10
1.8174
20
-11.1798
11
1.80481
21
-11.1924
0
LINE
8
BLACK
6
CONTINUOUS
10
1.80481
20
-11.1924
11
1.79493
21
-11.2072
0
LINE
8
BLACK
6
CONTINUOUS
10
1.79493
20
-11.2072
11
1.78811
21
-11.2237
0
LINE
8
BLACK
6
CONTINUOUS
10
1.78811
20
-11.2237
11
1.78464
21
-11.2411
0
LINE
8
BLACK
6
CONTINUOUS
10
1.78464
20
-11.2411
11
1.78464
21
-11.2589
0
LINE
8
BLACK
6
CONTINUOUS
10
1.78464
20
-11.2589
11
1.78811
21
-11.2764
0
LINE
8
BLACK
6
CONTINUOUS
10
11.5317
20
-11.2217
11
11.539
21
-11.2041
0
LINE
8
BLACK
6
CONTINUOUS
10
11.539
20
-11.2041
11
11.5496
21
-11.1882
0
LINE
8
BLACK
6
CONTINUOUS
10
11.5496
20
-11.1882
11
11.5632
21
-11.1746
0
LINE
8
BLACK
6
CONTINUOUS
10
11.5632
20
-11.1746
11
11.5791
21
-11.164
0
LINE
8
BLACK
6
CONTINUOUS
10
11.5791
20
-11.164
11
11.5967
21
-11.1567
0
LINE
8
BLACK
6
CONTINUOUS
10
11.5967
20
-11.1567
11
11.6155
21
-11.153
0
LINE
8
BLACK
6
CONTINUOUS
10
11.6155
20
-11.153
11
11.6346
21
-11.153
0
LINE
8
BLACK
6
CONTINUOUS
10
11.6346
20
-11.153
11
11.6533
21
-11.1567
0
LINE
8
BLACK
6
CONTINUOUS
10
11.6533
20
-11.1567
11
11.671
21
-11.164
0
LINE
8
BLACK
6
CONTINUOUS
10
11.671
20
-11.164
11
11.6869
21
-11.1746
0
LINE
8
BLACK
6
CONTINUOUS
10
11.6869
20
-11.1746
11
11.7004
21
-11.1882
0
LINE
8
BLACK
6
CONTINUOUS
10
11.7004
20
-11.1882
11
11.711
21
-11.2041
0
LINE
8
BLACK
6
CONTINUOUS
10
11.711
20
-11.2041
11
11.7183
21
-11.2217
0
LINE
8
BLACK
6
CONTINUOUS
10
11.7183
20
-11.2217
11
11.722
21
-11.2405
0
LINE
8
BLACK
6
CONTINUOUS
10
11.722
20
-11.2405
11
11.722
21
-11.2596
0
LINE
8
BLACK
6
CONTINUOUS
10
11.722
20
-11.2596
11
11.7183
21
-11.2783
0
LINE
8
BLACK
6
CONTINUOUS
10
11.7183
20
-11.2783
11
11.711
21
-11.296
0
LINE
8
BLACK
6
CONTINUOUS
10
11.711
20
-11.296
11
11.7004
21
-11.3119
0
LINE
8
BLACK
6
CONTINUOUS
10
11.7004
20
-11.3119
11
11.6869
21
-11.3254
0
LINE
8
BLACK
6
CONTINUOUS
10
11.6869
20
-11.3254
11
11.671
21
-11.336
0
LINE
8
BLACK
6
CONTINUOUS
10
11.671
20
-11.336
11
11.6533
21
-11.3433
0
LINE
8
BLACK
6
CONTINUOUS
10
11.6533
20
-11.3433
11
11.6346
21
-11.347
0
LINE
8
BLACK
6
CONTINUOUS
10
11.6346
20
-11.347
11
11.6155
21
-11.347
0
LINE
8
BLACK
6
CONTINUOUS
10
11.6155
20
-11.347
11
11.5967
21
-11.3433
0
LINE
8
BLACK
6
CONTINUOUS
10
11.5967
20
-11.3433
11
11.5791
21
-11.336
0
LINE
8
BLACK
6
CONTINUOUS
10
11.5791
20
-11.336
11
11.5632
21
-11.3254
0
LINE
8
BLACK
6
CONTINUOUS
10
11.5632
20
-11.3254
11
11.5496
21
-11.3119
0
LINE
8
BLACK
6
CONTINUOUS
10
11.5496
20
-11.3119
11
11.539
21
-11.296
0
LINE
8
BLACK
6
CONTINUOUS
10
11.539
20
-11.296
11
11.5317
21
-11.2783
0
LINE
8
BLACK
6
CONTINUOUS
10
11.5317
20
-11.2783
11
11.528
21
-11.2596
0
LINE
8
BLACK
6
CONTINUOUS
10
11.528
20
-11.2596
11
11.528
21
-11.2405
0
LINE
8
BLACK
6
CONTINUOUS
10
11.528
20
-11.2405
11
11.5317
21
-11.2217
0
LINE
8
BLACK
6
CONTINUOUS
10
11.5381
20
-11.2764
11
11.5449
21
-11.2928
0
LINE
8
BLACK
6
CONTINUOUS
10
11.5449
20
-11.2928
11
11.5548
21
-11.3076
0
LINE
8
BLACK
6
CONTINUOUS
10
11.5548
20
-11.3076
11
11.5674
21
-11.3202
0
LINE
8
BLACK
6
CONTINUOUS
10
11.5674
20
-11.3202
11
11.5822
21
-11.3301
0
LINE
8
BLACK
6
CONTINUOUS
10
11.5822
20
-11.3301
11
11.5987
21
-11.3369
0
LINE
8
BLACK
6
CONTINUOUS
10
11.5987
20
-11.3369
11
11.6161
21
-11.3404
0
LINE
8
BLACK
6
CONTINUOUS
10
11.6161
20
-11.3404
11
11.6339
21
-11.3404
0
LINE
8
BLACK
6
CONTINUOUS
10
11.6339
20
-11.3404
11
11.6514
21
-11.3369
0
LINE
8
BLACK
6
CONTINUOUS
10
11.6514
20
-11.3369
11
11.6678
21
-11.3301
0
LINE
8
BLACK
6
CONTINUOUS
10
11.6678
20
-11.3301
11
11.6826
21
-11.3202
0
LINE
8
BLACK
6
CONTINUOUS
10
11.6826
20
-11.3202
11
11.6952
21
-11.3076
0
LINE
8
BLACK
6
CONTINUOUS
10
11.6952
20
-11.3076
11
11.7051
21
-11.2928
0
LINE
8
BLACK
6
CONTINUOUS
10
11.7051
20
-11.2928
11
11.7119
21
-11.2764
0
LINE
8
BLACK
6
CONTINUOUS
10
11.7119
20
-11.2764
11
11.7154
21
-11.2589
0
LINE
8
BLACK
6
CONTINUOUS
10
11.7154
20
-11.2589
11
11.7154
21
-11.2411
0
LINE
8
BLACK
6
CONTINUOUS
10
11.7154
20
-11.2411
11
11.7119
21
-11.2237
0
LINE
8
BLACK
6
CONTINUOUS
10
11.7119
20
-11.2237
11
11.7051
21
-11.2072
0
LINE
8
BLACK
6
CONTINUOUS
10
11.7051
20
-11.2072
11
11.6952
21
-11.1924
0
LINE
8
BLACK
6
CONTINUOUS
10
11.6952
20
-11.1924
11
11.6826
21
-11.1798
0
LINE
8
BLACK
6
CONTINUOUS
10
11.6826
20
-11.1798
11
11.6678
21
-11.1699
0
LINE
8
BLACK
6
CONTINUOUS
10
11.6678
20
-11.1699
11
11.6514
21
-11.1631
0
LINE
8
BLACK
6
CONTINUOUS
10
11.6514
20
-11.1631
11
11.6339
21
-11.1596
0
LINE
8
BLACK
6
CONTINUOUS
10
11.6339
20
-11.1596
11
11.6161
21
-11.1596
0
LINE
8
BLACK
6
CONTINUOUS
10
11.6161
20
-11.1596
11
11.5987
21
-11.1631
0
LINE
8
BLACK
6
CONTINUOUS
10
11.5987
20
-11.1631
11
11.5822
21
-11.1699
0
LINE
8
BLACK
6
CONTINUOUS
10
11.5822
20
-11.1699
11
11.5674
21
-11.1798
0
LINE
8
BLACK
6
CONTINUOUS
10
11.5674
20
-11.1798
11
11.5548
21
-11.1924
0
LINE
8
BLACK
6
CONTINUOUS
10
11.5548
20
-11.1924
11
11.5449
21
-11.2072
0
LINE
8
BLACK
6
CONTINUOUS
10
11.5449
20
-11.2072
11
11.5381
21
-11.2237
0
LINE
8
BLACK
6
CONTINUOUS
10
11.5381
20
-11.2237
11
11.5346
21
-11.2411
0
LINE
8
BLACK
6
CONTINUOUS
10
11.5346
20
-11.2411
11
11.5346
21
-11.2589
0
LINE
8
BLACK
6
CONTINUOUS
10
11.5346
20
-11.2589
11
11.5381
21
-11.2764
0
LINE
8
BLACK
6
CONTINUOUS
10
4.78171
20
-8.22171
11
4.78903
21
-8.20405
0
LINE
8
BLACK
6
CONTINUOUS
10
4.78903
20
-8.20405
11
4.79964
21
-8.18816
0
LINE
8
BLACK
6
CONTINUOUS
10
4.79964
20
-8.18816
11
4.81316
21
-8.17465
0
LINE
8
BLACK
6
CONTINUOUS
10
4.81316
20
-8.17465
11
4.82905
21
-8.16403
0
LINE
8
BLACK
6
CONTINUOUS
10
4.82905
20
-8.16403
11
4.8467
21
-8.15671
0
LINE
8
BLACK
6
CONTINUOUS
10
4.8467
20
-8.15671
11
4.86545
21
-8.15299
0
LINE
8
BLACK
6
CONTINUOUS
10
4.86545
20
-8.15299
11
4.88456
21
-8.15299
0
LINE
8
BLACK
6
CONTINUOUS
10
4.88456
20
-8.15299
11
4.9033
21
-8.15671
0
LINE
8
BLACK
6
CONTINUOUS
10
4.9033
20
-8.15671
11
4.92096
21
-8.16403
0
LINE
8
BLACK
6
CONTINUOUS
10
4.92096
20
-8.16403
11
4.93685
21
-8.17465
0
LINE
8
BLACK
6
CONTINUOUS
10
4.93685
20
-8.17465
11
4.95037
21
-8.18816
0
LINE
8
BLACK
6
CONTINUOUS
10
4.95037
20
-8.18816
11
4.96098
21
-8.20405
0
LINE
8
BLACK
6
CONTINUOUS
10
4.96098
20
-8.20405
11
4.9683
21
-8.22171
0
LINE
8
BLACK
6
CONTINUOUS
10
4.9683
20
-8.22171
11
4.97202
21
-8.24045
0
LINE
8
BLACK
6
CONTINUOUS
10
4.97202
20
-8.24045
11
4.97202
21
-8.25956
0
LINE
8
BLACK
6
CONTINUOUS
10
4.97202
20
-8.25956
11
4.9683
21
-8.27831
0
LINE
8
BLACK
6
CONTINUOUS
10
4.9683
20
-8.27831
11
4.96098
21
-8.29596
0
LINE
8
BLACK
6
CONTINUOUS
10
4.96098
20
-8.29596
11
4.95037
21
-8.31185
0
LINE
8
BLACK
6
CONTINUOUS
10
4.95037
20
-8.31185
11
4.93685
21
-8.32537
0
LINE
8
BLACK
6
CONTINUOUS
10
4.93685
20
-8.32537
11
4.92096
21
-8.33599
0
LINE
8
BLACK
6
CONTINUOUS
10
4.92096
20
-8.33599
11
4.9033
21
-8.3433
0
LINE
8
BLACK
6
CONTINUOUS
10
4.9033
20
-8.3433
11
4.88456
21
-8.34703
0
LINE
8
BLACK
6
CONTINUOUS
10
4.88456
20
-8.34703
11
4.86545
21
-8.34703
0
LINE
8
BLACK
6
CONTINUOUS
10
4.86545
20
-8.34703
11
4.8467
21
-8.3433
0
LINE
8
BLACK
6
CONTINUOUS
10
4.8467
20
-8.3433
11
4.82905
21
-8.33599
0
LINE
8
BLACK
6
CONTINUOUS
10
4.82905
20
-8.33599
11
4.81316
21
-8.32537
0
LINE
8
BLACK
6
CONTINUOUS
10
4.81316
20
-8.32537
11
4.79964
21
-8.31185
0
LINE
8
BLACK
6
CONTINUOUS
10
4.79964
20
-8.31185
11
4.78903
21
-8.29596
0
LINE
8
BLACK
6
CONTINUOUS
10
4.78903
20
-8.29596
11
4.78171
21
-8.27831
0
LINE
8
BLACK
6
CONTINUOUS
10
4.78171
20
-8.27831
11
4.77798
21
-8.25956
0
LINE
8
BLACK
6
CONTINUOUS
10
4.77798
20
-8.25956
11
4.77798
21
-8.24045
0
LINE
8
BLACK
6
CONTINUOUS
10
4.77798
20
-8.24045
11
4.78171
21
-8.22171
0
LINE
8
BLACK
6
CONTINUOUS
10
4.78812
20
-8.27636
11
4.79493
21
-8.29281
0
LINE
8
BLACK
6
CONTINUOUS
10
4.79493
20
-8.29281
11
4.80482
21
-8.30761
0
LINE
8
BLACK
6
CONTINUOUS
10
4.80482
20
-8.30761
11
4.8174
21
-8.32019
0
LINE
8
BLACK
6
CONTINUOUS
10
4.8174
20
-8.32019
11
4.8322
21
-8.33008
0
LINE
8
BLACK
6
CONTINUOUS
10
4.8322
20
-8.33008
11
4.84865
21
-8.33689
0
LINE
8
BLACK
6
CONTINUOUS
10
4.84865
20
-8.33689
11
4.8661
21
-8.34037
0
LINE
8
BLACK
6
CONTINUOUS
10
4.8661
20
-8.34037
11
4.8839
21
-8.34037
0
LINE
8
BLACK
6
CONTINUOUS
10
4.8839
20
-8.34037
11
4.90136
21
-8.33689
0
LINE
8
BLACK
6
CONTINUOUS
10
4.90136
20
-8.33689
11
4.91781
21
-8.33008
0
LINE
8
BLACK
6
CONTINUOUS
10
4.91781
20
-8.33008
11
4.93261
21
-8.32019
0
LINE
8
BLACK
6
CONTINUOUS
10
4.93261
20
-8.32019
11
4.94519
21
-8.30761
0
LINE
8
BLACK
6
CONTINUOUS
10
4.94519
20
-8.30761
11
4.95508
21
-8.29281
0
LINE
8
BLACK
6
CONTINUOUS
10
4.95508
20
-8.29281
11
4.96189
21
-8.27636
0
LINE
8
BLACK
6
CONTINUOUS
10
4.96189
20
-8.27636
11
4.96536
21
-8.25891
0
LINE
8
BLACK
6
CONTINUOUS
10
4.96536
20
-8.25891
11
4.96536
21
-8.24111
0
LINE
8
BLACK
6
CONTINUOUS
10
4.96536
20
-8.24111
11
4.96189
21
-8.22365
0
LINE
8
BLACK
6
CONTINUOUS
10
4.96189
20
-8.22365
11
4.95508
21
-8.20721
0
LINE
8
BLACK
6
CONTINUOUS
10
4.95508
20
-8.20721
11
4.94519
21
-8.19241
0
LINE
8
BLACK
6
CONTINUOUS
10
4.94519
20
-8.19241
11
4.93261
21
-8.17982
0
LINE
8
BLACK
6
CONTINUOUS
10
4.93261
20
-8.17982
11
4.91781
21
-8.16993
0
LINE
8
BLACK
6
CONTINUOUS
10
4.91781
20
-8.16993
11
4.90136
21
-8.16312
0
LINE
8
BLACK
6
CONTINUOUS
10
4.90136
20
-8.16312
11
4.8839
21
-8.15965
0
LINE
8
BLACK
6
CONTINUOUS
10
4.8839
20
-8.15965
11
4.8661
21
-8.15965
0
LINE
8
BLACK
6
CONTINUOUS
10
4.8661
20
-8.15965
11
4.84865
21
-8.16312
0
LINE
8
BLACK
6
CONTINUOUS
10
4.84865
20
-8.16312
11
4.8322
21
-8.16993
0
LINE
8
BLACK
6
CONTINUOUS
10
4.8322
20
-8.16993
11
4.8174
21
-8.17982
0
LINE
8
BLACK
6
CONTINUOUS
10
4.8174
20
-8.17982
11
4.80482
21
-8.19241
0
LINE
8
BLACK
6
CONTINUOUS
10
4.80482
20
-8.19241
11
4.79493
21
-8.20721
0
LINE
8
BLACK
6
CONTINUOUS
10
4.79493
20
-8.20721
11
4.78812
21
-8.22365
0
LINE
8
BLACK
6
CONTINUOUS
10
4.78812
20
-8.22365
11
4.78464
21
-8.24111
0
LINE
8
BLACK
6
CONTINUOUS
10
4.78464
20
-8.24111
11
4.78464
21
-8.25891
0
LINE
8
BLACK
6
CONTINUOUS
10
4.78464
20
-8.25891
11
4.78812
21
-8.27636
0
LINE
8
BLACK
6
CONTINUOUS
10
1.78171
20
-8.22171
11
1.78902
21
-8.20405
0
LINE
8
BLACK
6
CONTINUOUS
10
1.78902
20
-8.20405
11
1.79964
21
-8.18816
0
LINE
8
BLACK
6
CONTINUOUS
10
1.79964
20
-8.18816
11
1.81315
21
-8.17465
0
LINE
8
BLACK
6
CONTINUOUS
10
1.81315
20
-8.17465
11
1.82905
21
-8.16403
0
LINE
8
BLACK
6
CONTINUOUS
10
1.82905
20
-8.16403
11
1.8467
21
-8.15671
0
LINE
8
BLACK
6
CONTINUOUS
10
1.8467
20
-8.15671
11
1.86545
21
-8.15299
0
LINE
8
BLACK
6
CONTINUOUS
10
1.86545
20
-8.15299
11
1.88456
21
-8.15299
0
LINE
8
BLACK
6
CONTINUOUS
10
1.88456
20
-8.15299
11
1.9033
21
-8.15671
0
LINE
8
BLACK
6
CONTINUOUS
10
1.9033
20
-8.15671
11
1.92096
21
-8.16403
0
LINE
8
BLACK
6
CONTINUOUS
10
1.92096
20
-8.16403
11
1.93685
21
-8.17465
0
LINE
8
BLACK
6
CONTINUOUS
10
1.93685
20
-8.17465
11
1.95036
21
-8.18816
0
LINE
8
BLACK
6
CONTINUOUS
10
1.95036
20
-8.18816
11
1.96098
21
-8.20405
0
LINE
8
BLACK
6
CONTINUOUS
10
1.96098
20
-8.20405
11
1.96829
21
-8.22171
0
LINE
8
BLACK
6
CONTINUOUS
10
1.96829
20
-8.22171
11
1.97202
21
-8.24045
0
LINE
8
BLACK
6
CONTINUOUS
10
1.97202
20
-8.24045
11
1.97202
21
-8.25956
0
LINE
8
BLACK
6
CONTINUOUS
10
1.97202
20
-8.25956
11
1.96829
21
-8.27831
0
LINE
8
BLACK
6
CONTINUOUS
10
1.96829
20
-8.27831
11
1.96098
21
-8.29596
0
LINE
8
BLACK
6
CONTINUOUS
10
1.96098
20
-8.29596
11
1.95036
21
-8.31185
0
LINE
8
BLACK
6
CONTINUOUS
10
1.95036
20
-8.31185
11
1.93685
21
-8.32537
0
LINE
8
BLACK
6
CONTINUOUS
10
1.93685
20
-8.32537
11
1.92096
21
-8.33599
0
LINE
8
BLACK
6
CONTINUOUS
10
1.92096
20
-8.33599
11
1.9033
21
-8.3433
0
LINE
8
BLACK
6
CONTINUOUS
10
1.9033
20
-8.3433
11
1.88456
21
-8.34703
0
LINE
8
BLACK
6
CONTINUOUS
10
1.88456
20
-8.34703
11
1.86545
21
-8.34703
0
LINE
8
BLACK
6
CONTINUOUS
10
1.86545
20
-8.34703
11
1.8467
21
-8.3433
0
LINE
8
BLACK
6
CONTINUOUS
10
1.8467
20
-8.3433
11
1.82905
21
-8.33599
0
LINE
8
BLACK
6
CONTINUOUS
10
1.82905
20
-8.33599
11
1.81315
21
-8.32537
0
LINE
8
BLACK
6
CONTINUOUS
10
1.81315
20
-8.32537
11
1.79964
21
-8.31185
0
LINE
8
BLACK
6
CONTINUOUS
10
1.79964
20
-8.31185
11
1.78902
21
-8.29596
0
LINE
8
BLACK
6
CONTINUOUS
10
1.78902
20
-8.29596
11
1.78171
21
-8.27831
0
LINE
8
BLACK
6
CONTINUOUS
10
1.78171
20
-8.27831
11
1.77798
21
-8.25956
0
LINE
8
BLACK
6
CONTINUOUS
10
1.77798
20
-8.25956
11
1.77798
21
-8.24045
0
LINE
8
BLACK
6
CONTINUOUS
10
1.77798
20
-8.24045
11
1.78171
21
-8.22171
0
LINE
8
BLACK
6
CONTINUOUS
10
1.78811
20
-8.27636
11
1.79493
21
-8.29281
0
LINE
8
BLACK
6
CONTINUOUS
10
1.79493
20
-8.29281
11
1.80481
21
-8.30761
0
LINE
8
BLACK
6
CONTINUOUS
10
1.80481
20
-8.30761
11
1.8174
21
-8.32019
0
LINE
8
BLACK
6
CONTINUOUS
10
1.8174
20
-8.32019
11
1.8322
21
-8.33008
0
LINE
8
BLACK
6
CONTINUOUS
10
1.8322
20
-8.33008
11
1.84864
21
-8.33689
0
LINE
8
BLACK
6
CONTINUOUS
10
1.84864
20
-8.33689
11
1.8661
21
-8.34037
0
LINE
8
BLACK
6
CONTINUOUS
10
1.8661
20
-8.34037
11
1.8839
21
-8.34037
0
LINE
8
BLACK
6
CONTINUOUS
10
1.8839
20
-8.34037
11
1.90136
21
-8.33689
0
LINE
8
BLACK
6
CONTINUOUS
10
1.90136
20
-8.33689
11
1.9178
21
-8.33008
0
LINE
8
BLACK
6
CONTINUOUS
10
1.9178
20
-8.33008
11
1.9326
21
-8.32019
0
LINE
8
BLACK
6
CONTINUOUS
10
1.9326
20
-8.32019
11
1.94519
21
-8.30761
0
LINE
8
BLACK
6
CONTINUOUS
10
1.94519
20
-8.30761
11
1.95508
21
-8.29281
0
LINE
8
BLACK
6
CONTINUOUS
10
1.95508
20
-8.29281
11
1.96189
21
-8.27636
0
LINE
8
BLACK
6
CONTINUOUS
10
1.96189
20
-8.27636
11
1.96536
21
-8.25891
0
LINE
8
BLACK
6
CONTINUOUS
10
1.96536
20
-8.25891
11
1.96536
21
-8.24111
0
LINE
8
BLACK
6
CONTINUOUS
10
1.96536
20
-8.24111
11
1.96189
21
-8.22365
0
LINE
8
BLACK
6
CONTINUOUS
10
1.96189
20
-8.22365
11
1.95508
21
-8.20721
0
LINE
8
BLACK
6
CONTINUOUS
10
1.95508
20
-8.20721
11
1.94519
21
-8.19241
0
LINE
8
BLACK
6
CONTINUOUS
10
1.94519
20
-8.19241
11
1.9326
21
-8.17982
0
LINE
8
BLACK
6
CONTINUOUS
10
1.9326
20
-8.17982
11
1.9178
21
-8.16993
0
LINE
8
BLACK
6
CONTINUOUS
10
1.9178
20
-8.16993
11
1.90136
21
-8.16312
0
LINE
8
BLACK
6
CONTINUOUS
10
1.90136
20
-8.16312
11
1.8839
21
-8.15965
0
LINE
8
BLACK
6
CONTINUOUS
10
1.8839
20
-8.15965
11
1.8661
21
-8.15965
0
LINE
8
BLACK
6
CONTINUOUS
10
1.8661
20
-8.15965
11
1.84864
21
-8.16312
0
LINE
8
BLACK
6
CONTINUOUS
10
1.84864
20
-8.16312
11
1.8322
21
-8.16993
0
LINE
8
BLACK
6
CONTINUOUS
10
1.8322
20
-8.16993
11
1.8174
21
-8.17982
0
LINE
8
BLACK
6
CONTINUOUS
10
1.8174
20
-8.17982
11
1.80481
21
-8.19241
0
LINE
8
BLACK
6
CONTINUOUS
10
1.80481
20
-8.19241
11
1.79493
21
-8.20721
0
LINE
8
BLACK
6
CONTINUOUS
10
1.79493
20
-8.20721
11
1.78811
21
-8.22365
0
LINE
8
BLACK
6
CONTINUOUS
10
1.78811
20
-8.22365
11
1.78464
21
-8.24111
0
LINE
8
BLACK
6
CONTINUOUS
10
1.78464
20
-8.24111
11
1.78464
21
-8.25891
0
LINE
8
BLACK
6
CONTINUOUS
10
1.78464
20
-8.25891
11
1.78811
21
-8.27636
0
LINE
8
BLACK
6
CONTINUOUS
10
8.53171
20
-8.22171
11
8.53903
21
-8.20405
0
LINE
8
BLACK
6
CONTINUOUS
10
8.53903
20
-8.20405
11
8.54965
21
-8.18816
0
LINE
8
BLACK
6
CONTINUOUS
10
8.54965
20
-8.18816
11
8.56316
21
-8.17465
0
LINE
8
BLACK
6
CONTINUOUS
10
8.56316
20
-8.17465
11
8.57905
21
-8.16403
0
LINE
8
BLACK
6
CONTINUOUS
10
8.57905
20
-8.16403
11
8.59671
21
-8.15671
0
LINE
8
BLACK
6
CONTINUOUS
10
8.59671
20
-8.15671
11
8.61545
21
-8.15299
0
LINE
8
BLACK
6
CONTINUOUS
10
8.61545
20
-8.15299
11
8.63456
21
-8.15299
0
LINE
8
BLACK
6
CONTINUOUS
10
8.63456
20
-8.15299
11
8.65331
21
-8.15671
0
LINE
8
BLACK
6
CONTINUOUS
10
8.65331
20
-8.15671
11
8.67096
21
-8.16403
0
LINE
8
BLACK
6
CONTINUOUS
10
8.67096
20
-8.16403
11
8.68685
21
-8.17465
0
LINE
8
BLACK
6
CONTINUOUS
10
8.68685
20
-8.17465
11
8.70037
21
-8.18816
0
LINE
8
BLACK
6
CONTINUOUS
10
8.70037
20
-8.18816
11
8.71099
21
-8.20405
0
LINE
8
BLACK
6
CONTINUOUS
10
8.71099
20
-8.20405
11
8.7183
21
-8.22171
0
LINE
8
BLACK
6
CONTINUOUS
10
8.7183
20
-8.22171
11
8.72203
21
-8.24045
0
LINE
8
BLACK
6
CONTINUOUS
10
8.72203
20
-8.24045
11
8.72203
21
-8.25956
0
LINE
8
BLACK
6
CONTINUOUS
10
8.72203
20
-8.25956
11
8.7183
21
-8.27831
0
LINE
8
BLACK
6
CONTINUOUS
10
8.7183
20
-8.27831
11
8.71099
21
-8.29596
0
LINE
8
BLACK
6
CONTINUOUS
10
8.71099
20
-8.29596
11
8.70037
21
-8.31185
0
LINE
8
BLACK
6
CONTINUOUS
10
8.70037
20
-8.31185
11
8.68685
21
-8.32537
0
LINE
8
BLACK
6
CONTINUOUS
10
8.68685
20
-8.32537
11
8.67096
21
-8.33599
0
LINE
8
BLACK
6
CONTINUOUS
10
8.67096
20
-8.33599
11
8.65331
21
-8.3433
0
LINE
8
BLACK
6
CONTINUOUS
10
8.65331
20
-8.3433
11
8.63456
21
-8.34703
0
LINE
8
BLACK
6
CONTINUOUS
10
8.63456
20
-8.34703
11
8.61545
21
-8.34703
0
LINE
8
BLACK
6
CONTINUOUS
10
8.61545
20
-8.34703
11
8.59671
21
-8.3433
0
LINE
8
BLACK
6
CONTINUOUS
10
8.59671
20
-8.3433
11
8.57905
21
-8.33599
0
LINE
8
BLACK
6
CONTINUOUS
10
8.57905
20
-8.33599
11
8.56316
21
-8.32537
0
LINE
8
BLACK
6
CONTINUOUS
10
8.56316
20
-8.32537
11
8.54965
21
-8.31185
0
LINE
8
BLACK
6
CONTINUOUS
10
8.54965
20
-8.31185
11
8.53903
21
-8.29596
0
LINE
8
BLACK
6
CONTINUOUS
10
8.53903
20
-8.29596
11
8.53171
21
-8.27831
0
LINE
8
BLACK
6
CONTINUOUS
10
8.53171
20
-8.27831
11
8.52799
21
-8.25956
0
LINE
8
BLACK
6
CONTINUOUS
10
8.52799
20
-8.25956
11
8.52799
21
-8.24045
0
LINE
8
BLACK
6
CONTINUOUS
10
8.52799
20
-8.24045
11
8.53171
21
-8.22171
0
LINE
8
BLACK
6
CONTINUOUS
10
8.53812
20
-8.27636
11
8.54493
21
-8.29281
0
LINE
8
BLACK
6
CONTINUOUS
10
8.54493
20
-8.29281
11
8.55482
21
-8.30761
0
LINE
8
BLACK
6
CONTINUOUS
10
8.55482
20
-8.30761
11
8.56741
21
-8.32019
0
LINE
8
BLACK
6
CONTINUOUS
10
8.56741
20
-8.32019
11
8.58221
21
-8.33008
0
LINE
8
BLACK
6
CONTINUOUS
10
8.58221
20
-8.33008
11
8.59865
21
-8.33689
0
LINE
8
BLACK
6
CONTINUOUS
10
8.59865
20
-8.33689
11
8.61611
21
-8.34037
0
LINE
8
BLACK
6
CONTINUOUS
10
8.61611
20
-8.34037
11
8.63391
21
-8.34037
0
LINE
8
BLACK
6
CONTINUOUS
10
8.63391
20
-8.34037
11
8.65136
21
-8.33689
0
LINE
8
BLACK
6
CONTINUOUS
10
8.65136
20
-8.33689
11
8.66781
21
-8.33008
0
LINE
8
BLACK
6
CONTINUOUS
10
8.66781
20
-8.33008
11
8.68261
21
-8.32019
0
LINE
8
BLACK
6
CONTINUOUS
10
8.68261
20
-8.32019
11
8.69519
21
-8.30761
0
LINE
8
BLACK
6
CONTINUOUS
10
8.69519
20
-8.30761
11
8.70508
21
-8.29281
0
LINE
8
BLACK
6
CONTINUOUS
10
8.70508
20
-8.29281
11
8.71189
21
-8.27636
0
LINE
8
BLACK
6
CONTINUOUS
10
8.71189
20
-8.27636
11
8.71537
21
-8.25891
0
LINE
8
BLACK
6
CONTINUOUS
10
8.71537
20
-8.25891
11
8.71537
21
-8.24111
0
LINE
8
BLACK
6
CONTINUOUS
10
8.71537
20
-8.24111
11
8.71189
21
-8.22365
0
LINE
8
BLACK
6
CONTINUOUS
10
8.71189
20
-8.22365
11
8.70508
21
-8.20721
0
LINE
8
BLACK
6
CONTINUOUS
10
8.70508
20
-8.20721
11
8.69519
21
-8.19241
0
LINE
8
BLACK
6
CONTINUOUS
10
8.69519
20
-8.19241
11
8.68261
21
-8.17982
0
LINE
8
BLACK
6
CONTINUOUS
10
8.68261
20
-8.17982
11
8.66781
21
-8.16993
0
LINE
8
BLACK
6
CONTINUOUS
10
8.66781
20
-8.16993
11
8.65136
21
-8.16312
0
LINE
8
BLACK
6
CONTINUOUS
10
8.65136
20
-8.16312
11
8.63391
21
-8.15965
0
LINE
8
BLACK
6
CONTINUOUS
10
8.63391
20
-8.15965
11
8.61611
21
-8.15965
0
LINE
8
BLACK
6
CONTINUOUS
10
8.61611
20
-8.15965
11
8.59865
21
-8.16312
0
LINE
8
BLACK
6
CONTINUOUS
10
8.59865
20
-8.16312
11
8.58221
21
-8.16993
0
LINE
8
BLACK
6
CONTINUOUS
10
8.58221
20
-8.16993
11
8.56741
21
-8.17982
0
LINE
8
BLACK
6
CONTINUOUS
10
8.56741
20
-8.17982
11
8.55482
21
-8.19241
0
LINE
8
BLACK
6
CONTINUOUS
10
8.55482
20
-8.19241
11
8.54493
21
-8.20721
0
LINE
8
BLACK
6
CONTINUOUS
10
8.54493
20
-8.20721
11
8.53812
21
-8.22365
0
LINE
8
BLACK
6
CONTINUOUS
10
8.53812
20
-8.22365
11
8.53465
21
-8.24111
0
LINE
8
BLACK
6
CONTINUOUS
10
8.53465
20
-8.24111
11
8.53465
21
-8.25891
0
LINE
8
BLACK
6
CONTINUOUS
10
8.53465
20
-8.25891
11
8.53812
21
-8.27636
0
LINE
8
BLACK
6
CONTINUOUS
10
11.5317
20
-8.22171
11
11.539
21
-8.20405
0
LINE
8
BLACK
6
CONTINUOUS
10
11.539
20
-8.20405
11
11.5496
21
-8.18816
0
LINE
8
BLACK
6
CONTINUOUS
10
11.5496
20
-8.18816
11
11.5632
21
-8.17465
0
LINE
8
BLACK
6
CONTINUOUS
10
11.5632
20
-8.17465
11
11.5791
21
-8.16403
0
LINE
8
BLACK
6
CONTINUOUS
10
11.5791
20
-8.16403
11
11.5967
21
-8.15671
0
LINE
8
BLACK
6
CONTINUOUS
10
11.5967
20
-8.15671
11
11.6155
21
-8.15299
0
LINE
8
BLACK
6
CONTINUOUS
10
11.6155
20
-8.15299
11
11.6346
21
-8.15299
0
LINE
8
BLACK
6
CONTINUOUS
10
11.6346
20
-8.15299
11
11.6533
21
-8.15671
0
LINE
8
BLACK
6
CONTINUOUS
10
11.6533
20
-8.15671
11
11.671
21
-8.16403
0
LINE
8
BLACK
6
CONTINUOUS
10
11.671
20
-8.16403
11
11.6869
21
-8.17465
0
LINE
8
BLACK
6
CONTINUOUS
10
11.6869
20
-8.17465
11
11.7004
21
-8.18816
0
LINE
8
BLACK
6
CONTINUOUS
10
11.7004
20
-8.18816
11
11.711
21
-8.20405
0
LINE
8
BLACK
6
CONTINUOUS
10
11.711
20
-8.20405
11
11.7183
21
-8.22171
0
LINE
8
BLACK
6
CONTINUOUS
10
11.7183
20
-8.22171
11
11.722
21
-8.24045
0
LINE
8
BLACK
6
CONTINUOUS
10
11.722
20
-8.24045
11
11.722
21
-8.25956
0
LINE
8
BLACK
6
CONTINUOUS
10
11.722
20
-8.25956
11
11.7183
21
-8.27831
0
LINE
8
BLACK
6
CONTINUOUS
10
11.7183
20
-8.27831
11
11.711
21
-8.29596
0
LINE
8
BLACK
6
CONTINUOUS
10
11.711
20
-8.29596
11
11.7004
21
-8.31185
0
LINE
8
BLACK
6
CONTINUOUS
10
11.7004
20
-8.31185
11
11.6869
21
-8.32537
0
LINE
8
BLACK
6
CONTINUOUS
10
11.6869
20
-8.32537
11
11.671
21
-8.33599
0
LINE
8
BLACK
6
CONTINUOUS
10
11.671
20
-8.33599
11
11.6533
21
-8.3433
0
LINE
8
BLACK
6
CONTINUOUS
10
11.6533
20
-8.3433
11
11.6346
21
-8.34703
0
LINE
8
BLACK
6
CONTINUOUS
10
11.6346
20
-8.34703
11
11.6155
21
-8.34703
0
LINE
8
BLACK
6
CONTINUOUS
10
11.6155
20
-8.34703
11
11.5967
21
-8.3433
0
LINE
8
BLACK
6
CONTINUOUS
10
11.5967
20
-8.3433
11
11.5791
21
-8.33599
0
LINE
8
BLACK
6
CONTINUOUS
10
11.5791
20
-8.33599
11
11.5632
21
-8.32537
0
LINE
8
BLACK
6
CONTINUOUS
10
11.5632
20
-8.32537
11
11.5496
21
-8.31185
0
LINE
8
BLACK
6
CONTINUOUS
10
11.5496
20
-8.31185
11
11.539
21
-8.29596
0
LINE
8
BLACK
6
CONTINUOUS
10
11.539
20
-8.29596
11
11.5317
21
-8.27831
0
LINE
8
BLACK
6
CONTINUOUS
10
11.5317
20
-8.27831
11
11.528
21
-8.25956
0
LINE
8
BLACK
6
CONTINUOUS
10
11.528
20
-8.25956
11
11.528
21
-8.24045
0
LINE
8
BLACK
6
CONTINUOUS
10
11.528
20
-8.24045
11
11.5317
21
-8.22171
0
LINE
8
BLACK
6
CONTINUOUS
10
11.5381
20
-8.27636
11
11.5449
21
-8.29281
0
LINE
8
BLACK
6
CONTINUOUS
10
11.5449
20
-8.29281
11
11.5548
21
-8.30761
0
LINE
8
BLACK
6
CONTINUOUS
10
11.5548
20
-8.30761
11
11.5674
21
-8.32019
0
LINE
8
BLACK
6
CONTINUOUS
10
11.5674
20
-8.32019
11
11.5822
21
-8.33008
0
LINE
8
BLACK
6
CONTINUOUS
10
11.5822
20
-8.33008
11
11.5987
21
-8.33689
0
LINE
8
BLACK
6
CONTINUOUS
10
11.5987
20
-8.33689
11
11.6161
21
-8.34037
0
LINE
8
BLACK
6
CONTINUOUS
10
11.6161
20
-8.34037
11
11.6339
21
-8.34037
0
LINE
8
BLACK
6
CONTINUOUS
10
11.6339
20
-8.34037
11
11.6514
21
-8.33689
0
LINE
8
BLACK
6
CONTINUOUS
10
11.6514
20
-8.33689
11
11.6678
21
-8.33008
0
LINE
8
BLACK
6
CONTINUOUS
10
11.6678
20
-8.33008
11
11.6826
21
-8.32019
0
LINE
8
BLACK
6
CONTINUOUS
10
11.6826
20
-8.32019
11
11.6952
21
-8.30761
0
LINE
8
BLACK
6
CONTINUOUS
10
11.6952
20
-8.30761
11
11.7051
21
-8.29281
0
LINE
8
BLACK
6
CONTINUOUS
10
11.7051
20
-8.29281
11
11.7119
21
-8.27636
0
LINE
8
BLACK
6
CONTINUOUS
10
11.7119
20
-8.27636
11
11.7154
21
-8.25891
0
LINE
8
BLACK
6
CONTINUOUS
10
11.7154
20
-8.25891
11
11.7154
21
-8.24111
0
LINE
8
BLACK
6
CONTINUOUS
10
11.7154
20
-8.24111
11
11.7119
21
-8.22365
0
LINE
8
BLACK
6
CONTINUOUS
10
11.7119
20
-8.22365
11
11.7051
21
-8.20721
0
LINE
8
BLACK
6
CONTINUOUS
10
11.7051
20
-8.20721
11
11.6952
21
-8.19241
0
LINE
8
BLACK
6
CONTINUOUS
10
11.6952
20
-8.19241
11
11.6826
21
-8.17982
0
LINE
8
BLACK
6
CONTINUOUS
10
11.6826
20
-8.17982
11
11.6678
21
-8.16993
0
LINE
8
BLACK
6
CONTINUOUS
10
11.6678
20
-8.16993
11
11.6514
21
-8.16312
0
LINE
8
BLACK
6
CONTINUOUS
10
11.6514
20
-8.16312
11
11.6339
21
-8.15965
0
LINE
8
BLACK
6
CONTINUOUS
10
11.6339
20
-8.15965
11
11.6161
21
-8.15965
0
LINE
8
BLACK
6
CONTINUOUS
10
11.6161
20
-8.15965
11
11.5987
21
-8.16312
0
LINE
8
BLACK
6
CONTINUOUS
10
11.5987
20
-8.16312
11
11.5822
21
-8.16993
0
LINE
8
BLACK
6
CONTINUOUS
10
11.5822
20
-8.16993
11
11.5674
21
-8.17982
0
LINE
8
BLACK
6
CONTINUOUS
10
11.5674
20
-8.17982
11
11.5548
21
-8.19241
0
LINE
8
BLACK
6
CONTINUOUS
10
11.5548
20
-8.19241
11
11.5449
21
-8.20721
0
LINE
8
BLACK
6
CONTINUOUS
10
11.5449
20
-8.20721
11
11.5381
21
-8.22365
0
LINE
8
BLACK
6
CONTINUOUS
10
11.5381
20
-8.22365
11
11.5346
21
-8.24111
0
LINE
8
BLACK
6
CONTINUOUS
10
11.5346
20
-8.24111
11
11.5346
21
-8.25891
0
LINE
8
BLACK
6
CONTINUOUS
10
11.5346
20
-8.25891
11
11.5381
21
-8.27636
0
LINE
8
BLACK
6
CONTINUOUS
10
11.5317
20
-4.4717
11
11.539
21
-4.45405
0
LINE
8
BLACK
6
CONTINUOUS
10
11.539
20
-4.45405
11
11.5496
21
-4.43816
0
LINE
8
BLACK
6
CONTINUOUS
10
11.5496
20
-4.43816
11
11.5632
21
-4.42464
0
LINE
8
BLACK
6
CONTINUOUS
10
11.5632
20
-4.42464
11
11.5791
21
-4.41403
0
LINE
8
BLACK
6
CONTINUOUS
10
11.5791
20
-4.41403
11
11.5967
21
-4.40671
0
LINE
8
BLACK
6
CONTINUOUS
10
11.5967
20
-4.40671
11
11.6155
21
-4.40298
0
LINE
8
BLACK
6
CONTINUOUS
10
11.6155
20
-4.40298
11
11.6346
21
-4.40298
0
LINE
8
BLACK
6
CONTINUOUS
10
11.6346
20
-4.40298
11
11.6533
21
-4.40671
0
LINE
8
BLACK
6
CONTINUOUS
10
11.6533
20
-4.40671
11
11.671
21
-4.41403
0
LINE
8
BLACK
6
CONTINUOUS
10
11.671
20
-4.41403
11
11.6869
21
-4.42464
0
LINE
8
BLACK
6
CONTINUOUS
10
11.6869
20
-4.42464
11
11.7004
21
-4.43816
0
LINE
8
BLACK
6
CONTINUOUS
10
11.7004
20
-4.43816
11
11.711
21
-4.45405
0
LINE
8
BLACK
6
CONTINUOUS
10
11.711
20
-4.45405
11
11.7183
21
-4.4717
0
LINE
8
BLACK
6
CONTINUOUS
10
11.7183
20
-4.4717
11
11.722
21
-4.49045
0
LINE
8
BLACK
6
CONTINUOUS
10
11.722
20
-4.49045
11
11.722
21
-4.50956
0
LINE
8
BLACK
6
CONTINUOUS
10
11.722
20
-4.50956
11
11.7183
21
-4.5283
0
LINE
8
BLACK
6
CONTINUOUS
10
11.7183
20
-4.5283
11
11.711
21
-4.54596
0
LINE
8
BLACK
6
CONTINUOUS
10
11.711
20
-4.54596
11
11.7004
21
-4.56185
0
LINE
8
BLACK
6
CONTINUOUS
10
11.7004
20
-4.56185
11
11.6869
21
-4.57536
0
LINE
8
BLACK
6
CONTINUOUS
10
11.6869
20
-4.57536
11
11.671
21
-4.58598
0
LINE
8
BLACK
6
CONTINUOUS
10
11.671
20
-4.58598
11
11.6533
21
-4.5933
0
LINE
8
BLACK
6
CONTINUOUS
10
11.6533
20
-4.5933
11
11.6346
21
-4.59702
0
LINE
8
BLACK
6
CONTINUOUS
10
11.6346
20
-4.59702
11
11.6155
21
-4.59702
0
LINE
8
BLACK
6
CONTINUOUS
10
11.6155
20
-4.59702
11
11.5967
21
-4.5933
0
LINE
8
BLACK
6
CONTINUOUS
10
11.5967
20
-4.5933
11
11.5791
21
-4.58598
0
LINE
8
BLACK
6
CONTINUOUS
10
11.5791
20
-4.58598
11
11.5632
21
-4.57536
0
LINE
8
BLACK
6
CONTINUOUS
10
11.5632
20
-4.57536
11
11.5496
21
-4.56185
0
LINE
8
BLACK
6
CONTINUOUS
10
11.5496
20
-4.56185
11
11.539
21
-4.54596
0
LINE
8
BLACK
6
CONTINUOUS
10
11.539
20
-4.54596
11
11.5317
21
-4.5283
0
LINE
8
BLACK
6
CONTINUOUS
10
11.5317
20
-4.5283
11
11.528
21
-4.50956
0
LINE
8
BLACK
6
CONTINUOUS
10
11.528
20
-4.50956
11
11.528
21
-4.49045
0
LINE
8
BLACK
6
CONTINUOUS
10
11.528
20
-4.49045
11
11.5317
21
-4.4717
0
LINE
8
BLACK
6
CONTINUOUS
10
11.5381
20
-4.52636
11
11.5449
21
-4.54281
0
LINE
8
BLACK
6
CONTINUOUS
10
11.5449
20
-4.54281
11
11.5548
21
-4.5576
0
LINE
8
BLACK
6
CONTINUOUS
10
11.5548
20
-4.5576
11
11.5674
21
-4.57019
0
LINE
8
BLACK
6
CONTINUOUS
10
11.5674
20
-4.57019
11
11.5822
21
-4.58008
0
LINE
8
BLACK
6
CONTINUOUS
10
11.5822
20
-4.58008
11
11.5987
21
-4.58689
0
LINE
8
BLACK
6
CONTINUOUS
10
11.5987
20
-4.58689
11
11.6161
21
-4.59036
0
LINE
8
BLACK
6
CONTINUOUS
10
11.6161
20
-4.59036
11
11.6339
21
-4.59036
0
LINE
8
BLACK
6
CONTINUOUS
10
11.6339
20
-4.59036
11
11.6514
21
-4.58689
0
LINE
8
BLACK
6
CONTINUOUS
10
11.6514
20
-4.58689
11
11.6678
21
-4.58008
0
LINE
8
BLACK
6
CONTINUOUS
10
11.6678
20
-4.58008
11
11.6826
21
-4.57019
0
LINE
8
BLACK
6
CONTINUOUS
10
11.6826
20
-4.57019
11
11.6952
21
-4.5576
0
LINE
8
BLACK
6
CONTINUOUS
10
11.6952
20
-4.5576
11
11.7051
21
-4.54281
0
LINE
8
BLACK
6
CONTINUOUS
10
11.7051
20
-4.54281
11
11.7119
21
-4.52636
0
LINE
8
BLACK
6
CONTINUOUS
10
11.7119
20
-4.52636
11
11.7154
21
-4.5089
0
LINE
8
BLACK
6
CONTINUOUS
10
11.7154
20
-4.5089
11
11.7154
21
-4.4911
0
LINE
8
BLACK
6
CONTINUOUS
10
11.7154
20
-4.4911
11
11.7119
21
-4.47365
0
LINE
8
BLACK
6
CONTINUOUS
10
11.7119
20
-4.47365
11
11.7051
21
-4.4572
0
LINE
8
BLACK
6
CONTINUOUS
10
11.7051
20
-4.4572
11
11.6952
21
-4.4424
0
LINE
8
BLACK
6
CONTINUOUS
10
11.6952
20
-4.4424
11
11.6826
21
-4.42982
0
LINE
8
BLACK
6
CONTINUOUS
10
11.6826
20
-4.42982
11
11.6678
21
-4.41993
0
LINE
8
BLACK
6
CONTINUOUS
10
11.6678
20
-4.41993
11
11.6514
21
-4.41312
0
LINE
8
BLACK
6
CONTINUOUS
10
11.6514
20
-4.41312
11
11.6339
21
-4.40964
0
LINE
8
BLACK
6
CONTINUOUS
10
11.6339
20
-4.40964
11
11.6161
21
-4.40964
0
LINE
8
BLACK
6
CONTINUOUS
10
11.6161
20
-4.40964
11
11.5987
21
-4.41312
0
LINE
8
BLACK
6
CONTINUOUS
10
11.5987
20
-4.41312
11
11.5822
21
-4.41993
0
LINE
8
BLACK
6
CONTINUOUS
10
11.5822
20
-4.41993
11
11.5674
21
-4.42982
0
LINE
8
BLACK
6
CONTINUOUS
10
11.5674
20
-4.42982
11
11.5548
21
-4.4424
0
LINE
8
BLACK
6
CONTINUOUS
10
11.5548
20
-4.4424
11
11.5449
21
-4.4572
0
LINE
8
BLACK
6
CONTINUOUS
10
11.5449
20
-4.4572
11
11.5381
21
-4.47365
0
LINE
8
BLACK
6
CONTINUOUS
10
11.5381
20
-4.47365
11
11.5346
21
-4.4911
0
LINE
8
BLACK
6
CONTINUOUS
10
11.5346
20
-4.4911
11
11.5346
21
-4.5089
0
LINE
8
BLACK
6
CONTINUOUS
10
11.5346
20
-4.5089
11
11.5381
21
-4.52636
0
LINE
8
BLACK
6
CONTINUOUS
10
8.53171
20
-4.4717
11
8.53903
21
-4.45405
0
LINE
8
BLACK
6
CONTINUOUS
10
8.53903
20
-4.45405
11
8.54965
21
-4.43816
0
LINE
8
BLACK
6
CONTINUOUS
10
8.54965
20
-4.43816
11
8.56316
21
-4.42464
0
LINE
8
BLACK
6
CONTINUOUS
10
8.56316
20
-4.42464
11
8.57905
21
-4.41403
0
LINE
8
BLACK
6
CONTINUOUS
10
8.57905
20
-4.41403
11
8.59671
21
-4.40671
0
LINE
8
BLACK
6
CONTINUOUS
10
8.59671
20
-4.40671
11
8.61545
21
-4.40298
0
LINE
8
BLACK
6
CONTINUOUS
10
8.61545
20
-4.40298
11
8.63456
21
-4.40298
0
LINE
8
BLACK
6
CONTINUOUS
10
8.63456
20
-4.40298
11
8.65331
21
-4.40671
0
LINE
8
BLACK
6
CONTINUOUS
10
8.65331
20
-4.40671
11
8.67096
21
-4.41403
0
LINE
8
BLACK
6
CONTINUOUS
10
8.67096
20
-4.41403
11
8.68685
21
-4.42464
0
LINE
8
BLACK
6
CONTINUOUS
10
8.68685
20
-4.42464
11
8.70037
21
-4.43816
0
LINE
8
BLACK
6
CONTINUOUS
10
8.70037
20
-4.43816
11
8.71099
21
-4.45405
0
LINE
8
BLACK
6
CONTINUOUS
10
8.71099
20
-4.45405
11
8.7183
21
-4.4717
0
LINE
8
BLACK
6
CONTINUOUS
10
8.7183
20
-4.4717
11
8.72203
21
-4.49045
0
LINE
8
BLACK
6
CONTINUOUS
10
8.72203
20
-4.49045
11
8.72203
21
-4.50956
0
LINE
8
BLACK
6
CONTINUOUS
10
8.72203
20
-4.50956
11
8.7183
21
-4.5283
0
LINE
8
BLACK
6
CONTINUOUS
10
8.7183
20
-4.5283
11
8.71099
21
-4.54596
0
LINE
8
BLACK
6
CONTINUOUS
10
8.71099
20
-4.54596
11
8.70037
21
-4.56185
0
LINE
8
BLACK
6
CONTINUOUS
10
8.70037
20
-4.56185
11
8.68685
21
-4.57536
0
LINE
8
BLACK
6
CONTINUOUS
10
8.68685
20
-4.57536
11
8.67096
21
-4.58598
0
LINE
8
BLACK
6
CONTINUOUS
10
8.67096
20
-4.58598
11
8.65331
21
-4.5933
0
LINE
8
BLACK
6
CONTINUOUS
10
8.65331
20
-4.5933
11
8.63456
21
-4.59702
0
LINE
8
BLACK
6
CONTINUOUS
10
8.63456
20
-4.59702
11
8.61545
21
-4.59702
0
LINE
8
BLACK
6
CONTINUOUS
10
8.61545
20
-4.59702
11
8.59671
21
-4.5933
0
LINE
8
BLACK
6
CONTINUOUS
10
8.59671
20
-4.5933
11
8.57905
21
-4.58598
0
LINE
8
BLACK
6
CONTINUOUS
10
8.57905
20
-4.58598
11
8.56316
21
-4.57536
0
LINE
8
BLACK
6
CONTINUOUS
10
8.56316
20
-4.57536
11
8.54965
21
-4.56185
0
LINE
8
BLACK
6
CONTINUOUS
10
8.54965
20
-4.56185
11
8.53903
21
-4.54596
0
LINE
8
BLACK
6
CONTINUOUS
10
8.53903
20
-4.54596
11
8.53171
21
-4.5283
0
LINE
8
BLACK
6
CONTINUOUS
10
8.53171
20
-4.5283
11
8.52799
21
-4.50956
0
LINE
8
BLACK
6
CONTINUOUS
10
8.52799
20
-4.50956
11
8.52799
21
-4.49045
0
LINE
8
BLACK
6
CONTINUOUS
10
8.52799
20
-4.49045
11
8.53171
21
-4.4717
0
LINE
8
BLACK
6
CONTINUOUS
10
8.53812
20
-4.52636
11
8.54493
21
-4.54281
0
LINE
8
BLACK
6
CONTINUOUS
10
8.54493
20
-4.54281
11
8.55482
21
-4.5576
0
LINE
8
BLACK
6
CONTINUOUS
10
8.55482
20
-4.5576
11
8.56741
21
-4.57019
0
LINE
8
BLACK
6
CONTINUOUS
10
8.56741
20
-4.57019
11
8.58221
21
-4.58008
0
LINE
8
BLACK
6
CONTINUOUS
10
8.58221
20
-4.58008
11
8.59865
21
-4.58689
0
LINE
8
BLACK
6
CONTINUOUS
10
8.59865
20
-4.58689
11
8.61611
21
-4.59036
0
LINE
8
BLACK
6
CONTINUOUS
10
8.61611
20
-4.59036
11
8.63391
21
-4.59036
0
LINE
8
BLACK
6
CONTINUOUS
10
8.63391
20
-4.59036
11
8.65136
21
-4.58689
0
LINE
8
BLACK
6
CONTINUOUS
10
8.65136
20
-4.58689
11
8.66781
21
-4.58008
0
LINE
8
BLACK
6
CONTINUOUS
10
8.66781
20
-4.58008
11
8.68261
21
-4.57019
0
LINE
8
BLACK
6
CONTINUOUS
10
8.68261
20
-4.57019
11
8.69519
21
-4.5576
0
LINE
8
BLACK
6
CONTINUOUS
10
8.69519
20
-4.5576
11
8.70508
21
-4.54281
0
LINE
8
BLACK
6
CONTINUOUS
10
8.70508
20
-4.54281
11
8.71189
21
-4.52636
0
LINE
8
BLACK
6
CONTINUOUS
10
8.71189
20
-4.52636
11
8.71537
21
-4.5089
0
LINE
8
BLACK
6
CONTINUOUS
10
8.71537
20
-4.5089
11
8.71537
21
-4.4911
0
LINE
8
BLACK
6
CONTINUOUS
10
8.71537
20
-4.4911
11
8.71189
21
-4.47365
0
LINE
8
BLACK
6
CONTINUOUS
10
8.71189
20
-4.47365
11
8.70508
21
-4.4572
0
LINE
8
BLACK
6
CONTINUOUS
10
8.70508
20
-4.4572
11
8.69519
21
-4.4424
0
LINE
8
BLACK
6
CONTINUOUS
10
8.69519
20
-4.4424
11
8.68261
21
-4.42982
0
LINE
8
BLACK
6
CONTINUOUS
10
8.68261
20
-4.42982
11
8.66781
21
-4.41993
0
LINE
8
BLACK
6
CONTINUOUS
10
8.66781
20
-4.41993
11
8.65136
21
-4.41312
0
LINE
8
BLACK
6
CONTINUOUS
10
8.65136
20
-4.41312
11
8.63391
21
-4.40964
0
LINE
8
BLACK
6
CONTINUOUS
10
8.63391
20
-4.40964
11
8.61611
21
-4.40964
0
LINE
8
BLACK
6
CONTINUOUS
10
8.61611
20
-4.40964
11
8.59865
21
-4.41312
0
LINE
8
BLACK
6
CONTINUOUS
10
8.59865
20
-4.41312
11
8.58221
21
-4.41993
0
LINE
8
BLACK
6
CONTINUOUS
10
8.58221
20
-4.41993
11
8.56741
21
-4.42982
0
LINE
8
BLACK
6
CONTINUOUS
10
8.56741
20
-4.42982
11
8.55482
21
-4.4424
0
LINE
8
BLACK
6
CONTINUOUS
10
8.55482
20
-4.4424
11
8.54493
21
-4.4572
0
LINE
8
BLACK
6
CONTINUOUS
10
8.54493
20
-4.4572
11
8.53812
21
-4.47365
0
LINE
8
BLACK
6
CONTINUOUS
10
8.53812
20
-4.47365
11
8.53465
21
-4.4911
0
LINE
8
BLACK
6
CONTINUOUS
10
8.53465
20
-4.4911
11
8.53465
21
-4.5089
0
LINE
8
BLACK
6
CONTINUOUS
10
8.53465
20
-4.5089
11
8.53812
21
-4.52636
0
LINE
8
BLACK
6
CONTINUOUS
10
4.78171
20
-4.4717
11
4.78903
21
-4.45405
0
LINE
8
BLACK
6
CONTINUOUS
10
4.78903
20
-4.45405
11
4.79964
21
-4.43816
0
LINE
8
BLACK
6
CONTINUOUS
10
4.79964
20
-4.43816
11
4.81316
21
-4.42464
0
LINE
8
BLACK
6
CONTINUOUS
10
4.81316
20
-4.42464
11
4.82905
21
-4.41403
0
LINE
8
BLACK
6
CONTINUOUS
10
4.82905
20
-4.41403
11
4.8467
21
-4.40671
0
LINE
8
BLACK
6
CONTINUOUS
10
4.8467
20
-4.40671
11
4.86545
21
-4.40298
0
LINE
8
BLACK
6
CONTINUOUS
10
4.86545
20
-4.40298
11
4.88456
21
-4.40298
0
LINE
8
BLACK
6
CONTINUOUS
10
4.88456
20
-4.40298
11
4.9033
21
-4.40671
0
LINE
8
BLACK
6
CONTINUOUS
10
4.9033
20
-4.40671
11
4.92096
21
-4.41403
0
LINE
8
BLACK
6
CONTINUOUS
10
4.92096
20
-4.41403
11
4.93685
21
-4.42464
0
LINE
8
BLACK
6
CONTINUOUS
10
4.93685
20
-4.42464
11
4.95037
21
-4.43816
0
LINE
8
BLACK
6
CONTINUOUS
10
4.95037
20
-4.43816
11
4.96098
21
-4.45405
0
LINE
8
BLACK
6
CONTINUOUS
10
4.96098
20
-4.45405
11
4.9683
21
-4.4717
0
LINE
8
BLACK
6
CONTINUOUS
10
4.9683
20
-4.4717
11
4.97202
21
-4.49045
0
LINE
8
BLACK
6
CONTINUOUS
10
4.97202
20
-4.49045
11
4.97202
21
-4.50956
0
LINE
8
BLACK
6
CONTINUOUS
10
4.97202
20
-4.50956
11
4.9683
21
-4.5283
0
LINE
8
BLACK
6
CONTINUOUS
10
4.9683
20
-4.5283
11
4.96098
21
-4.54596
0
LINE
8
BLACK
6
CONTINUOUS
10
4.96098
20
-4.54596
11
4.95037
21
-4.56185
0
LINE
8
BLACK
6
CONTINUOUS
10
4.95037
20
-4.56185
11
4.93685
21
-4.57536
0
LINE
8
BLACK
6
CONTINUOUS
10
4.93685
20
-4.57536
11
4.92096
21
-4.58598
0
LINE
8
BLACK
6
CONTINUOUS
10
4.92096
20
-4.58598
11
4.9033
21
-4.5933
0
LINE
8
BLACK
6
CONTINUOUS
10
4.9033
20
-4.5933
11
4.88456
21
-4.59702
0
LINE
8
BLACK
6
CONTINUOUS
10
4.88456
20
-4.59702
11
4.86545
21
-4.59702
0
LINE
8
BLACK
6
CONTINUOUS
10
4.86545
20
-4.59702
11
4.8467
21
-4.5933
0
LINE
8
BLACK
6
CONTINUOUS
10
4.8467
20
-4.5933
11
4.82905
21
-4.58598
0
LINE
8
BLACK
6
CONTINUOUS
10
4.82905
20
-4.58598
11
4.81316
21
-4.57536
0
LINE
8
BLACK
6
CONTINUOUS
10
4.81316
20
-4.57536
11
4.79964
21
-4.56185
0
LINE
8
BLACK
6
CONTINUOUS
10
4.79964
20
-4.56185
11
4.78903
21
-4.54596
0
LINE
8
BLACK
6
CONTINUOUS
10
4.78903
20
-4.54596
11
4.78171
21
-4.5283
0
LINE
8
BLACK
6
CONTINUOUS
10
4.78171
20
-4.5283
11
4.77798
21
-4.50956
0
LINE
8
BLACK
6
CONTINUOUS
10
4.77798
20
-4.50956
11
4.77798
21
-4.49045
0
LINE
8
BLACK
6
CONTINUOUS
10
4.77798
20
-4.49045
11
4.78171
21
-4.4717
0
LINE
8
BLACK
6
CONTINUOUS
10
4.78812
20
-4.52636
11
4.79493
21
-4.54281
0
LINE
8
BLACK
6
CONTINUOUS
10
4.79493
20
-4.54281
11
4.80482
21
-4.5576
0
LINE
8
BLACK
6
CONTINUOUS
10
4.80482
20
-4.5576
11
4.8174
21
-4.57019
0
LINE
8
BLACK
6
CONTINUOUS
10
4.8174
20
-4.57019
11
4.8322
21
-4.58008
0
LINE
8
BLACK
6
CONTINUOUS
10
4.8322
20
-4.58008
11
4.84865
21
-4.58689
0
LINE
8
BLACK
6
CONTINUOUS
10
4.84865
20
-4.58689
11
4.8661
21
-4.59036
0
LINE
8
BLACK
6
CONTINUOUS
10
4.8661
20
-4.59036
11
4.8839
21
-4.59036
0
LINE
8
BLACK
6
CONTINUOUS
10
4.8839
20
-4.59036
11
4.90136
21
-4.58689
0
LINE
8
BLACK
6
CONTINUOUS
10
4.90136
20
-4.58689
11
4.91781
21
-4.58008
0
LINE
8
BLACK
6
CONTINUOUS
10
4.91781
20
-4.58008
11
4.93261
21
-4.57019
0
LINE
8
BLACK
6
CONTINUOUS
10
4.93261
20
-4.57019
11
4.94519
21
-4.5576
0
LINE
8
BLACK
6
CONTINUOUS
10
4.94519
20
-4.5576
11
4.95508
21
-4.54281
0
LINE
8
BLACK
6
CONTINUOUS
10
4.95508
20
-4.54281
11
4.96189
21
-4.52636
0
LINE
8
BLACK
6
CONTINUOUS
10
4.96189
20
-4.52636
11
4.96536
21
-4.5089
0
LINE
8
BLACK
6
CONTINUOUS
10
4.96536
20
-4.5089
11
4.96536
21
-4.4911
0
LINE
8
BLACK
6
CONTINUOUS
10
4.96536
20
-4.4911
11
4.96189
21
-4.47365
0
LINE
8
BLACK
6
CONTINUOUS
10
4.96189
20
-4.47365
11
4.95508
21
-4.4572
0
LINE
8
BLACK
6
CONTINUOUS
10
4.95508
20
-4.4572
11
4.94519
21
-4.4424
0
LINE
8
BLACK
6
CONTINUOUS
10
4.94519
20
-4.4424
11
4.93261
21
-4.42982
0
LINE
8
BLACK
6
CONTINUOUS
10
4.93261
20
-4.42982
11
4.91781
21
-4.41993
0
LINE
8
BLACK
6
CONTINUOUS
10
4.91781
20
-4.41993
11
4.90136
21
-4.41312
0
LINE
8
BLACK
6
CONTINUOUS
10
4.90136
20
-4.41312
11
4.8839
21
-4.40964
0
LINE
8
BLACK
6
CONTINUOUS
10
4.8839
20
-4.40964
11
4.8661
21
-4.40964
0
LINE
8
BLACK
6
CONTINUOUS
10
4.8661
20
-4.40964
11
4.84865
21
-4.41312
0
LINE
8
BLACK
6
CONTINUOUS
10
4.84865
20
-4.41312
11
4.8322
21
-4.41993
0
LINE
8
BLACK
6
CONTINUOUS
10
4.8322
20
-4.41993
11
4.8174
21
-4.42982
0
LINE
8
BLACK
6
CONTINUOUS
10
4.8174
20
-4.42982
11
4.80482
21
-4.4424
0
LINE
8
BLACK
6
CONTINUOUS
10
4.80482
20
-4.4424
11
4.79493
21
-4.4572
0
LINE
8
BLACK
6
CONTINUOUS
10
4.79493
20
-4.4572
11
4.78812
21
-4.47365
0
LINE
8
BLACK
6
CONTINUOUS
10
4.78812
20
-4.47365
11
4.78464
21
-4.4911
0
LINE
8
BLACK
6
CONTINUOUS
10
4.78464
20
-4.4911
11
4.78464
21
-4.5089
0
LINE
8
BLACK
6
CONTINUOUS
10
4.78464
20
-4.5089
11
4.78812
21
-4.52636
0
LINE
8
BLACK
6
CONTINUOUS
10
1.78171
20
-4.4717
11
1.78902
21
-4.45405
0
LINE
8
BLACK
6
CONTINUOUS
10
1.78902
20
-4.45405
11
1.79964
21
-4.43816
0
LINE
8
BLACK
6
CONTINUOUS
10
1.79964
20
-4.43816
11
1.81315
21
-4.42464
0
LINE
8
BLACK
6
CONTINUOUS
10
1.81315
20
-4.42464
11
1.82905
21
-4.41403
0
LINE
8
BLACK
6
CONTINUOUS
10
1.82905
20
-4.41403
11
1.8467
21
-4.40671
0
LINE
8
BLACK
6
CONTINUOUS
10
1.8467
20
-4.40671
11
1.86545
21
-4.40298
0
LINE
8
BLACK
6
CONTINUOUS
10
1.86545
20
-4.40298
11
1.88456
21
-4.40298
0
LINE
8
BLACK
6
CONTINUOUS
10
1.88456
20
-4.40298
11
1.9033
21
-4.40671
0
LINE
8
BLACK
6
CONTINUOUS
10
1.9033
20
-4.40671
11
1.92096
21
-4.41403
0
LINE
8
BLACK
6
CONTINUOUS
10
1.92096
20
-4.41403
11
1.93685
21
-4.42464
0
LINE
8
BLACK
6
CONTINUOUS
10
1.93685
20
-4.42464
11
1.95036
21
-4.43816
0
LINE
8
BLACK
6
CONTINUOUS
10
1.95036
20
-4.43816
11
1.96098
21
-4.45405
0
LINE
8
BLACK
6
CONTINUOUS
10
1.96098
20
-4.45405
11
1.96829
21
-4.4717
0
LINE
8
BLACK
6
CONTINUOUS
10
1.96829
20
-4.4717
11
1.97202
21
-4.49045
0
LINE
8
BLACK
6
CONTINUOUS
10
1.97202
20
-4.49045
11
1.97202
21
-4.50956
0
LINE
8
BLACK
6
CONTINUOUS
10
1.97202
20
-4.50956
11
1.96829
21
-4.5283
0
LINE
8
BLACK
6
CONTINUOUS
10
1.96829
20
-4.5283
11
1.96098
21
-4.54596
0
LINE
8
BLACK
6
CONTINUOUS
10
1.96098
20
-4.54596
11
1.95036
21
-4.56185
0
LINE
8
BLACK
6
CONTINUOUS
10
1.95036
20
-4.56185
11
1.93685
21
-4.57536
0
LINE
8
BLACK
6
CONTINUOUS
10
1.93685
20
-4.57536
11
1.92096
21
-4.58598
0
LINE
8
BLACK
6
CONTINUOUS
10
1.92096
20
-4.58598
11
1.9033
21
-4.5933
0
LINE
8
BLACK
6
CONTINUOUS
10
1.9033
20
-4.5933
11
1.88456
21
-4.59702
0
LINE
8
BLACK
6
CONTINUOUS
10
1.88456
20
-4.59702
11
1.86545
21
-4.59702
0
LINE
8
BLACK
6
CONTINUOUS
10
1.86545
20
-4.59702
11
1.8467
21
-4.5933
0
LINE
8
BLACK
6
CONTINUOUS
10
1.8467
20
-4.5933
11
1.82905
21
-4.58598
0
LINE
8
BLACK
6
CONTINUOUS
10
1.82905
20
-4.58598
11
1.81315
21
-4.57536
0
LINE
8
BLACK
6
CONTINUOUS
10
1.81315
20
-4.57536
11
1.79964
21
-4.56185
0
LINE
8
BLACK
6
CONTINUOUS
10
1.79964
20
-4.56185
11
1.78902
21
-4.54596
0
LINE
8
BLACK
6
CONTINUOUS
10
1.78902
20
-4.54596
11
1.78171
21
-4.5283
0
LINE
8
BLACK
6
CONTINUOUS
10
1.78171
20
-4.5283
11
1.77798
21
-4.50956
0
LINE
8
BLACK
6
CONTINUOUS
10
1.77798
20
-4.50956
11
1.77798
21
-4.49045
0
LINE
8
BLACK
6
CONTINUOUS
10
1.77798
20
-4.49045
11
1.78171
21
-4.4717
0
LINE
8
BLACK
6
CONTINUOUS
10
1.78811
20
-4.52636
11
1.79493
21
-4.54281
0
LINE
8
BLACK
6
CONTINUOUS
10
1.79493
20
-4.54281
11
1.80481
21
-4.5576
0
LINE
8
BLACK
6
CONTINUOUS
10
1.80481
20
-4.5576
11
1.8174
21
-4.57019
0
LINE
8
BLACK
6
CONTINUOUS
10
1.8174
20
-4.57019
11
1.8322
21
-4.58008
0
LINE
8
BLACK
6
CONTINUOUS
10
1.8322
20
-4.58008
11
1.84864
21
-4.58689
0
LINE
8
BLACK
6
CONTINUOUS
10
1.84864
20
-4.58689
11
1.8661
21
-4.59036
0
LINE
8
BLACK
6
CONTINUOUS
10
1.8661
20
-4.59036
11
1.8839
21
-4.59036
0
LINE
8
BLACK
6
CONTINUOUS
10
1.8839
20
-4.59036
11
1.90136
21
-4.58689
0
LINE
8
BLACK
6
CONTINUOUS
10
1.90136
20
-4.58689
11
1.9178
21
-4.58008
0
LINE
8
BLACK
6
CONTINUOUS
10
1.9178
20
-4.58008
11
1.9326
21
-4.57019
0
LINE
8
BLACK
6
CONTINUOUS
10
1.9326
20
-4.57019
11
1.94519
21
-4.5576
0
LINE
8
BLACK
6
CONTINUOUS
10
1.94519
20
-4.5576
11
1.95508
21
-4.54281
0
LINE
8
BLACK
6
CONTINUOUS
10
1.95508
20
-4.54281
11
1.96189
21
-4.52636
0
LINE
8
BLACK
6
CONTINUOUS
10
1.96189
20
-4.52636
11
1.96536
21
-4.5089
0
LINE
8
BLACK
6
CONTINUOUS
10
1.96536
20
-4.5089
11
1.96536
21
-4.4911
0
LINE
8
BLACK
6
CONTINUOUS
10
1.96536
20
-4.4911
11
1.96189
21
-4.47365
0
LINE
8
BLACK
6
CONTINUOUS
10
1.96189
20
-4.47365
11
1.95508
21
-4.4572
0
LINE
8
BLACK
6
CONTINUOUS
10
1.95508
20
-4.4572
11
1.94519
21
-4.4424
0
LINE
8
BLACK
6
CONTINUOUS
10
1.94519
20
-4.4424
11
1.9326
21
-4.42982
0
LINE
8
BLACK
6
CONTINUOUS
10
1.9326
20
-4.42982
11
1.9178
21
-4.41993
0
LINE
8
BLACK
6
CONTINUOUS
10
1.9178
20
-4.41993
11
1.90136
21
-4.41312
0
LINE
8
BLACK
6
CONTINUOUS
10
1.90136
20
-4.41312
11
1.8839
21
-4.40964
0
LINE
8
BLACK
6
CONTINUOUS
10
1.8839
20
-4.40964
11
1.8661
21
-4.40964
0
LINE
8
BLACK
6
CONTINUOUS
10
1.8661
20
-4.40964
11
1.84864
21
-4.41312
0
LINE
8
BLACK
6
CONTINUOUS
10
1.84864
20
-4.41312
11
1.8322
21
-4.41993
0
LINE
8
BLACK
6
CONTINUOUS
10
1.8322
20
-4.41993
11
1.8174
21
-4.42982
0
LINE
8
BLACK
6
CONTINUOUS
10
1.8174
20
-4.42982
11
1.80481
21
-4.4424
0
LINE
8
BLACK
6
CONTINUOUS
10
1.80481
20
-4.4424
11
1.79493
21
-4.4572
0
LINE
8
BLACK
6
CONTINUOUS
10
1.79493
20
-4.4572
11
1.78811
21
-4.47365
0
LINE
8
BLACK
6
CONTINUOUS
10
1.78811
20
-4.47365
11
1.78464
21
-4.4911
0
LINE
8
BLACK
6
CONTINUOUS
10
1.78464
20
-4.4911
11
1.78464
21
-4.5089
0
LINE
8
BLACK
6
CONTINUOUS
10
1.78464
20
-4.5089
11
1.78811
21
-4.52636
0
LINE
8
BLACK
6
CONTINUOUS
10
11.5317
20
-1.4717
11
11.539
21
-1.45404
0
LINE
8
BLACK
6
CONTINUOUS
10
11.539
20
-1.45404
11
11.5496
21
-1.43815
0
LINE
8
BLACK
6
CONTINUOUS
10
11.5496
20
-1.43815
11
11.5632
21
-1.42464
0
LINE
8
BLACK
6
CONTINUOUS
10
11.5632
20
-1.42464
11
11.5791
21
-1.41402
0
LINE
8
BLACK
6
CONTINUOUS
10
11.5791
20
-1.41402
11
11.5967
21
-1.40671
0
LINE
8
BLACK
6
CONTINUOUS
10
11.5967
20
-1.40671
11
11.6155
21
-1.40298
0
LINE
8
BLACK
6
CONTINUOUS
10
11.6155
20
-1.40298
11
11.6346
21
-1.40298
0
LINE
8
BLACK
6
CONTINUOUS
10
11.6346
20
-1.40298
11
11.6533
21
-1.40671
0
LINE
8
BLACK
6
CONTINUOUS
10
11.6533
20
-1.40671
11
11.671
21
-1.41402
0
LINE
8
BLACK
6
CONTINUOUS
10
11.671
20
-1.41402
11
11.6869
21
-1.42464
0
LINE
8
BLACK
6
CONTINUOUS
10
11.6869
20
-1.42464
11
11.7004
21
-1.43815
0
LINE
8
BLACK
6
CONTINUOUS
10
11.7004
20
-1.43815
11
11.711
21
-1.45404
0
LINE
8
BLACK
6
CONTINUOUS
10
11.711
20
-1.45404
11
11.7183
21
-1.4717
0
LINE
8
BLACK
6
CONTINUOUS
10
11.7183
20
-1.4717
11
11.722
21
-1.49045
0
LINE
8
BLACK
6
CONTINUOUS
10
11.722
20
-1.49045
11
11.722
21
-1.50956
0
LINE
8
BLACK
6
CONTINUOUS
10
11.722
20
-1.50956
11
11.7183
21
-1.5283
0
LINE
8
BLACK
6
CONTINUOUS
10
11.7183
20
-1.5283
11
11.711
21
-1.54596
0
LINE
8
BLACK
6
CONTINUOUS
10
11.711
20
-1.54596
11
11.7004
21
-1.56185
0
LINE
8
BLACK
6
CONTINUOUS
10
11.7004
20
-1.56185
11
11.6869
21
-1.57536
0
LINE
8
BLACK
6
CONTINUOUS
10
11.6869
20
-1.57536
11
11.671
21
-1.58598
0
LINE
8
BLACK
6
CONTINUOUS
10
11.671
20
-1.58598
11
11.6533
21
-1.59329
0
LINE
8
BLACK
6
CONTINUOUS
10
11.6533
20
-1.59329
11
11.6346
21
-1.59702
0
LINE
8
BLACK
6
CONTINUOUS
10
11.6346
20
-1.59702
11
11.6155
21
-1.59702
0
LINE
8
BLACK
6
CONTINUOUS
10
11.6155
20
-1.59702
11
11.5967
21
-1.59329
0
LINE
8
BLACK
6
CONTINUOUS
10
11.5967
20
-1.59329
11
11.5791
21
-1.58598
0
LINE
8
BLACK
6
CONTINUOUS
10
11.5791
20
-1.58598
11
11.5632
21
-1.57536
0
LINE
8
BLACK
6
CONTINUOUS
10
11.5632
20
-1.57536
11
11.5496
21
-1.56185
0
LINE
8
BLACK
6
CONTINUOUS
10
11.5496
20
-1.56185
11
11.539
21
-1.54596
0
LINE
8
BLACK
6
CONTINUOUS
10
11.539
20
-1.54596
11
11.5317
21
-1.5283
0
LINE
8
BLACK
6
CONTINUOUS
10
11.5317
20
-1.5283
11
11.528
21
-1.50956
0
LINE
8
BLACK
6
CONTINUOUS
10
11.528
20
-1.50956
11
11.528
21
-1.49045
0
LINE
8
BLACK
6
CONTINUOUS
10
11.528
20
-1.49045
11
11.5317
21
-1.4717
0
LINE
8
BLACK
6
CONTINUOUS
10
11.5381
20
-1.52636
11
11.5449
21
-1.5428
0
LINE
8
BLACK
6
CONTINUOUS
10
11.5449
20
-1.5428
11
11.5548
21
-1.5576
0
LINE
8
BLACK
6
CONTINUOUS
10
11.5548
20
-1.5576
11
11.5674
21
-1.57019
0
LINE
8
BLACK
6
CONTINUOUS
10
11.5674
20
-1.57019
11
11.5822
21
-1.58008
0
LINE
8
BLACK
6
CONTINUOUS
10
11.5822
20
-1.58008
11
11.5987
21
-1.58689
0
LINE
8
BLACK
6
CONTINUOUS
10
11.5987
20
-1.58689
11
11.6161
21
-1.59036
0
LINE
8
BLACK
6
CONTINUOUS
10
11.6161
20
-1.59036
11
11.6339
21
-1.59036
0
LINE
8
BLACK
6
CONTINUOUS
10
11.6339
20
-1.59036
11
11.6514
21
-1.58689
0
LINE
8
BLACK
6
CONTINUOUS
10
11.6514
20
-1.58689
11
11.6678
21
-1.58008
0
LINE
8
BLACK
6
CONTINUOUS
10
11.6678
20
-1.58008
11
11.6826
21
-1.57019
0
LINE
8
BLACK
6
CONTINUOUS
10
11.6826
20
-1.57019
11
11.6952
21
-1.5576
0
LINE
8
BLACK
6
CONTINUOUS
10
11.6952
20
-1.5576
11
11.7051
21
-1.5428
0
LINE
8
BLACK
6
CONTINUOUS
10
11.7051
20
-1.5428
11
11.7119
21
-1.52636
0
LINE
8
BLACK
6
CONTINUOUS
10
11.7119
20
-1.52636
11
11.7154
21
-1.5089
0
LINE
8
BLACK
6
CONTINUOUS
10
11.7154
20
-1.5089
11
11.7154
21
-1.4911
0
LINE
8
BLACK
6
CONTINUOUS
10
11.7154
20
-1.4911
11
11.7119
21
-1.47364
0
LINE
8
BLACK
6
CONTINUOUS
10
11.7119
20
-1.47364
11
11.7051
21
-1.4572
0
LINE
8
BLACK
6
CONTINUOUS
10
11.7051
20
-1.4572
11
11.6952
21
-1.4424
0
LINE
8
BLACK
6
CONTINUOUS
10
11.6952
20
-1.4424
11
11.6826
21
-1.42981
0
LINE
8
BLACK
6
CONTINUOUS
10
11.6826
20
-1.42981
11
11.6678
21
-1.41993
0
LINE
8
BLACK
6
CONTINUOUS
10
11.6678
20
-1.41993
11
11.6514
21
-1.41311
0
LINE
8
BLACK
6
CONTINUOUS
10
11.6514
20
-1.41311
11
11.6339
21
-1.40964
0
LINE
8
BLACK
6
CONTINUOUS
10
11.6339
20
-1.40964
11
11.6161
21
-1.40964
0
LINE
8
BLACK
6
CONTINUOUS
10
11.6161
20
-1.40964
11
11.5987
21
-1.41311
0
LINE
8
BLACK
6
CONTINUOUS
10
11.5987
20
-1.41311
11
11.5822
21
-1.41993
0
LINE
8
BLACK
6
CONTINUOUS
10
11.5822
20
-1.41993
11
11.5674
21
-1.42981
0
LINE
8
BLACK
6
CONTINUOUS
10
11.5674
20
-1.42981
11
11.5548
21
-1.4424
0
LINE
8
BLACK
6
CONTINUOUS
10
11.5548
20
-1.4424
11
11.5449
21
-1.4572
0
LINE
8
BLACK
6
CONTINUOUS
10
11.5449
20
-1.4572
11
11.5381
21
-1.47364
0
LINE
8
BLACK
6
CONTINUOUS
10
11.5381
20
-1.47364
11
11.5346
21
-1.4911
0
LINE
8
BLACK
6
CONTINUOUS
10
11.5346
20
-1.4911
11
11.5346
21
-1.5089
0
LINE
8
BLACK
6
CONTINUOUS
10
11.5346
20
-1.5089
11
11.5381
21
-1.52636
0
LINE
8
BLACK
6
CONTINUOUS
10
4.78171
20
-1.4717
11
4.78903
21
-1.45404
0
LINE
8
BLACK
6
CONTINUOUS
10
4.78903
20
-1.45404
11
4.79964
21
-1.43815
0
LINE
8
BLACK
6
CONTINUOUS
10
4.79964
20
-1.43815
11
4.81316
21
-1.42464
0
LINE
8
BLACK
6
CONTINUOUS
10
4.81316
20
-1.42464
11
4.82905
21
-1.41402
0
LINE
8
BLACK
6
CONTINUOUS
10
4.82905
20
-1.41402
11
4.8467
21
-1.40671
0
LINE
8
BLACK
6
CONTINUOUS
10
4.8467
20
-1.40671
11
4.86545
21
-1.40298
0
LINE
8
BLACK
6
CONTINUOUS
10
4.86545
20
-1.40298
11
4.88456
21
-1.40298
0
LINE
8
BLACK
6
CONTINUOUS
10
4.88456
20
-1.40298
11
4.9033
21
-1.40671
0
LINE
8
BLACK
6
CONTINUOUS
10
4.9033
20
-1.40671
11
4.92096
21
-1.41402
0
LINE
8
BLACK
6
CONTINUOUS
10
4.92096
20
-1.41402
11
4.93685
21
-1.42464
0
LINE
8
BLACK
6
CONTINUOUS
10
4.93685
20
-1.42464
11
4.95037
21
-1.43815
0
LINE
8
BLACK
6
CONTINUOUS
10
4.95037
20
-1.43815
11
4.96098
21
-1.45404
0
LINE
8
BLACK
6
CONTINUOUS
10
4.96098
20
-1.45404
11
4.9683
21
-1.4717
0
LINE
8
BLACK
6
CONTINUOUS
10
4.9683
20
-1.4717
11
4.97202
21
-1.49045
0
LINE
8
BLACK
6
CONTINUOUS
10
4.97202
20
-1.49045
11
4.97202
21
-1.50956
0
LINE
8
BLACK
6
CONTINUOUS
10
4.97202
20
-1.50956
11
4.9683
21
-1.5283
0
LINE
8
BLACK
6
CONTINUOUS
10
4.9683
20
-1.5283
11
4.96098
21
-1.54596
0
LINE
8
BLACK
6
CONTINUOUS
10
4.96098
20
-1.54596
11
4.95037
21
-1.56185
0
LINE
8
BLACK
6
CONTINUOUS
10
4.95037
20
-1.56185
11
4.93685
21
-1.57536
0
LINE
8
BLACK
6
CONTINUOUS
10
4.93685
20
-1.57536
11
4.92096
21
-1.58598
0
LINE
8
BLACK
6
CONTINUOUS
10
4.92096
20
-1.58598
11
4.9033
21
-1.59329
0
LINE
8
BLACK
6
CONTINUOUS
10
4.9033
20
-1.59329
11
4.88456
21
-1.59702
0
LINE
8
BLACK
6
CONTINUOUS
10
4.88456
20
-1.59702
11
4.86545
21
-1.59702
0
LINE
8
BLACK
6
CONTINUOUS
10
4.86545
20
-1.59702
11
4.8467
21
-1.59329
0
LINE
8
BLACK
6
CONTINUOUS
10
4.8467
20
-1.59329
11
4.82905
21
-1.58598
0
LINE
8
BLACK
6
CONTINUOUS
10
4.82905
20
-1.58598
11
4.81316
21
-1.57536
0
LINE
8
BLACK
6
CONTINUOUS
10
4.81316
20
-1.57536
11
4.79964
21
-1.56185
0
LINE
8
BLACK
6
CONTINUOUS
10
4.79964
20
-1.56185
11
4.78903
21
-1.54596
0
LINE
8
BLACK
6
CONTINUOUS
10
4.78903
20
-1.54596
11
4.78171
21
-1.5283
0
LINE
8
BLACK
6
CONTINUOUS
10
4.78171
20
-1.5283
11
4.77798
21
-1.50956
0
LINE
8
BLACK
6
CONTINUOUS
10
4.77798
20
-1.50956
11
4.77798
21
-1.49045
0
LINE
8
BLACK
6
CONTINUOUS
10
4.77798
20
-1.49045
11
4.78171
21
-1.4717
0
LINE
8
BLACK
6
CONTINUOUS
10
4.78812
20
-1.52636
11
4.79493
21
-1.5428
0
LINE
8
BLACK
6
CONTINUOUS
10
4.79493
20
-1.5428
11
4.80482
21
-1.5576
0
LINE
8
BLACK
6
CONTINUOUS
10
4.80482
20
-1.5576
11
4.8174
21
-1.57019
0
LINE
8
BLACK
6
CONTINUOUS
10
4.8174
20
-1.57019
11
4.8322
21
-1.58008
0
LINE
8
BLACK
6
CONTINUOUS
10
4.8322
20
-1.58008
11
4.84865
21
-1.58689
0
LINE
8
BLACK
6
CONTINUOUS
10
4.84865
20
-1.58689
11
4.8661
21
-1.59036
0
LINE
8
BLACK
6
CONTINUOUS
10
4.8661
20
-1.59036
11
4.8839
21
-1.59036
0
LINE
8
BLACK
6
CONTINUOUS
10
4.8839
20
-1.59036
11
4.90136
21
-1.58689
0
LINE
8
BLACK
6
CONTINUOUS
10
4.90136
20
-1.58689
11
4.91781
21
-1.58008
0
LINE
8
BLACK
6
CONTINUOUS
10
4.91781
20
-1.58008
11
4.93261
21
-1.57019
0
LINE
8
BLACK
6
CONTINUOUS
10
4.93261
20
-1.57019
11
4.94519
21
-1.5576
0
LINE
8
BLACK
6
CONTINUOUS
10
4.94519
20
-1.5576
11
4.95508
21
-1.5428
0
LINE
8
BLACK
6
CONTINUOUS
10
4.95508
20
-1.5428
11
4.96189
21
-1.52636
0
LINE
8
BLACK
6
CONTINUOUS
10
4.96189
20
-1.52636
11
4.96536
21
-1.5089
0
LINE
8
BLACK
6
CONTINUOUS
10
4.96536
20
-1.5089
11
4.96536
21
-1.4911
0
LINE
8
BLACK
6
CONTINUOUS
10
4.96536
20
-1.4911
11
4.96189
21
-1.47364
0
LINE
8
BLACK
6
CONTINUOUS
10
4.96189
20
-1.47364
11
4.95508
21
-1.4572
0
LINE
8
BLACK
6
CONTINUOUS
10
4.95508
20
-1.4572
11
4.94519
21
-1.4424
0
LINE
8
BLACK
6
CONTINUOUS
10
4.94519
20
-1.4424
11
4.93261
21
-1.42981
0
LINE
8
BLACK
6
CONTINUOUS
10
4.93261
20
-1.42981
11
4.91781
21
-1.41993
0
LINE
8
BLACK
6
CONTINUOUS
10
4.91781
20
-1.41993
11
4.90136
21
-1.41311
0
LINE
8
BLACK
6
CONTINUOUS
10
4.90136
20
-1.41311
11
4.8839
21
-1.40964
0
LINE
8
BLACK
6
CONTINUOUS
10
4.8839
20
-1.40964
11
4.8661
21
-1.40964
0
LINE
8
BLACK
6
CONTINUOUS
10
4.8661
20
-1.40964
11
4.84865
21
-1.41311
0
LINE
8
BLACK
6
CONTINUOUS
10
4.84865
20
-1.41311
11
4.8322
21
-1.41993
0
LINE
8
BLACK
6
CONTINUOUS
10
4.8322
20
-1.41993
11
4.8174
21
-1.42981
0
LINE
8
BLACK
6
CONTINUOUS
10
4.8174
20
-1.42981
11
4.80482
21
-1.4424
0
LINE
8
BLACK
6
CONTINUOUS
10
4.80482
20
-1.4424
11
4.79493
21
-1.4572
0
LINE
8
BLACK
6
CONTINUOUS
10
4.79493
20
-1.4572
11
4.78812
21
-1.47364
0
LINE
8
BLACK
6
CONTINUOUS
10
4.78812
20
-1.47364
11
4.78464
21
-1.4911
0
LINE
8
BLACK
6
CONTINUOUS
10
4.78464
20
-1.4911
11
4.78464
21
-1.5089
0
LINE
8
BLACK
6
CONTINUOUS
10
4.78464
20
-1.5089
11
4.78812
21
-1.52636
0
LINE
8
BLACK
6
CONTINUOUS
10
8.52895
20
-1.47086
11
8.53648
21
-1.45268
0
LINE
8
BLACK
6
CONTINUOUS
10
8.53648
20
-1.45268
11
8.54742
21
-1.43632
0
LINE
8
BLACK
6
CONTINUOUS
10
8.54742
20
-1.43632
11
8.56133
21
-1.42241
0
LINE
8
BLACK
6
CONTINUOUS
10
8.56133
20
-1.42241
11
8.57769
21
-1.41148
0
LINE
8
BLACK
6
CONTINUOUS
10
8.57769
20
-1.41148
11
8.59587
21
-1.40395
0
LINE
8
BLACK
6
CONTINUOUS
10
8.59587
20
-1.40395
11
8.61517
21
-1.40011
0
LINE
8
BLACK
6
CONTINUOUS
10
8.61517
20
-1.40011
11
8.63485
21
-1.40011
0
LINE
8
BLACK
6
CONTINUOUS
10
8.63485
20
-1.40011
11
8.65414
21
-1.40395
0
LINE
8
BLACK
6
CONTINUOUS
10
8.65414
20
-1.40395
11
8.67232
21
-1.41148
0
LINE
8
BLACK
6
CONTINUOUS
10
8.67232
20
-1.41148
11
8.68868
21
-1.42241
0
LINE
8
BLACK
6
CONTINUOUS
10
8.68868
20
-1.42241
11
8.7026
21
-1.43632
0
LINE
8
BLACK
6
CONTINUOUS
10
8.7026
20
-1.43632
11
8.71353
21
-1.45268
0
LINE
8
BLACK
6
CONTINUOUS
10
8.71353
20
-1.45268
11
8.72106
21
-1.47086
0
LINE
8
BLACK
6
CONTINUOUS
10
8.72106
20
-1.47086
11
8.7249
21
-1.49016
0
LINE
8
BLACK
6
CONTINUOUS
10
8.7249
20
-1.49016
11
8.7249
21
-1.50984
0
LINE
8
BLACK
6
CONTINUOUS
10
8.7249
20
-1.50984
11
8.72106
21
-1.52914
0
LINE
8
BLACK
6
CONTINUOUS
10
8.72106
20
-1.52914
11
8.71353
21
-1.54732
0
LINE
8
BLACK
6
CONTINUOUS
10
8.71353
20
-1.54732
11
8.7026
21
-1.56368
0
LINE
8
BLACK
6
CONTINUOUS
10
8.7026
20
-1.56368
11
8.68868
21
-1.57759
0
LINE
8
BLACK
6
CONTINUOUS
10
8.68868
20
-1.57759
11
8.67232
21
-1.58852
0
LINE
8
BLACK
6
CONTINUOUS
10
8.67232
20
-1.58852
11
8.65414
21
-1.59605
0
LINE
8
BLACK
6
CONTINUOUS
10
8.65414
20
-1.59605
11
8.63485
21
-1.59989
0
LINE
8
BLACK
6
CONTINUOUS
10
8.63485
20
-1.59989
11
8.61517
21
-1.59989
0
LINE
8
BLACK
6
CONTINUOUS
10
8.61517
20
-1.59989
11
8.59587
21
-1.59605
0
LINE
8
BLACK
6
CONTINUOUS
10
8.59587
20
-1.59605
11
8.57769
21
-1.58852
0
LINE
8
BLACK
6
CONTINUOUS
10
8.57769
20
-1.58852
11
8.56133
21
-1.57759
0
LINE
8
BLACK
6
CONTINUOUS
10
8.56133
20
-1.57759
11
8.54742
21
-1.56368
0
LINE
8
BLACK
6
CONTINUOUS
10
8.54742
20
-1.56368
11
8.53648
21
-1.54732
0
LINE
8
BLACK
6
CONTINUOUS
10
8.53648
20
-1.54732
11
8.52895
21
-1.52914
0
LINE
8
BLACK
6
CONTINUOUS
10
8.52895
20
-1.52914
11
8.52512
21
-1.50984
0
LINE
8
BLACK
6
CONTINUOUS
10
8.52512
20
-1.50984
11
8.52512
21
-1.49016
0
LINE
8
BLACK
6
CONTINUOUS
10
8.52512
20
-1.49016
11
8.52895
21
-1.47086
0
LINE
8
BLACK
6
CONTINUOUS
10
8.53536
20
-1.5272
11
8.54239
21
-1.54416
0
LINE
8
BLACK
6
CONTINUOUS
10
8.54239
20
-1.54416
11
8.55259
21
-1.55943
0
LINE
8
BLACK
6
CONTINUOUS
10
8.55259
20
-1.55943
11
8.56558
21
-1.57242
0
LINE
8
BLACK
6
CONTINUOUS
10
8.56558
20
-1.57242
11
8.58085
21
-1.58262
0
LINE
8
BLACK
6
CONTINUOUS
10
8.58085
20
-1.58262
11
8.59781
21
-1.58965
0
LINE
8
BLACK
6
CONTINUOUS
10
8.59781
20
-1.58965
11
8.61582
21
-1.59323
0
LINE
8
BLACK
6
CONTINUOUS
10
8.61582
20
-1.59323
11
8.63419
21
-1.59323
0
LINE
8
BLACK
6
CONTINUOUS
10
8.63419
20
-1.59323
11
8.6522
21
-1.58965
0
LINE
8
BLACK
6
CONTINUOUS
10
8.6522
20
-1.58965
11
8.66917
21
-1.58262
0
LINE
8
BLACK
6
CONTINUOUS
10
8.66917
20
-1.58262
11
8.68444
21
-1.57242
0
LINE
8
BLACK
6
CONTINUOUS
10
8.68444
20
-1.57242
11
8.69742
21
-1.55943
0
LINE
8
BLACK
6
CONTINUOUS
10
8.69742
20
-1.55943
11
8.70763
21
-1.54416
0
LINE
8
BLACK
6
CONTINUOUS
10
8.70763
20
-1.54416
11
8.71466
21
-1.5272
0
LINE
8
BLACK
6
CONTINUOUS
10
8.71466
20
-1.5272
11
8.71824
21
-1.50918
0
LINE
8
BLACK
6
CONTINUOUS
10
8.71824
20
-1.50918
11
8.71824
21
-1.49082
0
LINE
8
BLACK
6
CONTINUOUS
10
8.71824
20
-1.49082
11
8.71466
21
-1.47281
0
LINE
8
BLACK
6
CONTINUOUS
10
8.71466
20
-1.47281
11
8.70763
21
-1.45584
0
LINE
8
BLACK
6
CONTINUOUS
10
8.70763
20
-1.45584
11
8.69742
21
-1.44057
0
LINE
8
BLACK
6
CONTINUOUS
10
8.69742
20
-1.44057
11
8.68444
21
-1.42758
0
LINE
8
BLACK
6
CONTINUOUS
10
8.68444
20
-1.42758
11
8.66917
21
-1.41738
0
LINE
8
BLACK
6
CONTINUOUS
10
8.66917
20
-1.41738
11
8.6522
21
-1.41035
0
LINE
8
BLACK
6
CONTINUOUS
10
8.6522
20
-1.41035
11
8.63419
21
-1.40677
0
LINE
8
BLACK
6
CONTINUOUS
10
8.63419
20
-1.40677
11
8.61582
21
-1.40677
0
LINE
8
BLACK
6
CONTINUOUS
10
8.61582
20
-1.40677
11
8.59781
21
-1.41035
0
LINE
8
BLACK
6
CONTINUOUS
10
8.59781
20
-1.41035
11
8.58085
21
-1.41738
0
LINE
8
BLACK
6
CONTINUOUS
10
8.58085
20
-1.41738
11
8.56558
21
-1.42758
0
LINE
8
BLACK
6
CONTINUOUS
10
8.56558
20
-1.42758
11
8.55259
21
-1.44057
0
LINE
8
BLACK
6
CONTINUOUS
10
8.55259
20
-1.44057
11
8.54239
21
-1.45584
0
LINE
8
BLACK
6
CONTINUOUS
10
8.54239
20
-1.45584
11
8.53536
21
-1.47281
0
LINE
8
BLACK
6
CONTINUOUS
10
8.53536
20
-1.47281
11
8.53178
21
-1.49082
0
LINE
8
BLACK
6
CONTINUOUS
10
8.53178
20
-1.49082
11
8.53178
21
-1.50918
0
LINE
8
BLACK
6
CONTINUOUS
10
8.53178
20
-1.50918
11
8.53536
21
-1.5272
0
LINE
8
BLACK
6
CONTINUOUS
10
1.77895
20
-1.47086
11
1.78648
21
-1.45268
0
LINE
8
BLACK
6
CONTINUOUS
10
1.78648
20
-1.45268
11
1.79741
21
-1.43632
0
LINE
8
BLACK
6
CONTINUOUS
10
1.79741
20
-1.43632
11
1.81132
21
-1.42241
0
LINE
8
BLACK
6
CONTINUOUS
10
1.81132
20
-1.42241
11
1.82768
21
-1.41148
0
LINE
8
BLACK
6
CONTINUOUS
10
1.82768
20
-1.41148
11
1.84586
21
-1.40395
0
LINE
8
BLACK
6
CONTINUOUS
10
1.84586
20
-1.40395
11
1.86516
21
-1.40011
0
LINE
8
BLACK
6
CONTINUOUS
10
1.86516
20
-1.40011
11
1.88484
21
-1.40011
0
LINE
8
BLACK
6
CONTINUOUS
10
1.88484
20
-1.40011
11
1.90414
21
-1.40395
0
LINE
8
BLACK
6
CONTINUOUS
10
1.90414
20
-1.40395
11
1.92232
21
-1.41148
0
LINE
8
BLACK
6
CONTINUOUS
10
1.92232
20
-1.41148
11
1.93868
21
-1.42241
0
LINE
8
BLACK
6
CONTINUOUS
10
1.93868
20
-1.42241
11
1.95259
21
-1.43632
0
LINE
8
BLACK
6
CONTINUOUS
10
1.95259
20
-1.43632
11
1.96352
21
-1.45268
0
LINE
8
BLACK
6
CONTINUOUS
10
1.96352
20
-1.45268
11
1.97105
21
-1.47086
0
LINE
8
BLACK
6
CONTINUOUS
10
1.97105
20
-1.47086
11
1.97489
21
-1.49016
0
LINE
8
BLACK
6
CONTINUOUS
10
1.97489
20
-1.49016
11
1.97489
21
-1.50984
0
LINE
8
BLACK
6
CONTINUOUS
10
1.97489
20
-1.50984
11
1.97105
21
-1.52914
0
LINE
8
BLACK
6
CONTINUOUS
10
1.97105
20
-1.52914
11
1.96352
21
-1.54732
0
LINE
8
BLACK
6
CONTINUOUS
10
1.96352
20
-1.54732
11
1.95259
21
-1.56368
0
LINE
8
BLACK
6
CONTINUOUS
10
1.95259
20
-1.56368
11
1.93868
21
-1.57759
0
LINE
8
BLACK
6
CONTINUOUS
10
1.93868
20
-1.57759
11
1.92232
21
-1.58852
0
LINE
8
BLACK
6
CONTINUOUS
10
1.92232
20
-1.58852
11
1.90414
21
-1.59605
0
LINE
8
BLACK
6
CONTINUOUS
10
1.90414
20
-1.59605
11
1.88484
21
-1.59989
0
LINE
8
BLACK
6
CONTINUOUS
10
1.88484
20
-1.59989
11
1.86516
21
-1.59989
0
LINE
8
BLACK
6
CONTINUOUS
10
1.86516
20
-1.59989
11
1.84586
21
-1.59605
0
LINE
8
BLACK
6
CONTINUOUS
10
1.84586
20
-1.59605
11
1.82768
21
-1.58852
0
LINE
8
BLACK
6
CONTINUOUS
10
1.82768
20
-1.58852
11
1.81132
21
-1.57759
0
LINE
8
BLACK
6
CONTINUOUS
10
1.81132
20
-1.57759
11
1.79741
21
-1.56368
0
LINE
8
BLACK
6
CONTINUOUS
10
1.79741
20
-1.56368
11
1.78648
21
-1.54732
0
LINE
8
BLACK
6
CONTINUOUS
10
1.78648
20
-1.54732
11
1.77895
21
-1.52914
0
LINE
8
BLACK
6
CONTINUOUS
10
1.77895
20
-1.52914
11
1.77511
21
-1.50984
0
LINE
8
BLACK
6
CONTINUOUS
10
1.77511
20
-1.50984
11
1.77511
21
-1.49016
0
LINE
8
BLACK
6
CONTINUOUS
10
1.77511
20
-1.49016
11
1.77895
21
-1.47086
0
LINE
8
BLACK
6
CONTINUOUS
10
1.78535
20
-1.5272
11
1.79238
21
-1.54416
0
LINE
8
BLACK
6
CONTINUOUS
10
1.79238
20
-1.54416
11
1.80258
21
-1.55943
0
LINE
8
BLACK
6
CONTINUOUS
10
1.80258
20
-1.55943
11
1.81557
21
-1.57242
0
LINE
8
BLACK
6
CONTINUOUS
10
1.81557
20
-1.57242
11
1.83084
21
-1.58262
0
LINE
8
BLACK
6
CONTINUOUS
10
1.83084
20
-1.58262
11
1.84781
21
-1.58965
0
LINE
8
BLACK
6
CONTINUOUS
10
1.84781
20
-1.58965
11
1.86582
21
-1.59323
0
LINE
8
BLACK
6
CONTINUOUS
10
1.86582
20
-1.59323
11
1.88418
21
-1.59323
0
LINE
8
BLACK
6
CONTINUOUS
10
1.88418
20
-1.59323
11
1.9022
21
-1.58965
0
LINE
8
BLACK
6
CONTINUOUS
10
1.9022
20
-1.58965
11
1.91916
21
-1.58262
0
LINE
8
BLACK
6
CONTINUOUS
10
1.91916
20
-1.58262
11
1.93443
21
-1.57242
0
LINE
8
BLACK
6
CONTINUOUS
10
1.93443
20
-1.57242
11
1.94742
21
-1.55943
0
LINE
8
BLACK
6
CONTINUOUS
10
1.94742
20
-1.55943
11
1.95762
21
-1.54416
0
LINE
8
BLACK
6
CONTINUOUS
10
1.95762
20
-1.54416
11
1.96465
21
-1.5272
0
LINE
8
BLACK
6
CONTINUOUS
10
1.96465
20
-1.5272
11
1.96823
21
-1.50918
0
LINE
8
BLACK
6
CONTINUOUS
10
1.96823
20
-1.50918
11
1.96823
21
-1.49082
0
LINE
8
BLACK
6
CONTINUOUS
10
1.96823
20
-1.49082
11
1.96465
21
-1.47281
0
LINE
8
BLACK
6
CONTINUOUS
10
1.96465
20
-1.47281
11
1.95762
21
-1.45584
0
LINE
8
BLACK
6
CONTINUOUS
10
1.95762
20
-1.45584
11
1.94742
21
-1.44057
0
LINE
8
BLACK
6
CONTINUOUS
10
1.94742
20
-1.44057
11
1.93443
21
-1.42758
0
LINE
8
BLACK
6
CONTINUOUS
10
1.93443
20
-1.42758
11
1.91916
21
-1.41738
0
LINE
8
BLACK
6
CONTINUOUS
10
1.91916
20
-1.41738
11
1.9022
21
-1.41035
0
LINE
8
BLACK
6
CONTINUOUS
10
1.9022
20
-1.41035
11
1.88418
21
-1.40677
0
LINE
8
BLACK
6
CONTINUOUS
10
1.88418
20
-1.40677
11
1.86582
21
-1.40677
0
LINE
8
BLACK
6
CONTINUOUS
10
1.86582
20
-1.40677
11
1.84781
21
-1.41035
0
LINE
8
BLACK
6
CONTINUOUS
10
1.84781
20
-1.41035
11
1.83084
21
-1.41738
0
LINE
8
BLACK
6
CONTINUOUS
10
1.83084
20
-1.41738
11
1.81557
21
-1.42758
0
LINE
8
BLACK
6
CONTINUOUS
10
1.81557
20
-1.42758
11
1.80258
21
-1.44057
0
LINE
8
BLACK
6
CONTINUOUS
10
1.80258
20
-1.44057
11
1.79238
21
-1.45584
0
LINE
8
BLACK
6
CONTINUOUS
10
1.79238
20
-1.45584
11
1.78535
21
-1.47281
0
LINE
8
BLACK
6
CONTINUOUS
10
1.78535
20
-1.47281
11
1.78177
21
-1.49082
0
LINE
8
BLACK
6
CONTINUOUS
10
1.78177
20
-1.49082
11
1.78177
21
-1.50918
0
LINE
8
BLACK
6
CONTINUOUS
10
1.78177
20
-1.50918
11
1.78535
21
-1.5272
  0
ENDSEC
  0
EOF
