M48
;DRILL file {KiCad 4.0.7} date 07/28/18 11:48:00
;FORMAT={-:-/ absolute / inch / decimal}
FMAT,2
INCH,TZ
T1C0.031
T2C0.067
T3C0.157
%
G90
G05
M72
T1
X6.369Y-0.8963
X6.369Y-1.1719
T2
X1.3Y-1.125
X1.3Y-1.875
X1.3Y-2.625
X1.3Y-3.375
X1.3Y-4.125
X1.3Y-4.875
X1.3Y-5.625
X1.3Y-6.375
X1.3Y-7.125
X1.3Y-7.875
X1.3Y-8.625
X1.3Y-9.375
X1.3Y-10.125
X1.3Y-10.875
X1.3Y-11.625
X1.7Y-1.125
X1.7Y-1.875
X1.7Y-2.625
X1.7Y-3.375
X1.7Y-4.125
X1.7Y-4.875
X1.7Y-5.625
X1.7Y-6.375
X1.7Y-7.125
X1.7Y-7.875
X1.7Y-8.625
X1.7Y-9.375
X1.7Y-10.125
X1.7Y-10.875
X1.7Y-11.625
X2.05Y-1.125
X2.05Y-1.875
X2.05Y-2.625
X2.05Y-3.375
X2.05Y-4.125
X2.05Y-4.875
X2.05Y-5.625
X2.05Y-6.375
X2.05Y-7.125
X2.05Y-7.875
X2.05Y-8.625
X2.05Y-9.375
X2.05Y-10.125
X2.05Y-10.875
X2.05Y-11.625
X2.45Y-1.125
X2.45Y-1.875
X2.45Y-2.625
X2.45Y-3.375
X2.45Y-4.125
X2.45Y-4.875
X2.45Y-5.625
X2.45Y-6.375
X2.45Y-7.125
X2.45Y-7.875
X2.45Y-8.625
X2.45Y-9.375
X2.45Y-10.125
X2.45Y-10.875
X2.45Y-11.625
X2.8Y-1.125
X2.8Y-1.875
X2.8Y-2.625
X2.8Y-3.375
X2.8Y-4.125
X2.8Y-4.875
X2.8Y-5.625
X2.8Y-6.375
X2.8Y-7.125
X2.8Y-7.875
X2.8Y-8.625
X2.8Y-9.375
X2.8Y-10.125
X2.8Y-10.875
X2.8Y-11.625
X3.2Y-1.125
X3.2Y-1.875
X3.2Y-2.625
X3.2Y-3.375
X3.2Y-4.125
X3.2Y-4.875
X3.2Y-5.625
X3.2Y-6.375
X3.2Y-7.125
X3.2Y-7.875
X3.2Y-8.625
X3.2Y-9.375
X3.2Y-10.125
X3.2Y-10.875
X3.2Y-11.625
X3.55Y-1.125
X3.55Y-1.875
X3.55Y-2.625
X3.55Y-3.375
X3.55Y-4.125
X3.55Y-4.875
X3.55Y-5.625
X3.55Y-6.375
X3.55Y-7.125
X3.55Y-7.875
X3.55Y-8.625
X3.55Y-9.375
X3.55Y-10.125
X3.55Y-10.875
X3.55Y-11.625
X3.95Y-1.125
X3.95Y-1.875
X3.95Y-2.625
X3.95Y-3.375
X3.95Y-4.125
X3.95Y-4.875
X3.95Y-5.625
X3.95Y-6.375
X3.95Y-7.125
X3.95Y-7.875
X3.95Y-8.625
X3.95Y-9.375
X3.95Y-10.125
X3.95Y-10.875
X3.95Y-11.625
X4.3Y-1.125
X4.3Y-1.875
X4.3Y-2.625
X4.3Y-3.375
X4.3Y-4.125
X4.3Y-4.875
X4.3Y-5.625
X4.3Y-6.375
X4.3Y-7.125
X4.3Y-7.875
X4.3Y-8.625
X4.3Y-9.375
X4.3Y-10.125
X4.3Y-10.875
X4.3Y-11.625
X4.7Y-1.125
X4.7Y-1.875
X4.7Y-2.625
X4.7Y-3.375
X4.7Y-4.125
X4.7Y-4.875
X4.7Y-5.625
X4.7Y-6.375
X4.7Y-7.125
X4.7Y-7.875
X4.7Y-8.625
X4.7Y-9.375
X4.7Y-10.125
X4.7Y-10.875
X4.7Y-11.625
X5.05Y-1.125
X5.05Y-1.875
X5.05Y-2.625
X5.05Y-3.375
X5.05Y-4.125
X5.05Y-4.875
X5.05Y-5.625
X5.05Y-6.375
X5.05Y-7.125
X5.05Y-7.875
X5.05Y-8.625
X5.05Y-9.375
X5.05Y-10.125
X5.05Y-10.875
X5.05Y-11.625
X5.45Y-1.125
X5.45Y-1.875
X5.45Y-2.625
X5.45Y-3.375
X5.45Y-4.125
X5.45Y-4.875
X5.45Y-5.625
X5.45Y-6.375
X5.45Y-7.125
X5.45Y-7.875
X5.45Y-8.625
X5.45Y-9.375
X5.45Y-10.125
X5.45Y-10.875
X5.45Y-11.625
X5.8Y-1.125
X5.8Y-1.875
X5.8Y-2.625
X5.8Y-3.375
X5.8Y-4.125
X5.8Y-4.875
X5.8Y-5.625
X5.8Y-6.375
X5.8Y-7.125
X5.8Y-7.875
X5.8Y-8.625
X5.8Y-9.375
X5.8Y-10.125
X5.8Y-10.875
X5.8Y-11.625
X6.2Y-1.125
X6.2Y-1.875
X6.2Y-2.625
X6.2Y-3.375
X6.2Y-4.125
X6.2Y-4.875
X6.2Y-5.625
X6.2Y-6.375
X6.2Y-7.125
X6.2Y-7.875
X6.2Y-8.625
X6.2Y-9.375
X6.2Y-10.125
X6.2Y-10.875
X6.2Y-11.625
X6.55Y-1.125
X6.55Y-1.875
X6.55Y-2.625
X6.55Y-3.375
X6.55Y-4.125
X6.55Y-4.875
X6.55Y-5.625
X6.55Y-6.375
X6.55Y-7.125
X6.55Y-7.875
X6.55Y-8.625
X6.55Y-9.375
X6.55Y-10.125
X6.55Y-10.875
X6.55Y-11.625
X6.95Y-1.125
X6.95Y-1.875
X6.95Y-2.625
X6.95Y-3.375
X6.95Y-4.125
X6.95Y-4.875
X6.95Y-5.625
X6.95Y-6.375
X6.95Y-7.125
X6.95Y-7.875
X6.95Y-8.625
X6.95Y-9.375
X6.95Y-10.125
X6.95Y-10.875
X6.95Y-11.625
X7.3Y-1.125
X7.3Y-1.875
X7.3Y-2.625
X7.3Y-3.375
X7.3Y-4.125
X7.3Y-4.875
X7.3Y-5.625
X7.3Y-6.375
X7.3Y-7.125
X7.3Y-7.875
X7.3Y-8.625
X7.3Y-9.375
X7.3Y-10.125
X7.3Y-10.875
X7.3Y-11.625
X7.7Y-1.125
X7.7Y-1.875
X7.7Y-2.625
X7.7Y-3.375
X7.7Y-4.125
X7.7Y-4.875
X7.7Y-5.625
X7.7Y-6.375
X7.7Y-7.125
X7.7Y-7.875
X7.7Y-8.625
X7.7Y-9.375
X7.7Y-10.125
X7.7Y-10.875
X7.7Y-11.625
X8.05Y-1.125
X8.05Y-1.875
X8.05Y-2.625
X8.05Y-3.375
X8.05Y-4.125
X8.05Y-4.875
X8.05Y-5.625
X8.05Y-6.375
X8.05Y-7.125
X8.05Y-7.875
X8.05Y-8.625
X8.05Y-9.375
X8.05Y-10.125
X8.05Y-10.875
X8.05Y-11.625
X8.45Y-1.125
X8.45Y-1.875
X8.45Y-2.625
X8.45Y-3.375
X8.45Y-4.125
X8.45Y-4.875
X8.45Y-5.625
X8.45Y-6.375
X8.45Y-7.125
X8.45Y-7.875
X8.45Y-8.625
X8.45Y-9.375
X8.45Y-10.125
X8.45Y-10.875
X8.45Y-11.625
X8.8Y-1.125
X8.8Y-1.875
X8.8Y-2.625
X8.8Y-3.375
X8.8Y-4.125
X8.8Y-4.875
X8.8Y-5.625
X8.8Y-6.375
X8.8Y-7.125
X8.8Y-7.875
X8.8Y-8.625
X8.8Y-9.375
X8.8Y-10.125
X8.8Y-10.875
X8.8Y-11.625
X9.2Y-1.125
X9.2Y-1.875
X9.2Y-2.625
X9.2Y-3.375
X9.2Y-4.125
X9.2Y-4.875
X9.2Y-5.625
X9.2Y-6.375
X9.2Y-7.125
X9.2Y-7.875
X9.2Y-8.625
X9.2Y-9.375
X9.2Y-10.125
X9.2Y-10.875
X9.2Y-11.625
X9.55Y-1.125
X9.55Y-1.875
X9.55Y-2.625
X9.55Y-3.375
X9.55Y-4.125
X9.55Y-4.875
X9.55Y-5.625
X9.55Y-6.375
X9.55Y-7.125
X9.55Y-7.875
X9.55Y-8.625
X9.55Y-9.375
X9.55Y-10.125
X9.55Y-10.875
X9.55Y-11.625
X9.95Y-1.125
X9.95Y-1.875
X9.95Y-2.625
X9.95Y-3.375
X9.95Y-4.125
X9.95Y-4.875
X9.95Y-5.625
X9.95Y-6.375
X9.95Y-7.125
X9.95Y-7.875
X9.95Y-8.625
X9.95Y-9.375
X9.95Y-10.125
X9.95Y-10.875
X9.95Y-11.625
X10.3Y-1.125
X10.3Y-1.875
X10.3Y-2.625
X10.3Y-3.375
X10.3Y-4.125
X10.3Y-4.875
X10.3Y-5.625
X10.3Y-6.375
X10.3Y-7.125
X10.3Y-7.875
X10.3Y-8.625
X10.3Y-9.375
X10.3Y-10.125
X10.3Y-10.875
X10.3Y-11.625
X10.7Y-1.125
X10.7Y-1.875
X10.7Y-2.625
X10.7Y-3.375
X10.7Y-4.125
X10.7Y-4.875
X10.7Y-5.625
X10.7Y-6.375
X10.7Y-7.125
X10.7Y-7.875
X10.7Y-8.625
X10.7Y-9.375
X10.7Y-10.125
X10.7Y-10.875
X10.7Y-11.625
X11.05Y-1.125
X11.05Y-1.875
X11.05Y-2.625
X11.05Y-3.375
X11.05Y-4.125
X11.05Y-4.875
X11.05Y-5.625
X11.05Y-6.375
X11.05Y-7.125
X11.05Y-7.875
X11.05Y-8.625
X11.05Y-9.375
X11.05Y-10.125
X11.05Y-10.875
X11.05Y-11.625
X11.45Y-1.125
X11.45Y-1.875
X11.45Y-2.625
X11.45Y-3.375
X11.45Y-4.125
X11.45Y-4.875
X11.45Y-5.625
X11.45Y-6.375
X11.45Y-7.125
X11.45Y-7.875
X11.45Y-8.625
X11.45Y-9.375
X11.45Y-10.125
X11.45Y-10.875
X11.45Y-11.625
X11.8Y-1.125
X11.8Y-1.875
X11.8Y-2.625
X11.8Y-3.375
X11.8Y-4.125
X11.8Y-4.875
X11.8Y-5.625
X11.8Y-6.375
X11.8Y-7.125
X11.8Y-7.875
X11.8Y-8.625
X11.8Y-9.375
X11.8Y-10.125
X11.8Y-10.875
X11.8Y-11.625
X12.2Y-1.125
X12.2Y-1.875
X12.2Y-2.625
X12.2Y-3.375
X12.2Y-4.125
X12.2Y-4.875
X12.2Y-5.625
X12.2Y-6.375
X12.2Y-7.125
X12.2Y-7.875
X12.2Y-8.625
X12.2Y-9.375
X12.2Y-10.125
X12.2Y-10.875
X12.2Y-11.625
T3
X1.5Y-1.125
X1.5Y-1.875
X1.5Y-2.625
X1.5Y-3.375
X1.5Y-4.125
X1.5Y-4.875
X1.5Y-5.625
X1.5Y-6.375
X1.5Y-7.125
X1.5Y-7.875
X1.5Y-8.625
X1.5Y-9.375
X1.5Y-10.125
X1.5Y-10.875
X1.5Y-11.625
X2.25Y-1.125
X2.25Y-1.875
X2.25Y-2.625
X2.25Y-3.375
X2.25Y-4.125
X2.25Y-4.875
X2.25Y-5.625
X2.25Y-6.375
X2.25Y-7.125
X2.25Y-7.875
X2.25Y-8.625
X2.25Y-9.375
X2.25Y-10.125
X2.25Y-10.875
X2.25Y-11.625
X3.Y-1.125
X3.Y-1.875
X3.Y-2.625
X3.Y-3.375
X3.Y-4.125
X3.Y-4.875
X3.Y-5.625
X3.Y-6.375
X3.Y-7.125
X3.Y-7.875
X3.Y-8.625
X3.Y-9.375
X3.Y-10.125
X3.Y-10.875
X3.Y-11.625
X3.75Y-1.125
X3.75Y-1.875
X3.75Y-2.625
X3.75Y-3.375
X3.75Y-4.125
X3.75Y-4.875
X3.75Y-5.625
X3.75Y-6.375
X3.75Y-7.125
X3.75Y-7.875
X3.75Y-8.625
X3.75Y-9.375
X3.75Y-10.125
X3.75Y-10.875
X3.75Y-11.625
X4.5Y-1.125
X4.5Y-1.875
X4.5Y-2.625
X4.5Y-3.375
X4.5Y-4.125
X4.5Y-4.875
X4.5Y-5.625
X4.5Y-6.375
X4.5Y-7.125
X4.5Y-7.875
X4.5Y-8.625
X4.5Y-9.375
X4.5Y-10.125
X4.5Y-10.875
X4.5Y-11.625
X5.25Y-1.125
X5.25Y-1.875
X5.25Y-2.625
X5.25Y-3.375
X5.25Y-4.125
X5.25Y-4.875
X5.25Y-5.625
X5.25Y-6.375
X5.25Y-7.125
X5.25Y-7.875
X5.25Y-8.625
X5.25Y-9.375
X5.25Y-10.125
X5.25Y-10.875
X5.25Y-11.625
X6.Y-1.125
X6.Y-1.875
X6.Y-2.625
X6.Y-3.375
X6.Y-4.125
X6.Y-4.875
X6.Y-5.625
X6.Y-6.375
X6.Y-7.125
X6.Y-7.875
X6.Y-8.625
X6.Y-9.375
X6.Y-10.125
X6.Y-10.875
X6.Y-11.625
X6.75Y-1.125
X6.75Y-1.875
X6.75Y-2.625
X6.75Y-3.375
X6.75Y-4.125
X6.75Y-4.875
X6.75Y-5.625
X6.75Y-6.375
X6.75Y-7.125
X6.75Y-7.875
X6.75Y-8.625
X6.75Y-9.375
X6.75Y-10.125
X6.75Y-10.875
X6.75Y-11.625
X7.5Y-1.125
X7.5Y-1.875
X7.5Y-2.625
X7.5Y-3.375
X7.5Y-4.125
X7.5Y-4.875
X7.5Y-5.625
X7.5Y-6.375
X7.5Y-7.125
X7.5Y-7.875
X7.5Y-8.625
X7.5Y-9.375
X7.5Y-10.125
X7.5Y-10.875
X7.5Y-11.625
X8.25Y-1.125
X8.25Y-1.875
X8.25Y-2.625
X8.25Y-3.375
X8.25Y-4.125
X8.25Y-4.875
X8.25Y-5.625
X8.25Y-6.375
X8.25Y-7.125
X8.25Y-7.875
X8.25Y-8.625
X8.25Y-9.375
X8.25Y-10.125
X8.25Y-10.875
X8.25Y-11.625
X9.Y-1.125
X9.Y-1.875
X9.Y-2.625
X9.Y-3.375
X9.Y-4.125
X9.Y-4.875
X9.Y-5.625
X9.Y-6.375
X9.Y-7.125
X9.Y-7.875
X9.Y-8.625
X9.Y-9.375
X9.Y-10.125
X9.Y-10.875
X9.Y-11.625
X9.75Y-1.125
X9.75Y-1.875
X9.75Y-2.625
X9.75Y-3.375
X9.75Y-4.125
X9.75Y-4.875
X9.75Y-5.625
X9.75Y-6.375
X9.75Y-7.125
X9.75Y-7.875
X9.75Y-8.625
X9.75Y-9.375
X9.75Y-10.125
X9.75Y-10.875
X9.75Y-11.625
X10.5Y-1.125
X10.5Y-1.875
X10.5Y-2.625
X10.5Y-3.375
X10.5Y-4.125
X10.5Y-4.875
X10.5Y-5.625
X10.5Y-6.375
X10.5Y-7.125
X10.5Y-7.875
X10.5Y-8.625
X10.5Y-9.375
X10.5Y-10.125
X10.5Y-10.875
X10.5Y-11.625
X11.25Y-1.125
X11.25Y-1.875
X11.25Y-2.625
X11.25Y-3.375
X11.25Y-4.125
X11.25Y-4.875
X11.25Y-5.625
X11.25Y-6.375
X11.25Y-7.125
X11.25Y-7.875
X11.25Y-8.625
X11.25Y-9.375
X11.25Y-10.125
X11.25Y-10.875
X11.25Y-11.625
X12.Y-1.125
X12.Y-1.875
X12.Y-2.625
X12.Y-3.375
X12.Y-4.125
X12.Y-4.875
X12.Y-5.625
X12.Y-6.375
X12.Y-7.125
X12.Y-7.875
X12.Y-8.625
X12.Y-9.375
X12.Y-10.125
X12.Y-10.875
X12.Y-11.625
T0
M30
