M48
;DRILL file {KiCad 4.0.7} date 07/28/18 11:48:00
;FORMAT={-:-/ absolute / inch / decimal}
FMAT,2
INCH,TZ
T1C0.028
T2C0.035
T3C0.040
T4C0.043
T5C0.043
T6C0.059
T7C0.205
%
G90
G05
M72
T1
X1.2927Y-1.4439
X1.2927Y-2.1939
X1.2927Y-2.9439
X1.2927Y-3.6939
X1.2927Y-4.4439
X1.2927Y-5.1939
X1.2927Y-5.9439
X1.2927Y-6.6939
X1.2927Y-7.4439
X1.2927Y-8.1939
X1.2927Y-8.9439
X1.2927Y-9.6939
X1.2927Y-10.4439
X1.2927Y-11.1939
X1.2927Y-11.9439
X1.5998Y-1.4439
X1.5998Y-2.1939
X1.5998Y-2.9439
X1.5998Y-3.6939
X1.5998Y-4.4439
X1.5998Y-5.1939
X1.5998Y-5.9439
X1.5998Y-6.6939
X1.5998Y-7.4439
X1.5998Y-8.1939
X1.5998Y-8.9439
X1.5998Y-9.6939
X1.5998Y-10.4439
X1.5998Y-11.1939
X1.5998Y-11.9439
X2.0427Y-1.4439
X2.0427Y-2.1939
X2.0427Y-2.9439
X2.0427Y-3.6939
X2.0427Y-4.4439
X2.0427Y-5.1939
X2.0427Y-5.9439
X2.0427Y-6.6939
X2.0427Y-7.4439
X2.0427Y-8.1939
X2.0427Y-8.9439
X2.0427Y-9.6939
X2.0427Y-10.4439
X2.0427Y-11.1939
X2.0427Y-11.9439
X2.3498Y-1.4439
X2.3498Y-2.1939
X2.3498Y-2.9439
X2.3498Y-3.6939
X2.3498Y-4.4439
X2.3498Y-5.1939
X2.3498Y-5.9439
X2.3498Y-6.6939
X2.3498Y-7.4439
X2.3498Y-8.1939
X2.3498Y-8.9439
X2.3498Y-9.6939
X2.3498Y-10.4439
X2.3498Y-11.1939
X2.3498Y-11.9439
X2.7927Y-1.4439
X2.7927Y-2.1939
X2.7927Y-2.9439
X2.7927Y-3.6939
X2.7927Y-4.4439
X2.7927Y-5.1939
X2.7927Y-5.9439
X2.7927Y-6.6939
X2.7927Y-7.4439
X2.7927Y-8.1939
X2.7927Y-8.9439
X2.7927Y-9.6939
X2.7927Y-10.4439
X2.7927Y-11.1939
X2.7927Y-11.9439
X3.0998Y-1.4439
X3.0998Y-2.1939
X3.0998Y-2.9439
X3.0998Y-3.6939
X3.0998Y-4.4439
X3.0998Y-5.1939
X3.0998Y-5.9439
X3.0998Y-6.6939
X3.0998Y-7.4439
X3.0998Y-8.1939
X3.0998Y-8.9439
X3.0998Y-9.6939
X3.0998Y-10.4439
X3.0998Y-11.1939
X3.0998Y-11.9439
X3.5427Y-1.4439
X3.5427Y-2.1939
X3.5427Y-2.9439
X3.5427Y-3.6939
X3.5427Y-4.4439
X3.5427Y-5.1939
X3.5427Y-5.9439
X3.5427Y-6.6939
X3.5427Y-7.4439
X3.5427Y-8.1939
X3.5427Y-8.9439
X3.5427Y-9.6939
X3.5427Y-10.4439
X3.5427Y-11.1939
X3.5427Y-11.9439
X3.8498Y-1.4439
X3.8498Y-2.1939
X3.8498Y-2.9439
X3.8498Y-3.6939
X3.8498Y-4.4439
X3.8498Y-5.1939
X3.8498Y-5.9439
X3.8498Y-6.6939
X3.8498Y-7.4439
X3.8498Y-8.1939
X3.8498Y-8.9439
X3.8498Y-9.6939
X3.8498Y-10.4439
X3.8498Y-11.1939
X3.8498Y-11.9439
X4.2927Y-1.4439
X4.2927Y-2.1939
X4.2927Y-2.9439
X4.2927Y-3.6939
X4.2927Y-4.4439
X4.2927Y-5.1939
X4.2927Y-5.9439
X4.2927Y-6.6939
X4.2927Y-7.4439
X4.2927Y-8.1939
X4.2927Y-8.9439
X4.2927Y-9.6939
X4.2927Y-10.4439
X4.2927Y-11.1939
X4.2927Y-11.9439
X4.5998Y-1.4439
X4.5998Y-2.1939
X4.5998Y-2.9439
X4.5998Y-3.6939
X4.5998Y-4.4439
X4.5998Y-5.1939
X4.5998Y-5.9439
X4.5998Y-6.6939
X4.5998Y-7.4439
X4.5998Y-8.1939
X4.5998Y-8.9439
X4.5998Y-9.6939
X4.5998Y-10.4439
X4.5998Y-11.1939
X4.5998Y-11.9439
X5.0427Y-1.4439
X5.0427Y-2.1939
X5.0427Y-2.9439
X5.0427Y-3.6939
X5.0427Y-4.4439
X5.0427Y-5.1939
X5.0427Y-5.9439
X5.0427Y-6.6939
X5.0427Y-7.4439
X5.0427Y-8.1939
X5.0427Y-8.9439
X5.0427Y-9.6939
X5.0427Y-10.4439
X5.0427Y-11.1939
X5.0427Y-11.9439
X5.3498Y-1.4439
X5.3498Y-2.1939
X5.3498Y-2.9439
X5.3498Y-3.6939
X5.3498Y-4.4439
X5.3498Y-5.1939
X5.3498Y-5.9439
X5.3498Y-6.6939
X5.3498Y-7.4439
X5.3498Y-8.1939
X5.3498Y-8.9439
X5.3498Y-9.6939
X5.3498Y-10.4439
X5.3498Y-11.1939
X5.3498Y-11.9439
X5.7927Y-1.4439
X5.7927Y-2.1939
X5.7927Y-2.9439
X5.7927Y-3.6939
X5.7927Y-4.4439
X5.7927Y-5.1939
X5.7927Y-5.9439
X5.7927Y-6.6939
X5.7927Y-7.4439
X5.7927Y-8.1939
X5.7927Y-8.9439
X5.7927Y-9.6939
X5.7927Y-10.4439
X5.7927Y-11.1939
X5.7927Y-11.9439
X6.0998Y-1.4439
X6.0998Y-2.1939
X6.0998Y-2.9439
X6.0998Y-3.6939
X6.0998Y-4.4439
X6.0998Y-5.1939
X6.0998Y-5.9439
X6.0998Y-6.6939
X6.0998Y-7.4439
X6.0998Y-8.1939
X6.0998Y-8.9439
X6.0998Y-9.6939
X6.0998Y-10.4439
X6.0998Y-11.1939
X6.0998Y-11.9439
X6.325Y-1.35
X6.325Y-1.75
X6.425Y-1.35
X6.425Y-1.75
X6.5427Y-1.4439
X6.5427Y-2.1939
X6.5427Y-2.9439
X6.5427Y-3.6939
X6.5427Y-4.4439
X6.5427Y-5.1939
X6.5427Y-5.9439
X6.5427Y-6.6939
X6.5427Y-7.4439
X6.5427Y-8.1939
X6.5427Y-8.9439
X6.5427Y-9.6939
X6.5427Y-10.4439
X6.5427Y-11.1939
X6.5427Y-11.9439
X6.8498Y-1.4439
X6.8498Y-2.1939
X6.8498Y-2.9439
X6.8498Y-3.6939
X6.8498Y-4.4439
X6.8498Y-5.1939
X6.8498Y-5.9439
X6.8498Y-6.6939
X6.8498Y-7.4439
X6.8498Y-8.1939
X6.8498Y-8.9439
X6.8498Y-9.6939
X6.8498Y-10.4439
X6.8498Y-11.1939
X6.8498Y-11.9439
X7.2927Y-2.9439
X7.2927Y-3.6939
X7.2927Y-4.4439
X7.2927Y-5.1939
X7.2927Y-5.9439
X7.2927Y-6.6939
X7.2927Y-7.4439
X7.2927Y-8.1939
X7.2927Y-8.9439
X7.2927Y-9.6939
X7.2927Y-10.4439
X7.2927Y-11.1939
X7.2927Y-11.9439
X7.5998Y-2.9439
X7.5998Y-3.6939
X7.5998Y-4.4439
X7.5998Y-5.1939
X7.5998Y-5.9439
X7.5998Y-6.6939
X7.5998Y-7.4439
X7.5998Y-8.1939
X7.5998Y-8.9439
X7.5998Y-9.6939
X7.5998Y-10.4439
X7.5998Y-11.1939
X7.5998Y-11.9439
X7.925Y-0.9944
X7.925Y-1.3015
X7.925Y-1.7465
X7.925Y-2.0535
X8.0427Y-1.4439
X8.0427Y-2.1939
X8.0427Y-2.9439
X8.0427Y-3.6939
X8.0427Y-4.4439
X8.0427Y-5.1939
X8.0427Y-5.9439
X8.0427Y-6.6939
X8.0427Y-7.4439
X8.0427Y-8.1939
X8.0427Y-8.9439
X8.0427Y-9.6939
X8.0427Y-10.4439
X8.0427Y-11.1939
X8.0427Y-11.9439
X8.3498Y-1.4439
X8.3498Y-2.1939
X8.3498Y-2.9439
X8.3498Y-3.6939
X8.3498Y-4.4439
X8.3498Y-5.1939
X8.3498Y-5.9439
X8.3498Y-6.6939
X8.3498Y-7.4439
X8.3498Y-8.1939
X8.3498Y-8.9439
X8.3498Y-9.6939
X8.3498Y-10.4439
X8.3498Y-11.1939
X8.3498Y-11.9439
X8.7927Y-1.4575
X8.7927Y-2.1939
X8.7927Y-2.9439
X8.7927Y-3.6939
X8.7927Y-4.4439
X8.7927Y-5.1939
X8.7927Y-5.9439
X8.7927Y-6.6939
X8.7927Y-7.4439
X8.7927Y-8.1939
X8.7927Y-8.9439
X8.7927Y-9.6939
X8.7927Y-10.4439
X8.7927Y-11.1939
X8.7927Y-11.9439
X9.0998Y-1.4575
X9.0998Y-2.1939
X9.0998Y-2.9439
X9.0998Y-3.6939
X9.0998Y-4.4439
X9.0998Y-5.1939
X9.0998Y-5.9439
X9.0998Y-6.6939
X9.0998Y-7.4439
X9.0998Y-8.1939
X9.0998Y-8.9439
X9.0998Y-9.6939
X9.0998Y-10.4439
X9.0998Y-11.1939
X9.0998Y-11.9439
X9.5427Y-2.1939
X9.5427Y-2.9439
X9.5427Y-3.6939
X9.5427Y-4.4439
X9.5427Y-5.1939
X9.5427Y-5.9439
X9.5427Y-6.6939
X9.5427Y-7.4439
X9.5427Y-8.1939
X9.5427Y-8.9439
X9.5427Y-9.6939
X9.5427Y-10.4439
X9.5427Y-11.1939
X9.5427Y-11.9439
X9.5429Y-1.4675
X9.8498Y-2.1939
X9.8498Y-2.9439
X9.8498Y-3.6939
X9.8498Y-4.4439
X9.8498Y-5.1939
X9.8498Y-5.9439
X9.8498Y-6.6939
X9.8498Y-7.4439
X9.8498Y-8.1939
X9.8498Y-8.9439
X9.8498Y-9.6939
X9.8498Y-10.4439
X9.8498Y-11.1939
X9.8498Y-11.9439
X9.85Y-1.4675
X10.2927Y-1.4439
X10.2927Y-2.1939
X10.2927Y-2.9439
X10.2927Y-3.6939
X10.2927Y-4.4439
X10.2927Y-5.1939
X10.2927Y-5.9439
X10.2927Y-6.6939
X10.2927Y-7.4439
X10.2927Y-8.1939
X10.2927Y-8.9439
X10.2927Y-9.6939
X10.2927Y-10.4439
X10.2927Y-11.1939
X10.2927Y-11.9439
X10.5998Y-1.4439
X10.5998Y-2.1939
X10.5998Y-2.9439
X10.5998Y-3.6939
X10.5998Y-4.4439
X10.5998Y-5.1939
X10.5998Y-5.9439
X10.5998Y-6.6939
X10.5998Y-7.4439
X10.5998Y-8.1939
X10.5998Y-8.9439
X10.5998Y-9.6939
X10.5998Y-10.4439
X10.5998Y-11.1939
X10.5998Y-11.9439
X11.0427Y-1.4439
X11.0427Y-2.1939
X11.0427Y-2.9439
X11.0427Y-3.6939
X11.0427Y-4.4439
X11.0427Y-5.1939
X11.0427Y-5.9439
X11.0427Y-6.6939
X11.0427Y-7.4439
X11.0427Y-8.1939
X11.0427Y-8.9439
X11.0427Y-9.6939
X11.0427Y-10.4439
X11.0427Y-11.1939
X11.0427Y-11.9439
X11.3498Y-1.4439
X11.3498Y-2.1939
X11.3498Y-2.9439
X11.3498Y-3.6939
X11.3498Y-4.4439
X11.3498Y-5.1939
X11.3498Y-5.9439
X11.3498Y-6.6939
X11.3498Y-7.4439
X11.3498Y-8.1939
X11.3498Y-8.9439
X11.3498Y-9.6939
X11.3498Y-10.4439
X11.3498Y-11.1939
X11.3498Y-11.9439
X11.7927Y-1.4439
X11.7927Y-2.1939
X11.7927Y-2.9439
X11.7927Y-3.6939
X11.7927Y-4.4439
X11.7927Y-5.1939
X11.7927Y-5.9439
X11.7927Y-6.6939
X11.7927Y-7.4439
X11.7927Y-8.1939
X11.7927Y-8.9439
X11.7927Y-9.6939
X11.7927Y-10.4439
X11.7927Y-11.1939
X11.7927Y-11.9439
X12.0998Y-1.4439
X12.0998Y-2.1939
X12.0998Y-2.9439
X12.0998Y-3.6939
X12.0998Y-4.4439
X12.0998Y-5.1939
X12.0998Y-5.9439
X12.0998Y-6.6939
X12.0998Y-7.4439
X12.0998Y-8.1939
X12.0998Y-8.9439
X12.0998Y-9.6939
X12.0998Y-10.4439
X12.0998Y-11.1939
X12.0998Y-11.9439
T3
X12.25Y-1.5
T4
X5.625Y-2.275
X5.625Y-2.375
X5.625Y-2.475
X5.625Y-2.575
X9.375Y-1.6725
X9.375Y-1.7513
X9.375Y-1.83
X9.375Y-2.275
X9.375Y-2.375
X9.375Y-2.475
X9.375Y-2.575
T5
X7.2Y-0.8
X7.2Y-0.9
X7.2Y-1.
X7.2Y-1.1
X7.2Y-1.2
X7.2Y-1.3
X7.2Y-1.4
X7.2Y-1.5
X7.2Y-1.6
X7.2Y-1.7
X7.2Y-1.8
X7.2Y-1.9
X7.2Y-2.
X7.2Y-2.1
X7.2Y-2.2
X7.2Y-2.3
X7.2Y-2.4
X7.2Y-2.5
X7.2Y-2.6
X7.2Y-2.7
X7.5Y-2.1
X7.5Y-2.2
X7.5Y-2.3
X7.5Y-2.4
X7.6Y-2.1
X7.6Y-2.2
X7.6Y-2.3
X7.6Y-2.4
X7.8Y-0.8
X7.8Y-0.9
X7.8Y-1.
X7.8Y-1.1
X7.8Y-1.2
X7.8Y-1.3
X7.8Y-1.4
X7.8Y-1.5
X7.8Y-1.6
X7.8Y-1.7
X7.8Y-1.8
X7.8Y-1.9
X7.8Y-2.
X7.8Y-2.1
X7.8Y-2.2
X7.8Y-2.3
X7.8Y-2.4
X7.8Y-2.5
X7.8Y-2.6
X7.8Y-2.7
X9.45Y-0.95
X9.45Y-1.05
X9.45Y-1.15
X9.45Y-1.25
X9.45Y-1.35
X10.05Y-0.95
X10.05Y-1.05
X10.05Y-1.15
X10.05Y-1.25
X10.05Y-1.35
T6
X1.35Y-1.025
X1.35Y-1.775
X1.35Y-2.525
X1.35Y-3.275
X1.35Y-4.025
X1.35Y-4.775
X1.35Y-5.525
X1.35Y-6.275
X1.35Y-7.025
X1.35Y-7.775
X1.35Y-8.525
X1.35Y-9.275
X1.35Y-10.025
X1.35Y-10.775
X1.35Y-11.525
X1.6Y-0.925
X1.6Y-1.675
X1.6Y-2.425
X1.6Y-3.175
X1.6Y-3.925
X1.6Y-4.675
X1.6Y-5.425
X1.6Y-6.175
X1.6Y-6.925
X1.6Y-7.675
X1.6Y-8.425
X1.6Y-9.175
X1.6Y-9.925
X1.6Y-10.675
X1.6Y-11.425
X2.1Y-1.025
X2.1Y-1.775
X2.1Y-2.525
X2.1Y-3.275
X2.1Y-4.025
X2.1Y-4.775
X2.1Y-5.525
X2.1Y-6.275
X2.1Y-7.025
X2.1Y-7.775
X2.1Y-8.525
X2.1Y-9.275
X2.1Y-10.025
X2.1Y-10.775
X2.1Y-11.525
X2.35Y-0.925
X2.35Y-1.675
X2.35Y-2.425
X2.35Y-3.175
X2.35Y-3.925
X2.35Y-4.675
X2.35Y-5.425
X2.35Y-6.175
X2.35Y-6.925
X2.35Y-7.675
X2.35Y-8.425
X2.35Y-9.175
X2.35Y-9.925
X2.35Y-10.675
X2.35Y-11.425
X2.85Y-1.025
X2.85Y-1.775
X2.85Y-2.525
X2.85Y-3.275
X2.85Y-4.025
X2.85Y-4.775
X2.85Y-5.525
X2.85Y-6.275
X2.85Y-7.025
X2.85Y-7.775
X2.85Y-8.525
X2.85Y-9.275
X2.85Y-10.025
X2.85Y-10.775
X2.85Y-11.525
X3.1Y-0.925
X3.1Y-1.675
X3.1Y-2.425
X3.1Y-3.175
X3.1Y-3.925
X3.1Y-4.675
X3.1Y-5.425
X3.1Y-6.175
X3.1Y-6.925
X3.1Y-7.675
X3.1Y-8.425
X3.1Y-9.175
X3.1Y-9.925
X3.1Y-10.675
X3.1Y-11.425
X3.6Y-1.025
X3.6Y-1.775
X3.6Y-2.525
X3.6Y-3.275
X3.6Y-4.025
X3.6Y-4.775
X3.6Y-5.525
X3.6Y-6.275
X3.6Y-7.025
X3.6Y-7.775
X3.6Y-8.525
X3.6Y-9.275
X3.6Y-10.025
X3.6Y-10.775
X3.6Y-11.525
X3.85Y-0.925
X3.85Y-1.675
X3.85Y-2.425
X3.85Y-3.175
X3.85Y-3.925
X3.85Y-4.675
X3.85Y-5.425
X3.85Y-6.175
X3.85Y-6.925
X3.85Y-7.675
X3.85Y-8.425
X3.85Y-9.175
X3.85Y-9.925
X3.85Y-10.675
X3.85Y-11.425
X4.35Y-1.025
X4.35Y-1.775
X4.35Y-2.525
X4.35Y-3.275
X4.35Y-4.025
X4.35Y-4.775
X4.35Y-5.525
X4.35Y-6.275
X4.35Y-7.025
X4.35Y-7.775
X4.35Y-8.525
X4.35Y-9.275
X4.35Y-10.025
X4.35Y-10.775
X4.35Y-11.525
X4.6Y-0.925
X4.6Y-1.675
X4.6Y-2.425
X4.6Y-3.175
X4.6Y-3.925
X4.6Y-4.675
X4.6Y-5.425
X4.6Y-6.175
X4.6Y-6.925
X4.6Y-7.675
X4.6Y-8.425
X4.6Y-9.175
X4.6Y-9.925
X4.6Y-10.675
X4.6Y-11.425
X5.1Y-1.025
X5.1Y-1.775
X5.1Y-2.525
X5.1Y-3.275
X5.1Y-4.025
X5.1Y-4.775
X5.1Y-5.525
X5.1Y-6.275
X5.1Y-7.025
X5.1Y-7.775
X5.1Y-8.525
X5.1Y-9.275
X5.1Y-10.025
X5.1Y-10.775
X5.1Y-11.525
X5.35Y-0.925
X5.35Y-1.675
X5.35Y-2.425
X5.35Y-3.175
X5.35Y-3.925
X5.35Y-4.675
X5.35Y-5.425
X5.35Y-6.175
X5.35Y-6.925
X5.35Y-7.675
X5.35Y-8.425
X5.35Y-9.175
X5.35Y-9.925
X5.35Y-10.675
X5.35Y-11.425
X5.85Y-1.025
X5.85Y-1.775
X5.85Y-2.525
X5.85Y-3.275
X5.85Y-4.025
X5.85Y-4.775
X5.85Y-5.525
X5.85Y-6.275
X5.85Y-7.025
X5.85Y-7.775
X5.85Y-8.525
X5.85Y-9.275
X5.85Y-10.025
X5.85Y-10.775
X5.85Y-11.525
X6.1Y-0.925
X6.1Y-1.675
X6.1Y-2.425
X6.1Y-3.175
X6.1Y-3.925
X6.1Y-4.675
X6.1Y-5.425
X6.1Y-6.175
X6.1Y-6.925
X6.1Y-7.675
X6.1Y-8.425
X6.1Y-9.175
X6.1Y-9.925
X6.1Y-10.675
X6.1Y-11.425
X6.6Y-1.025
X6.6Y-1.775
X6.6Y-2.525
X6.6Y-3.275
X6.6Y-4.025
X6.6Y-4.775
X6.6Y-5.525
X6.6Y-6.275
X6.6Y-7.025
X6.6Y-7.775
X6.6Y-8.525
X6.6Y-9.275
X6.6Y-10.025
X6.6Y-10.775
X6.6Y-11.525
X6.85Y-0.925
X6.85Y-1.675
X6.85Y-2.425
X6.85Y-3.175
X6.85Y-3.925
X6.85Y-4.675
X6.85Y-5.425
X6.85Y-6.175
X6.85Y-6.925
X6.85Y-7.675
X6.85Y-8.425
X6.85Y-9.175
X6.85Y-9.925
X6.85Y-10.675
X6.85Y-11.425
X7.35Y-1.775
X7.35Y-3.275
X7.35Y-4.025
X7.35Y-4.775
X7.35Y-5.525
X7.35Y-6.275
X7.35Y-7.025
X7.35Y-7.775
X7.35Y-8.525
X7.35Y-9.275
X7.35Y-10.025
X7.35Y-10.775
X7.35Y-11.525
X7.4Y-1.325
X7.4Y-2.825
X7.6Y-1.675
X7.6Y-3.175
X7.6Y-3.925
X7.6Y-4.675
X7.6Y-5.425
X7.6Y-6.175
X7.6Y-6.925
X7.6Y-7.675
X7.6Y-8.425
X7.6Y-9.175
X7.6Y-9.925
X7.6Y-10.675
X7.6Y-11.425
X7.65Y-1.225
X7.65Y-2.725
X8.1Y-1.025
X8.1Y-1.775
X8.1Y-2.525
X8.1Y-3.275
X8.1Y-4.025
X8.1Y-4.775
X8.1Y-5.525
X8.1Y-6.275
X8.1Y-7.025
X8.1Y-7.775
X8.1Y-8.525
X8.1Y-9.275
X8.1Y-10.025
X8.1Y-10.775
X8.1Y-11.525
X8.35Y-0.925
X8.35Y-1.675
X8.35Y-2.425
X8.35Y-3.175
X8.35Y-3.925
X8.35Y-4.675
X8.35Y-5.425
X8.35Y-6.175
X8.35Y-6.925
X8.35Y-7.675
X8.35Y-8.425
X8.35Y-9.175
X8.35Y-9.925
X8.35Y-10.675
X8.35Y-11.425
X8.85Y-1.025
X8.85Y-1.775
X8.85Y-2.525
X8.85Y-3.275
X8.85Y-4.025
X8.85Y-4.775
X8.85Y-5.525
X8.85Y-6.275
X8.85Y-7.025
X8.85Y-7.775
X8.85Y-8.525
X8.85Y-9.275
X8.85Y-10.025
X8.85Y-10.775
X8.85Y-11.525
X9.1Y-0.925
X9.1Y-1.675
X9.1Y-2.425
X9.1Y-3.175
X9.1Y-3.925
X9.1Y-4.675
X9.1Y-5.425
X9.1Y-6.175
X9.1Y-6.925
X9.1Y-7.675
X9.1Y-8.425
X9.1Y-9.175
X9.1Y-9.925
X9.1Y-10.675
X9.1Y-11.425
X9.6Y-1.025
X9.6Y-1.775
X9.6Y-2.525
X9.6Y-3.275
X9.6Y-4.025
X9.6Y-4.775
X9.6Y-5.525
X9.6Y-6.275
X9.6Y-7.025
X9.6Y-7.775
X9.6Y-8.525
X9.6Y-9.275
X9.6Y-10.025
X9.6Y-10.775
X9.6Y-11.525
X9.85Y-0.925
X9.85Y-1.675
X9.85Y-2.425
X9.85Y-3.175
X9.85Y-3.925
X9.85Y-4.675
X9.85Y-5.425
X9.85Y-6.175
X9.85Y-6.925
X9.85Y-7.675
X9.85Y-8.425
X9.85Y-9.175
X9.85Y-9.925
X9.85Y-10.675
X9.85Y-11.425
X10.35Y-1.025
X10.35Y-1.775
X10.35Y-2.525
X10.35Y-3.275
X10.35Y-4.025
X10.35Y-4.775
X10.35Y-5.525
X10.35Y-6.275
X10.35Y-7.025
X10.35Y-7.775
X10.35Y-8.525
X10.35Y-9.275
X10.35Y-10.025
X10.35Y-10.775
X10.35Y-11.525
X10.6Y-0.925
X10.6Y-1.675
X10.6Y-2.425
X10.6Y-3.175
X10.6Y-3.925
X10.6Y-4.675
X10.6Y-5.425
X10.6Y-6.175
X10.6Y-6.925
X10.6Y-7.675
X10.6Y-8.425
X10.6Y-9.175
X10.6Y-9.925
X10.6Y-10.675
X10.6Y-11.425
X11.1Y-1.025
X11.1Y-1.775
X11.1Y-2.525
X11.1Y-3.275
X11.1Y-4.025
X11.1Y-4.775
X11.1Y-5.525
X11.1Y-6.275
X11.1Y-7.025
X11.1Y-7.775
X11.1Y-8.525
X11.1Y-9.275
X11.1Y-10.025
X11.1Y-10.775
X11.1Y-11.525
X11.35Y-0.925
X11.35Y-1.675
X11.35Y-2.425
X11.35Y-3.175
X11.35Y-3.925
X11.35Y-4.675
X11.35Y-5.425
X11.35Y-6.175
X11.35Y-6.925
X11.35Y-7.675
X11.35Y-8.425
X11.35Y-9.175
X11.35Y-9.925
X11.35Y-10.675
X11.35Y-11.425
X11.85Y-1.025
X11.85Y-1.775
X11.85Y-2.525
X11.85Y-3.275
X11.85Y-4.025
X11.85Y-4.775
X11.85Y-5.525
X11.85Y-6.275
X11.85Y-7.025
X11.85Y-7.775
X11.85Y-8.525
X11.85Y-9.275
X11.85Y-10.025
X11.85Y-10.775
X11.85Y-11.525
X12.1Y-0.925
X12.1Y-1.675
X12.1Y-2.425
X12.1Y-3.175
X12.1Y-3.925
X12.1Y-4.675
X12.1Y-5.425
X12.1Y-6.175
X12.1Y-6.925
X12.1Y-7.675
X12.1Y-8.425
X12.1Y-9.175
X12.1Y-9.925
X12.1Y-10.675
X12.1Y-11.425
T7
X1.875Y-1.5
X1.875Y-4.5
X1.875Y-8.25
X1.875Y-11.25
X4.875Y-1.5
X4.875Y-4.5
X4.875Y-8.25
X4.875Y-11.25
X8.625Y-1.5
X8.625Y-4.5
X8.625Y-8.25
X8.625Y-11.25
X11.625Y-1.5
X11.625Y-4.5
X11.625Y-8.25
X11.625Y-11.25
T2
X6.2785Y-0.9672G85X6.2785Y-0.9514
G05
X6.2785Y-1.0853G85X6.2785Y-1.0695
G05
X6.2785Y-1.2427G85X6.2785Y-1.227
G05
X6.4596Y-1.2861G85X6.4596Y-1.2703
G05
T0
M30
